<svg xmlns="http://www.w3.org/2000/svg" xmlns:xlink="http://www.w3.org/1999/xlink" width="260" height="72" viewBox="0 0 260 72">
  <defs>
    <clipPath id="clip-path">
      <rect id="Rectangle_7" data-name="Rectangle 7" width="260" height="72"/>
    </clipPath>
  </defs>
  <g id="Mask_Group_1" data-name="Mask Group 1" clip-path="url(#clip-path)">
    <g id="logoipsum-logo-4" transform="translate(-4.137 -4)">
      <path id="Path_2" data-name="Path 2" d="M4.136,47.226H8.669V69.451H4.136Z"/>
      <path id="Path_3" data-name="Path 3" d="M11.3,61.837a8.068,8.068,0,1,1,8.068,8.053A7.977,7.977,0,0,1,11.3,61.837Zm11.573,0a3.505,3.505,0,1,0-3.505,3.6,3.414,3.414,0,0,0,3.505-3.6Z"/>
      <path id="Path_4" data-name="Path 4" d="M45.655,54.222V68.7c0,5.122-4,7.283-8.053,7.283A7.781,7.781,0,0,1,30.4,72.292l3.9-2.251a3.475,3.475,0,0,0,3.4,1.919A3.022,3.022,0,0,0,41.2,68.7V67.291a5.379,5.379,0,0,1-4.442,1.979,7.736,7.736,0,1,1,0-15.472A5.423,5.423,0,0,1,41.2,55.778V54.267ZM41.2,61.534a3.686,3.686,0,1,0-3.687,3.536A3.445,3.445,0,0,0,41.2,61.534Z"/>
      <path id="Path_5" data-name="Path 5" d="M48.269,61.837a8.068,8.068,0,1,1,8.068,8.053,7.977,7.977,0,0,1-8.068-8.053Zm11.573,0a3.505,3.505,0,1,0-3.505,3.6,3.415,3.415,0,0,0,3.475-3.6Z"/>
      <path id="Path_6" data-name="Path 6" d="M66.506,50.142a2.765,2.765,0,1,1,.81,1.94A2.75,2.75,0,0,1,66.506,50.142Zm.468,4.079h4.533v15.23H66.974Z"/>
      <path id="Path_7" data-name="Path 7" d="M91.269,61.837A7.645,7.645,0,0,1,84,69.89a5.787,5.787,0,0,1-4.533-1.858v7.554H74.936V54.222h4.533v1.435A5.787,5.787,0,0,1,84,53.8a7.645,7.645,0,0,1,7.267,8.038Zm-4.533,0a3.626,3.626,0,1,0-3.717,3.717,3.475,3.475,0,0,0,3.687-3.717Z"/>
      <path id="Path_8" data-name="Path 8" d="M105.381,64.889c0,3.505-3.022,5-6.346,5a6.678,6.678,0,0,1-6.542-3.626l3.959-2.251a2.508,2.508,0,0,0,2.584,1.8c1.1,0,1.647-.348,1.647-.952,0-1.677-7.554-.786-7.554-6.044,0-3.324,2.81-5,6.044-5a6.694,6.694,0,0,1,5.953,3.264l-3.974,2.085A2.251,2.251,0,0,0,99.1,57.818c-.786,0-1.269.3-1.269.861C97.887,60.416,105.381,59.253,105.381,64.889Z"/>
      <path id="Path_9" data-name="Path 9" d="M122.061,54.222v15.23h-4.533v-1.42a5.213,5.213,0,0,1-4.351,1.858c-3.022,0-5.7-2.191-5.7-6.316V54.222h4.533v8.688a2.508,2.508,0,0,0,2.735,2.765c1.662,0,2.825-.967,2.825-3.128V54.222Z"/>
      <path id="Path_10" data-name="Path 10" d="M148.26,60.114v9.337h-4.533V60.507c0-1.511-.74-2.508-2.191-2.508s-2.387,1.073-2.387,2.871v8.582h-4.533V60.507c0-1.511-.725-2.508-2.191-2.508s-2.372,1.073-2.372,2.871v8.582h-4.533V54.222h4.533v1.405a4.684,4.684,0,0,1,4.079-1.828,4.532,4.532,0,0,1,3.989,2.009,5.016,5.016,0,0,1,4.412-2.009C145.978,53.8,148.26,56.307,148.26,60.114Z"/>
      <path id="Path_11" data-name="Path 11" d="M152.128,54.131a3.384,3.384,0,1,0-3.384-3.384A3.384,3.384,0,0,0,152.128,54.131Z"/>
      <path id="Path_12" data-name="Path 12" d="M55.431,35.7A15.849,15.849,0,1,0,39.582,19.849,15.849,15.849,0,0,0,55.431,35.7Z"/>
      <path id="Path_13" data-name="Path 13" d="M90.861,35.7A15.849,15.849,0,1,0,75.012,19.849,15.849,15.849,0,0,0,90.861,35.7Z"/>
      <path id="Path_14" data-name="Path 14" d="M35.85,4H4.166V35.683H35.85Z"/>
    </g>
  </g>
</svg>
