<svg xmlns="http://www.w3.org/2000/svg" xmlns:xlink="http://www.w3.org/1999/xlink" width="330" height="79" viewBox="0 0 330 79">
  <defs>
    <clipPath id="clip-path">
      <rect id="Rectangle_163" data-name="Rectangle 163" width="122" height="72" transform="translate(418 24)" fill="#fff" stroke="#707070" stroke-width="1"/>
    </clipPath>
  </defs>
  <g id="Group_168" data-name="Group 168" transform="translate(-142 -17)">
    <g id="Mask_Group_3" data-name="Mask Group 3" transform="translate(-276)" clip-path="url(#clip-path)">
      <g id="Trapholtlogos" transform="translate(389.494 -66.403)">
        <path id="Path_49" data-name="Path 49" d="M104.253,99.525a4.071,4.071,0,0,1,1.007,0,4.461,4.461,0,0,1,2.014.824v-.738c-2-2.334-7.289-7.835-15.265-8.864a20.372,20.372,0,0,0-5.083-.026c-8.006.982-13.277,6.6-15.193,8.889v61.146H75.4V154.21h3.832v-6.542h3.82v-6.542h24.223v0H86.888V134.57h3.854v-6.547h3.82v-6.551h3.849v-6.551h8.864v-.2H101.24V101.292A4.85,4.85,0,0,1,104.253,99.525Z" fill="none" stroke="#000" stroke-miterlimit="10" stroke-width="0.64"/>
        <line id="Line_1" data-name="Line 1" y1="0.085" x2="28.042" transform="translate(79.232 154.125)" fill="none" stroke="#000" stroke-miterlimit="10" stroke-width="0.64"/>
        <line id="Line_2" data-name="Line 2" y1="0.196" x2="24.223" transform="translate(83.052 147.471)" fill="none" stroke="#000" stroke-miterlimit="10" stroke-width="0.64"/>
        <line id="Line_3" data-name="Line 3" x2="16.537" y2="0.094" transform="translate(90.738 134.57)" fill="none" stroke="#000" stroke-miterlimit="10" stroke-width="0.64"/>
        <g id="Group_121" data-name="Group 121">
          <g id="Group_120" data-name="Group 120">
            <path id="Path_50" data-name="Path 50" d="M81.793,111.67a8.1,8.1,0,0,1,1.809-3.431l-1.007-.777a16.665,16.665,0,0,0-1.925,5.753.644.644,0,0,0,1.169.5q1.2-1.888,2.4-3.777c-.388-.166-.781-.329-1.169-.5l-1.242,6.568a.643.643,0,0,0,1.169.5q.979-1.664,1.955-3.329c-.4-.107-.794-.213-1.195-.324a20.944,20.944,0,0,1-.4,4.673c-.115.572.619,1.148,1.071.623L85.4,117c.533-.623-.367-1.532-.9-.9l-.973,1.139,1.071.623a22.456,22.456,0,0,0,.444-5.01.647.647,0,0,0-1.195-.324q-.979,1.664-1.955,3.329c.388.166.781.329,1.169.5l1.242-6.568a.644.644,0,0,0-1.169-.5q-1.2,1.888-2.4,3.777c.388.166.781.329,1.169.5a15.84,15.84,0,0,1,1.8-5.445c.337-.615-.5-1.336-1.007-.777a9.4,9.4,0,0,0-2.138,3.994.644.644,0,0,0,1.242.337Z"/>
          </g>
        </g>
        <g id="Group_123" data-name="Group 123">
          <g id="Group_122" data-name="Group 122">
            <path id="Path_51" data-name="Path 51" d="M72.315,160.594l2.211.077a.649.649,0,0,0,.619-.469,18.583,18.583,0,0,0,.265-6.03.679.679,0,0,0-.469-.619,9.015,9.015,0,0,0-2.539-.444.648.648,0,0,0-.64.64q-.045,2.727-.09,5.458a.647.647,0,0,0,.811.619c.516-.137,1.024.141,1.541-.132a1.37,1.37,0,0,0,.657-1.238c.051-.661.068-1.331.1-1.993a4.822,4.822,0,0,0-.043-1.835,1.087,1.087,0,0,0-2.091.047,6.8,6.8,0,0,0-.111,1.741c-.017.725-.03,1.455-.047,2.181-.017.841,1.2.8,1.28,0l.538-5.211a.646.646,0,0,0-.964-.555,2.574,2.574,0,0,1-.3.171c-.051.119-.077.1-.077-.043a1.887,1.887,0,0,1,.009-.491c.021-.448.043-.9.064-1.349a10.032,10.032,0,0,1,.367-2.714c-.418-.055-.836-.115-1.259-.171a49.2,49.2,0,0,0,.252,5.377c.06.585.866.93,1.195.324.213-.393.422-.785.636-1.178l-1.169-.154c.128.935.644,1.78,1.707,1.7.546-.038,1.071-.243,1.617-.3a6.625,6.625,0,0,1,1.882.077.651.651,0,0,0,.811-.619c.047-1.161.094-2.326.141-3.487.038-.892.376-2.27-.4-2.94-.7-.6-1.967-.487-2.821-.521a31.26,31.26,0,0,0-3.687.068.649.649,0,0,0-.555.316c-.248.568-.354,1.225.213,1.634.606.435,1.118-.128,1.724-.213a10.982,10.982,0,0,1,1.946.038l1.114.051c.043,0,.606.038.606.03-.043-.064-.085-.124-.132-.188,0,.111,0,.226,0,.337-.013.76-.034,1.519-.051,2.279a4.027,4.027,0,0,0-.021,1.037c0,.047,0,.094,0,.141.141-.1.137-.119-.009-.068a2.384,2.384,0,0,0-.725.081l-1.139.128a1.951,1.951,0,0,1-.888.026c-.435-.2-.427-1.28-.482-1.656-.047-.35-.1-.7-.145-1.046a2.32,2.32,0,0,0-.085-.627c-.009-.06-.013-.119-.021-.179-.277.073-.307.107-.094.094a3.457,3.457,0,0,0,1.011.06c.405.026.807.047,1.212.073l.606.038.2.013c.248.068.273.009.073-.179.009,0,0,.845,0,.922,0,.333,0,.661-.009.994a1.631,1.631,0,0,1-.009.38c-.09.1-.619.115-.755.141-.329.06-.657.132-.99.179-.277.038-.418.073-.533-.2a4.908,4.908,0,0,1-.243-1.11c-.026-.137-.051-.273-.064-.41a1.728,1.728,0,0,1-.026-.3c.013-.107,0-.115-.017-.021.158-.107.768.038.977.051a3.617,3.617,0,0,0,1.127.06c-.03-.051-.055-.1-.085-.154,0,.051,0,.1,0,.154a2.293,2.293,0,0,0-.034.619c0,.1-.09.542-.034.619.58-.038.764-.2.546-.487-.03-.051-.055-.1-.085-.149a2.363,2.363,0,0,0-1.6-1.259,1.415,1.415,0,0,0-.926.128,1.164,1.164,0,0,0-.405.871,1.758,1.758,0,0,0,.589,1.8,2.144,2.144,0,0,0,1.9.094.651.651,0,0,0,.282-1.071c-.3-.38-.6-.76-.9-1.139-.324-.41-.93-.124-1.071.282-.051.141-.1.282-.149.422-.273.781.964,1.114,1.233.341.051-.141.1-.282.149-.423l-1.071.282c.3.38.6.76.9,1.139.094-.358.188-.713.282-1.071-.2.06-.644.248-.828.085-.213-.188-.03-.679.021-.892l-.448.448c.8-.256,1,1.11,1.558,1.421a.878.878,0,0,0,.892-.013c.388-.256.393-.7.414-1.118.038-.764.239-1.805-.683-2.125a3.879,3.879,0,0,0-1.067-.115c-.5-.026-1-.09-1.5-.077a1.227,1.227,0,0,0-1.263,1.3,6.58,6.58,0,0,0,.175,1.255,4.627,4.627,0,0,0,.354,1.267,1.615,1.615,0,0,0,1.882.738c.457-.073.909-.162,1.366-.243a1.658,1.658,0,0,0,1.118-.5c.487-.606.294-1.673.3-2.394.009-.768.03-1.639-.922-1.788-.9-.141-1.844-.124-2.748-.175-.768-.047-1.7-.145-1.869.832a3.7,3.7,0,0,0,.09,1.144c.073.521.145,1.046.218,1.566a3.129,3.129,0,0,0,.743,2c.649.593,1.558.393,2.347.307.73-.081,1.933.021,2.411-.657a2.212,2.212,0,0,0,.235-1.263c.013-.516.021-1.037.034-1.553.017-.76.333-2.147-.469-2.616a2.973,2.973,0,0,0-1.357-.2l-1.622-.077a9.35,9.35,0,0,0-1.425,0,3.228,3.228,0,0,0-.666.132c-.081.026-.154.06-.23.09a1.417,1.417,0,0,0-.23.107c-.213.094-.09.149.38.166-.184.107-.367.213-.555.316.982-.073,1.967-.107,2.949-.09.491.009.986.03,1.477.06.243.017.982-.047,1.195.137s.047.93.038,1.186c-.021.478-.038.956-.06,1.438-.038.956-.077,1.916-.115,2.872.269-.2.542-.41.811-.619a8.234,8.234,0,0,0-2.782-.051c-.333.051-.875.312-1.2.235-.286-.064-.286-.521-.324-.768-.077-.559-.926-.6-1.169-.154-.213.393-.422.785-.636,1.178.4.107.794.213,1.195.324a50.283,50.283,0,0,1-.252-5.377.644.644,0,0,0-1.259-.171,16.357,16.357,0,0,0-.478,4.4,1.8,1.8,0,0,0,.457,1.575,1.542,1.542,0,0,0,1.835-.1c-.32-.184-.64-.367-.964-.555l-.538,5.211h1.28c.017-.832.034-1.66.055-2.492a4.069,4.069,0,0,0,.03-.99.438.438,0,0,1,.03-.107c-.248-.026-.358.043-.329.209a2.39,2.39,0,0,0-.021.555l-.115,2.292c-.017.35.1.529-.277.508a2.91,2.91,0,0,0-1,.03c.269.2.542.41.811.619q.045-2.727.09-5.458l-.64.64a7.709,7.709,0,0,1,2.2.4c-.158-.2-.312-.41-.469-.619a17.564,17.564,0,0,1-.218,5.689c.2-.158.41-.312.619-.469l-2.211-.077c-.815-.034-.815,1.246.009,1.276Z"/>
          </g>
        </g>
        <g id="Group_125" data-name="Group 125">
          <g id="Group_124" data-name="Group 124">
            <path id="Path_52" data-name="Path 52" d="M78.8,147.548a14.3,14.3,0,0,1,3.572-.055.642.642,0,0,0,.64-.64c-.055-1.157-.094-2.317-.1-3.474,0-.563,0-1.122,0-1.686,0-.282,0-.563.013-.845a1.56,1.56,0,0,0,.017-.312c-.021-.055-.521-.529-.491-.175a.653.653,0,0,0,.64.64c1.041-.017,2.083-.03,3.124-.047a.648.648,0,0,0,.64-.64q-.16-3.29-.124-6.585c-.158.2-.312.41-.469.619a8.367,8.367,0,0,1,1.5-.06c-.055-.418-.115-.836-.171-1.259-.162.021-.324.047-.487.068-.725.1-.533,1.259.171,1.259.935,0,1.865,0,2.8,0a.644.644,0,0,0,.171-1.259,8.631,8.631,0,0,0-3.149-.316,2.863,2.863,0,0,0-2.164.9c-.568.764-.248,1.72-.171,2.578a29.827,29.827,0,0,1,.051,3.209l.64-.64c-1.007-.009-2.023-.038-3.03-.021a1.506,1.506,0,0,0-1.639,1.246,17.357,17.357,0,0,0-.26,2.975,31.547,31.547,0,0,0,.043,3.239c.158-.2.312-.41.469-.619a27.614,27.614,0,0,1-8.689.3l.64.64q-.038-7.438.145-14.877a.641.641,0,0,0-1.28,0q-.186,7.438-.145,14.877a.659.659,0,0,0,.64.64,28.734,28.734,0,0,0,9.026-.35.64.64,0,0,0,.469-.619,32.01,32.01,0,0,1,.085-5.117c.017-.184-.009-.854.154-1s.636-.06.845-.055c.841.009,1.681.013,2.526.021a.65.65,0,0,0,.64-.64c.017-.8.034-1.609,0-2.411-.017-.4-.047-.8-.094-1.2a6,6,0,0,1-.124-1.131c.051-.649,1.037-.657,1.519-.683a7.563,7.563,0,0,1,2.509.29c.055-.418.115-.836.171-1.259-.935,0-1.865,0-2.8,0,.055.418.115.836.171,1.259.162-.021.324-.047.487-.068.738-.1.521-1.233-.171-1.259a10.213,10.213,0,0,0-1.839.107.641.641,0,0,0-.469.619q-.038,3.3.124,6.585l.64-.64c-1.041.017-2.083.03-3.124.047l.64.64a1.066,1.066,0,0,0-.4-.922,1.016,1.016,0,0,0-.939-.077c-.747.294-.738,1.127-.751,1.805q-.045,2.842.094,5.689l.64-.64a15.6,15.6,0,0,0-3.913.1c-.811.115-.465,1.349.341,1.229Z"/>
          </g>
        </g>
        <g id="Group_127" data-name="Group 127">
          <g id="Group_126" data-name="Group 126">
            <path id="Path_53" data-name="Path 53" d="M73.13,131.182c.068-.768.132-1.536.2-2.3l-.64.64q8.514.455,17.045.324l-.64-.64c.137,1.178.273,2.351.41,3.529.269-.2.542-.41.811-.619a6.222,6.222,0,0,0-3.064-.235c.209.358.414.713.623,1.071a4.35,4.35,0,0,0,1.617-3.124h-1.28c.077.768.154,1.536.235,2.3.418-.055.836-.115,1.259-.171-.269-1.233-.785-2.386-2.138-2.659a30.7,30.7,0,0,0-4.716-.469,45.209,45.209,0,0,0-4.869.047c-1.472.1-3.115.516-4.541-.034a.644.644,0,0,0-.79.448,12.358,12.358,0,0,0-.115,4.157c.1.7,1.033.5,1.233,0,.294-.73.115-1.524.35-2.258.256-.807,1.263-.508,1.916-.457q2.74.211,5.48.427,2.689.211,5.373.418c.666.051,1.485.141,1.912-.5a1.069,1.069,0,0,0-.277-1.5c-.734-.427-1.455.239-1.57.947a4.206,4.206,0,0,1-.226,1.169,2.423,2.423,0,0,1-.755.9l1.071.282a2.679,2.679,0,0,0-3.6-1.908.644.644,0,0,0,.171,1.259q1.78.09,3.559.175v-1.28q-3.758-.179-7.52-.363l-3.709-.179c-.986-.047-1.993-.068-2.6.849a7.508,7.508,0,0,0-.777,2.992,34.915,34.915,0,0,0-.337,3.649c-.051,1.2-.047,2.407-.021,3.61a33.962,33.962,0,0,0,.132,3.487,1.269,1.269,0,0,0,.862,1.148c.576.166,1.071-.26,1.634-.2s1.058.384,1.609.491a2.168,2.168,0,0,0,1.652-.256.643.643,0,0,0-.5-1.169,18.4,18.4,0,0,1-3.627.124c-.836-.051-.8,1.191,0,1.28a15.988,15.988,0,0,0,6.6-.64c.785-.248.448-1.481-.341-1.233a15.079,15.079,0,0,1-6.256.6v1.28a19.863,19.863,0,0,0,3.965-.166c-.166-.388-.329-.781-.5-1.169-.7.457-1.72-.286-2.45-.388a2.647,2.647,0,0,0-1.182.132,1.059,1.059,0,0,1-.3.081c.166.017.034.145.085-.055a3.035,3.035,0,0,0-.034-.76c-.081-2.061-.145-4.131-.06-6.192.043-1.037.119-2.078.26-3.107a9.08,9.08,0,0,1,.568-2.706.807.807,0,0,1,.849-.427c.533,0,1.071.047,1.6.073l3.175.154q3.6.173,7.2.35c.824.038.819-1.238,0-1.28q-1.78-.09-3.559-.175c.055.418.115.836.171,1.259a1.422,1.422,0,0,1,2.023,1.016.649.649,0,0,0,1.071.282A3.41,3.41,0,0,0,88.1,131.6a4.265,4.265,0,0,0,.081-.563c0-.1.013-.209.021-.312-.4-.013-.555-.137-.478-.376a2.844,2.844,0,0,0-.427,0c-.282-.017-.563-.043-.841-.064l-5.9-.461-2.949-.23a25.528,25.528,0,0,0-2.851-.2,1.891,1.891,0,0,0-1.767,1.178c-.354.824-.132,1.737-.461,2.556h1.233a10.547,10.547,0,0,1,.115-3.474l-.79.448a8.963,8.963,0,0,0,4.054.141,43.881,43.881,0,0,1,8.9.154c.555.064,1.413.038,1.839.457a2.919,2.919,0,0,1,.58,1.468c.149.691,1.331.555,1.259-.171-.077-.768-.154-1.536-.235-2.3a.641.641,0,0,0-1.28,0,3.121,3.121,0,0,1-1.242,2.219c-.563.444.077,1.157.623,1.071a4.883,4.883,0,0,1,2.386.235.644.644,0,0,0,.811-.619c-.137-1.178-.273-2.351-.41-3.529a.653.653,0,0,0-.64-.64q-8.527.128-17.045-.324a.653.653,0,0,0-.64.64c-.068.768-.132,1.536-.2,2.3-.073.807,1.212.8,1.28-.013Z"/>
          </g>
        </g>
        <g id="Group_129" data-name="Group 129">
          <g id="Group_128" data-name="Group 128">
            <path id="Path_54" data-name="Path 54" d="M74.184,145.257q-.1-3.009-.188-6.013c-.4.107-.794.213-1.195.324a15.264,15.264,0,0,1,1.263,5.394.645.645,0,0,0,1.259.171,26.723,26.723,0,0,0,.781-3.162,13.814,13.814,0,0,1,1.182-3.034c-.388-.166-.781-.329-1.169-.5a26.757,26.757,0,0,0-1.105,7.66c0,.585.935.935,1.195.324q1.293-3.053,2.59-6.1l-1.105-.644a12.73,12.73,0,0,0-1.114,5.561.647.647,0,0,0,1.195.324q1.037-1.722,2.074-3.448c-.388-.166-.781-.329-1.169-.5a10.82,10.82,0,0,0-.7,3.179c-.06.824,1.225.819,1.28,0a9.7,9.7,0,0,1,.649-2.838c.269-.691-.807-1.1-1.169-.5q-1.037,1.722-2.074,3.448c.4.107.794.213,1.195.324a11.306,11.306,0,0,1,.939-4.912.659.659,0,0,0-.23-.875.643.643,0,0,0-.875.23q-1.293,3.053-2.59,6.1c.4.107.794.213,1.195.324a25.453,25.453,0,0,1,1.058-7.319.643.643,0,0,0-1.169-.5,15.775,15.775,0,0,0-1.276,3.209,29.026,29.026,0,0,1-.819,3.295c.418.055.836.115,1.259.171a16.958,16.958,0,0,0-1.438-6.039c-.26-.593-1.212-.277-1.195.324q.1,3.009.188,6.013a.639.639,0,0,0,1.276-.013Z"/>
          </g>
        </g>
        <g id="Group_131" data-name="Group 131">
          <g id="Group_130" data-name="Group 130">
            <path id="Path_55" data-name="Path 55" d="M78.643,145.624q1.139-2.068,2.275-4.144c-.388-.166-.781-.329-1.169-.5a16.847,16.847,0,0,0-.888,4.071c-.068.734,1.063.845,1.259.171.188-.653.376-1.3.563-1.955H79.45c.068.482.137.969.2,1.451.1.713,1.3.546,1.259-.171-.235-4.14.99-8.219.721-12.355a1.2,1.2,0,0,0-.427-1.041,2.685,2.685,0,0,0-1.413-.162q-1.543-.006-3.081.043c-.815.026-1.861-.09-2.479.551a5.1,5.1,0,0,0-.785,2.509c-.222,1.131-.405,2.27-.559,3.414a2.774,2.774,0,0,0,.491,2.582.649.649,0,0,0,1.071-.282l.6-1.741c-.418-.055-.836-.115-1.259-.171-.021,1.161-.038,2.322-.06,3.482a.647.647,0,0,0,1.195.324q.96-1.677,1.92-3.359c-.388-.166-.781-.329-1.169-.5-.29,1.148-.576,2.292-.866,3.44a.64.64,0,0,0,1.233.341c.5-1.686,1.007-3.376,1.353-5.1a24.863,24.863,0,0,0,.384-2.569,3.725,3.725,0,0,0-.175-2.245,1.492,1.492,0,0,0-1.686-.615,2.17,2.17,0,0,0-1.387,1.361c-.29.708-.487,1.481-.721,2.211a5.732,5.732,0,0,0-.329,2.364.644.644,0,0,0,1.259.171,33.15,33.15,0,0,1,2.142-5.356c-.388-.166-.781-.329-1.169-.5-.721,2.147.055,4.7-1.2,6.666l1.169.154c-.73-1.758.516-3.38,1.558-4.7a5.466,5.466,0,0,1,.743-.883.8.8,0,0,1,.862-.047,3.867,3.867,0,0,0,2.091.38c.824-.162.452-1.344-.341-1.233-1.191.166-2.386.329-3.576.5a.644.644,0,0,0,0,1.233c1.152.171,2.3.346,3.461.516V132.71q-2.08.294-4.161.593a.644.644,0,0,0,0,1.233c1.058.158,2.121.32,3.179.478v-1.233c-.077.021-.154.047-.23.068a.644.644,0,0,0,.171,1.259c.29,0,.58-.009.866-.017v-1.28c-1.306.128-2.612.26-3.913.388-.807.081-.832,1.327,0,1.28a15.556,15.556,0,0,1,4.076.3c.055-.418.115-.836.171-1.259a15.665,15.665,0,0,0-4.669.606.646.646,0,0,0,0,1.233c1.541.649,3.307.448,4.933.41-.055-.418-.115-.836-.171-1.259-1.135.376-2.27.755-3.41,1.131A.644.644,0,0,0,77.5,137.9c1.242.017,2.488.038,3.73.055a.641.641,0,0,0,0-1.28l-3.581-.064a.647.647,0,0,0-.324,1.195,5.094,5.094,0,0,0,1.724.653c-.051-.388-.1-.781-.154-1.169a4.142,4.142,0,0,1-1.822.414.641.641,0,0,0,0,1.28c.521.013,1.037.03,1.558.043a.644.644,0,0,0,.171-1.259c-.474-.107-.947-.213-1.421-.316-.44-.1-.964.3-.79.79.533,1.481-.6,2.949-.879,4.37-.128.661.841,1.195,1.169.5q1.107-2.369,2.215-4.733c-.388-.166-.781-.329-1.169-.5a13.979,13.979,0,0,0-.615,3.777c-.017.76,1.02.819,1.259.171a33,33,0,0,1,1.494-3.482c-.4-.107-.794-.213-1.195-.324-.068.64-.132,1.28-.2,1.92-.077.725,1.084.858,1.259.171.137-.546.277-1.092.414-1.639-.418-.055-.836-.115-1.259-.171v2.706c.171-.128.166-.171-.021-.124-.781-.124-1.229.977-1.361,1.536.41.115.824.226,1.233.341a7.227,7.227,0,0,1,1.221-3.013c-.388-.166-.781-.329-1.169-.5l-.679,1.716c-.3.768.935,1.1,1.233.341l.679-1.716c.282-.717-.785-1.05-1.169-.5a8.115,8.115,0,0,0-1.349,3.32c-.132.794,1.046,1.157,1.233.341a1.25,1.25,0,0,1,.171-.525c.124-.128.222-.073.414-.111a.962.962,0,0,0,.8-.725,5.993,5.993,0,0,0,.047-1.438V138.3a.644.644,0,0,0-1.259-.171c-.137.546-.277,1.093-.414,1.639.418.055.836.115,1.259.171.068-.64.132-1.28.2-1.92a.646.646,0,0,0-1.195-.324,36.128,36.128,0,0,0-1.622,3.79c.418.055.836.115,1.259.171a12.692,12.692,0,0,1,.568-3.435c.209-.679-.858-1.161-1.169-.5q-1.107,2.369-2.215,4.733c.388.166.781.329,1.169.5.329-1.7,1.524-3.265.879-5.053l-.79.79c.474.107.947.213,1.421.316.055-.418.115-.836.171-1.259-.521-.013-1.037-.03-1.558-.043v1.28a5.581,5.581,0,0,0,2.467-.589.646.646,0,0,0-.154-1.169,4.034,4.034,0,0,1-1.417-.525c-.107.4-.213.794-.324,1.195l3.581.064v-1.28c-1.242-.017-2.488-.038-3.73-.055.055.418.115.836.171,1.259,1.135-.376,2.27-.755,3.41-1.131a.644.644,0,0,0-.171-1.259,11.114,11.114,0,0,1-4.6-.363v1.233a14.354,14.354,0,0,1,4.327-.559c.7-.017.9-1.105.171-1.259a17.036,17.036,0,0,0-4.413-.341v1.28c1.306-.128,2.612-.26,3.913-.388.8-.081.841-1.293,0-1.28-.29,0-.58.009-.866.017.055.418.115.836.171,1.259.077-.021.154-.047.23-.068.555-.166.661-1.135,0-1.233-1.058-.158-2.121-.32-3.179-.478v1.233q2.08-.294,4.161-.593a.644.644,0,0,0,0-1.233c-1.152-.171-2.3-.346-3.461-.516v1.233c1.191-.166,2.386-.329,3.576-.5-.115-.41-.226-.824-.341-1.233a2.179,2.179,0,0,1-1.131-.277,2.981,2.981,0,0,0-1.212-.252c-1.016.055-1.583.982-2.151,1.7-1.242,1.575-2.514,3.585-1.656,5.646a.65.65,0,0,0,1.169.154c1.357-2.125.563-4.694,1.331-6.973a.643.643,0,0,0-1.169-.5,34.681,34.681,0,0,0-2.275,5.659c.418.055.836.115,1.259.171a9.217,9.217,0,0,1,.764-3.525c.111-.384.252-1.088.73-1.178.5-.1.29.935.269,1.225a36.5,36.5,0,0,1-1.724,7.733c.41.115.824.226,1.233.341.29-1.148.576-2.292.866-3.44a.643.643,0,0,0-1.169-.5q-.96,1.677-1.92,3.359c.4.107.794.213,1.195.324.021-1.161.038-2.322.06-3.482a.644.644,0,0,0-1.259-.171l-.6,1.741,1.071-.282a1.18,1.18,0,0,1-.2-1.037c.051-.533.141-1.067.222-1.6q.25-1.62.6-3.218c.081-.371.068-.879.508-.96a9.788,9.788,0,0,1,1.5-.064q1.645-.045,3.286-.034c.137,0,.273,0,.41,0-.243-.166-.329-.128-.252.119a3.236,3.236,0,0,0,.017.811c0,.542-.017,1.08-.051,1.622-.064,1.084-.188,2.164-.316,3.239a37.465,37.465,0,0,0-.384,6.482c.418-.055.836-.115,1.259-.171-.068-.482-.137-.969-.2-1.451-.094-.657-1.075-.559-1.233,0-.188.653-.376,1.3-.563,1.955.418.055.836.115,1.259.171a15.621,15.621,0,0,1,.841-3.734c.243-.687-.824-1.122-1.169-.5q-1.139,2.068-2.275,4.14c-.388.73.717,1.374,1.114.653Z"/>
          </g>
        </g>
        <g id="Group_133" data-name="Group 133">
          <g id="Group_132" data-name="Group 132">
            <path id="Path_56" data-name="Path 56" d="M81.831,138.949a26.217,26.217,0,0,0,.354-3.269c.021-.529.03-1.058.017-1.592,0-.256-.013-.508-.03-.764-.009-.128-.013-.256-.021-.38,0-.085-.013-.171-.017-.252.009-.141-.017-.119-.068.06l-.282.166s.23.009.312.017l.512.038c.3.021.6.047.9.068.619.047,1.25.064,1.865.149-.107-.03-.213-.06-.324-.085.021.009.043.021.064.03l-.23-.23c-.158-.235.064-.213-.149-.149a1.152,1.152,0,0,1-.277.073,4.6,4.6,0,0,1-.964-.128,1.914,1.914,0,0,0-2.014.64,1.057,1.057,0,0,0,.9,1.626c.811.038,1.634,0,2.445-.009-.055-.418-.115-.836-.171-1.259q-1.139.416-2.283.832c-.661.243-1.417.448-1.634,1.208a.649.649,0,0,0,.79.79,16.387,16.387,0,0,1,3.252-.478c-.107-.4-.213-.794-.324-1.195L81.3,136.188c-.585.248-.286,1.242.324,1.195l3.111-.256c-.107-.4-.213-.794-.324-1.195a5.3,5.3,0,0,1-1.963.572,2.981,2.981,0,0,0-1.784,1.08.641.641,0,0,0,.384.939,3.14,3.14,0,0,0,1.515-.06,3.336,3.336,0,0,1,1.238-.218,2.2,2.2,0,0,0,.849.1.949.949,0,0,0,.038-1.852.645.645,0,0,0-.811.619c.017.2.034.4.047.6a3.3,3.3,0,0,0,.043.568c-.034-.013.4-.2.256-.282a1.2,1.2,0,0,0-.235-.064,4.079,4.079,0,0,0-.606-.1,3.854,3.854,0,0,0-2.236.491c-.721.4-.077,1.506.644,1.105a2.591,2.591,0,0,1,1.152-.333,11.014,11.014,0,0,1,1.242.179.949.949,0,0,0,1.037-.743,5.34,5.34,0,0,0-.068-1.425c-.269.2-.542.41-.811.619.277-.405.273-.627-.009-.666a1.534,1.534,0,0,0-.2-.051,2.382,2.382,0,0,0-.461-.051,3.641,3.641,0,0,0-.858.115,3.179,3.179,0,0,1-1.43.213c.128.312.256.627.384.939a2.247,2.247,0,0,1,1.413-.568,4.452,4.452,0,0,0,1.873-.623c.469-.329.367-1.25-.324-1.195l-3.111.256c.107.4.213.794.324,1.195l3.145-1.331c.593-.252.277-1.221-.324-1.195a18.481,18.481,0,0,0-3.589.521l.79.79c.021-.073.316-.158.38-.179l.841-.307c.6-.218,1.2-.44,1.8-.657a.645.645,0,0,0-.171-1.259c-.7,0-1.391,0-2.087.009h-.2c-.132,0-.226-.064-.064.094-.184-.179.418.448.085.239l.017-.013c.051.009.2-.068.26-.073a1.926,1.926,0,0,1,.414.021,3.647,3.647,0,0,0,1.805.051,1.482,1.482,0,0,0,1.058-1.3c0-.841-.922-.807-1.524-.854L82.6,131.7c-.623-.047-1.477-.222-1.707.568a2.376,2.376,0,0,0-.013.815c.021.358.038.721.043,1.08a23.992,23.992,0,0,1-.329,4.455.641.641,0,1,0,1.238.333Z"/>
          </g>
        </g>
        <g id="Group_135" data-name="Group 135">
          <g id="Group_134" data-name="Group 134">
            <path id="Path_57" data-name="Path 57" d="M82.655,134.818a.641.641,0,0,0,0-1.28.641.641,0,0,0,0,1.28Z"/>
          </g>
        </g>
        <g id="Group_137" data-name="Group 137">
          <g id="Group_136" data-name="Group 136">
            <path id="Path_58" data-name="Path 58" d="M90.781,129.005c0-.521.009-1.046.013-1.566-.158.2-.312.41-.469.619A18.543,18.543,0,0,1,93.9,127.8a.645.645,0,0,0,.64-.64,50.385,50.385,0,0,1,.128-6.9l-1.093.452a2.208,2.208,0,0,0,1.647.538c.828,0,1.66,0,2.492-.009a.645.645,0,0,0,.64-.64,15.62,15.62,0,0,1-.021-2.048c.038-.76-1.028-.815-1.259-.171a1.351,1.351,0,0,1-.346.649c-.256.179-.751.094-1.054.119a11.531,11.531,0,0,0-2.215.422A.64.64,0,0,0,93.8,120.8a10.929,10.929,0,0,1,1.481-.333c.491-.068,1-.038,1.485-.124.879-.158,1.267-.854,1.545-1.63-.418-.055-.836-.115-1.259-.171a16.405,16.405,0,0,0,.021,2.048l.64-.64c-.623,0-1.246,0-1.869.009-.376,0-1.067.132-1.366-.162a.647.647,0,0,0-1.093.452,50.385,50.385,0,0,0-.128,6.9l.64-.64a20.371,20.371,0,0,0-3.913.3.645.645,0,0,0-.469.619c0,.521-.009,1.046-.013,1.566a.64.64,0,0,0,1.28,0Z"/>
          </g>
        </g>
        <g id="Group_139" data-name="Group 139">
          <g id="Group_138" data-name="Group 138">
            <path id="Path_59" data-name="Path 59" d="M73.074,128.873a26.852,26.852,0,0,0,.256-4.754c-.026-.691-1.1-.9-1.259-.171l-.422,1.933c.41.115.824.226,1.233.341a23.794,23.794,0,0,0,.124-6.875.641.641,0,0,0-1.28,0,31.762,31.762,0,0,0,1.169,9.158.644.644,0,0,0,1.233,0,5.463,5.463,0,0,1,1-2.07c-.4-.107-.794-.213-1.195-.324.026,1.191.051,2.386.077,3.576a.64.64,0,0,0,1.28,0,7.054,7.054,0,0,1,.764-3.226l-1.169-.154c.179.819.363,1.639.542,2.458.162.73,1.229.529,1.259-.171.03-.738.06-1.481.094-2.219-.418.055-.836.115-1.259.171.192.589.38,1.174.572,1.763.179.551,1.118.666,1.233,0l.282-1.626-1.169.154a4.828,4.828,0,0,1,.41,1.438c.107.768,1.191.487,1.259-.171a.164.164,0,0,1,.1-.132l-.875-.23c.3.7.606,1.4.909,2.1.269.623,1.169.252,1.195-.324q.051-1.344.1-2.684c-.418.055-.836.115-1.259.171.277.875.551,1.745.828,2.62a.644.644,0,0,0,1.259-.171c.068-.811.137-1.617.2-2.428-.4.107-.794.213-1.195.324.286.546.568,1.088.854,1.634a.646.646,0,0,0,1.195-.324,6.9,6.9,0,0,1,.119-1.873l-1.169.154a5.211,5.211,0,0,1,.764,1.195c.158.461.256.952.384,1.421l1.071-.623a1.08,1.08,0,0,1-.282-1.225l-1.007.128a9.075,9.075,0,0,1,1.434,1.839.643.643,0,0,0,1.169-.5c-.111-.738-.218-1.481-.329-2.219l-1.071.623a3.938,3.938,0,0,1,.913,1.549.644.644,0,0,0,1.259-.171c.017-.58.03-1.165.047-1.745-.269.2-.542.41-.811.619a1.037,1.037,0,0,1,.388.273.648.648,0,0,0,1.093-.452c.026-.2.051-.41.073-.615-.4.107-.794.213-1.195.324.269.487.542.973.811,1.46a.647.647,0,0,0,1.195-.324c-.021-.64-.047-1.285-.068-1.925a.647.647,0,0,0-1.195-.324,4.485,4.485,0,0,0-.713,2.868c.107.713,1.3.546,1.259-.171a4.755,4.755,0,0,1,1.532-3.845L86,124.657a36.734,36.734,0,0,1-.094,3.815.646.646,0,0,0,1.195.324c.179-.367.358-.734.533-1.1l-1.169-.154q.288,1.229.576,2.462a.644.644,0,0,0,1.259-.171,7.526,7.526,0,0,1,.252-1.745H87.319c.068.346.141.691.209,1.037.137.67,1.037.542,1.233,0,.128-.354.26-.708.388-1.063H87.917c.043.162.09.324.132.487a.645.645,0,0,0,1.233,0c.124-.329.243-.653.367-.982H88.416l.1.666c.1.636,1.1.585,1.233,0,.06-.256.119-.516.179-.772a.64.64,0,0,0-1.233-.341c-.085.2-.166.414-.252.619.418.055.836.115,1.259.171a21.9,21.9,0,0,1,.832-5.612c-.418-.055-.836-.115-1.259-.171a13.384,13.384,0,0,0,.354,3.5c.175.747,1.191.508,1.259-.171.043-.457.09-.913.132-1.366.073-.734-1.067-.849-1.259-.171a18.3,18.3,0,0,0-.563,3.03c-.043.44.444.7.811.619,1.05-.23,2.1-.457,3.149-.687a.644.644,0,0,0,0-1.233,9.016,9.016,0,0,0-2.663-.2c.055.418.115.836.171,1.259a5.718,5.718,0,0,0,2.957-1.186.646.646,0,0,0-.282-1.071,4.726,4.726,0,0,0-3.26.559l.939.721c.145-.478.734-.593,1.148-.721a2.031,2.031,0,0,0,1.212-.717c.516-.819-.341-1.937-1.246-1.413l.875.875a4.932,4.932,0,0,0,.8-3.542.63.63,0,0,0-.7-.457.654.654,0,0,0-.555.627,14.5,14.5,0,0,1-.542,2.433c.418.055.836.115,1.259.171-.068-.657-.132-1.319-.2-1.976-.055-.546-.913-.977-1.195-.324a10.178,10.178,0,0,0-.8,3.231l1.093-.452a2.607,2.607,0,0,1-.533-1.122c-.175-.743-1.2-.512-1.259.171s-.115,1.353-.171,2.031c.418-.055.836-.115,1.259-.171-.154-.448-.3-.892-.457-1.34a.644.644,0,0,0-1.259.171v.26a.644.644,0,0,0,1.259.171c.2-.708.192-1.6-.589-1.942a1.288,1.288,0,0,0-1.609.7,8.717,8.717,0,0,0-.79,2.275,15.015,15.015,0,0,0-.388,2.689c.418-.055.836-.115,1.259-.171-.021-.154-.043-.307-.068-.457-.41.115-.824.226-1.233.341a.218.218,0,0,1-.111.23l1.071.282a6.881,6.881,0,0,1-.273-2.667c.064-.747-1.05-.832-1.259-.171a7.512,7.512,0,0,0-.35,2.535.641.641,0,0,0,1.28,0c.038-.593.073-1.182.111-1.775a11.493,11.493,0,0,0,.09-1.792.822.822,0,0,0-1.643-.038c-.064.824,1.216.819,1.28,0,0-.03,0-.06.009-.09-.064.149-.124.3-.188.452l-.354.124-.384-.294c.081.128-.021.546-.034.7-.021.312-.038.627-.06.939-.038.593-.073,1.182-.111,1.775h1.28a6.484,6.484,0,0,1,.307-2.194c-.418-.055-.836-.115-1.259-.171a7.893,7.893,0,0,0,.32,3.009.649.649,0,0,0,1.071.282,1.577,1.577,0,0,0,.44-1.477c-.137-.815-1.353-.461-1.233.341.021.154.043.307.068.457.107.747,1.221.512,1.259-.171a13.2,13.2,0,0,1,.465-2.825,9.95,9.95,0,0,1,.435-1.289,3.437,3.437,0,0,0,.239-.388c-.175-.09-.235-.06-.188.094a2.281,2.281,0,0,1-.09.346c.418.055.836.115,1.259.171v-.26c-.418.055-.836.115-1.259.171.154.448.3.892.457,1.34a.644.644,0,0,0,1.259-.171c.055-.679.115-1.353.171-2.031-.418.055-.836.115-1.259.171a3.979,3.979,0,0,0,.866,1.686c.388.465,1.054.047,1.093-.452a8.2,8.2,0,0,1,.627-2.586c-.4-.107-.794-.213-1.195-.324.068.657.132,1.319.2,1.976a.644.644,0,0,0,1.259.171,16.235,16.235,0,0,0,.585-2.77c-.418.055-.836.115-1.259.171a3.622,3.622,0,0,1-.67,2.556c-.38.546.35,1.182.875.875-.171-.337-.363-.452-.572-.337a.908.908,0,0,1-.213.077c-.111.038-.222.068-.333.1a4.475,4.475,0,0,0-.866.346,2.058,2.058,0,0,0-1.007,1.221.645.645,0,0,0,.939.721,3.333,3.333,0,0,1,2.27-.427c-.094-.358-.188-.713-.282-1.071a4.711,4.711,0,0,1-2.394.858c-.7.124-.551,1.31.171,1.259a7.713,7.713,0,0,1,2.322.158v-1.233c-1.05.23-2.1.457-3.149.687.269.2.542.41.811.619a15.992,15.992,0,0,1,.516-2.689c-.418-.055-.836-.115-1.259-.171-.043.457-.09.913-.132,1.366.418-.055.836-.115,1.259-.171a12.081,12.081,0,0,1-.307-3.158.644.644,0,0,0-1.259-.171,23.221,23.221,0,0,0-.879,5.953c-.013.772,1,.8,1.259.171.085-.2.166-.414.252-.619-.41-.115-.824-.226-1.233-.341-.06.256-.119.516-.179.772h1.233l-.1-.666c-.107-.687-1.041-.521-1.233,0-.124.329-.243.653-.367.982h1.233c-.043-.162-.09-.324-.132-.487a.646.646,0,0,0-1.233,0c-.128.354-.26.708-.388,1.063h1.233c-.068-.346-.141-.691-.209-1.037a.644.644,0,0,0-1.233,0,9.05,9.05,0,0,0-.294,2.087c.418-.055.836-.115,1.259-.171q-.288-1.229-.576-2.462a.646.646,0,0,0-1.169-.154c-.179.367-.358.734-.533,1.1.4.107.794.213,1.195.324a37.956,37.956,0,0,0,.094-3.815A.648.648,0,0,0,86.2,124.2a5.98,5.98,0,0,0-1.908,4.75c.418-.055.836-.115,1.259-.171a3.2,3.2,0,0,1,.58-1.882c-.4-.107-.794-.213-1.195-.324.021.64.047,1.285.068,1.925.4-.107.794-.213,1.195-.324-.269-.487-.542-.973-.811-1.46-.337-.606-1.122-.26-1.195.324-.026.2-.051.41-.073.615l1.093-.452a2.555,2.555,0,0,0-.956-.606.644.644,0,0,0-.811.619c-.017.58-.03,1.165-.047,1.745.418-.055.836-.115,1.259-.171a5.346,5.346,0,0,0-1.242-2.117c-.482-.508-1.157.043-1.071.623.111.738.218,1.481.329,2.219.388-.166.781-.329,1.169-.5a10.4,10.4,0,0,0-1.634-2.1.647.647,0,0,0-1.007.128,2.4,2.4,0,0,0,.482,2.778.647.647,0,0,0,1.071-.623c-.145-.533-.265-1.084-.435-1.609a5.4,5.4,0,0,0-.841-1.31.648.648,0,0,0-1.169.154,8.052,8.052,0,0,0-.166,2.215c.4-.107.794-.213,1.195-.324-.286-.546-.568-1.088-.854-1.634-.316-.606-1.144-.265-1.195.324-.068.811-.137,1.617-.2,2.428.418-.055.836-.115,1.259-.171-.277-.875-.551-1.745-.828-2.62a.644.644,0,0,0-1.259.171q-.051,1.344-.1,2.684c.4-.107.794-.213,1.195-.324-.3-.7-.606-1.4-.909-2.1a.644.644,0,0,0-.875-.23,1.54,1.54,0,0,0-.73,1.238c.418-.055.836-.115,1.259-.171a5.935,5.935,0,0,0-.538-1.741.646.646,0,0,0-1.169.154l-.282,1.626h1.233c-.192-.589-.38-1.174-.572-1.763a.644.644,0,0,0-1.259.171c-.03.738-.06,1.481-.094,2.219.418-.055.836-.115,1.259-.171-.179-.819-.363-1.639-.542-2.458a.647.647,0,0,0-1.169-.154,8.426,8.426,0,0,0-.939,3.871h1.28c-.026-1.191-.051-2.386-.077-3.576a.648.648,0,0,0-1.195-.324,6.4,6.4,0,0,0-1.131,2.377h1.233a30.342,30.342,0,0,1-1.122-8.821h-1.28a22.5,22.5,0,0,1-.077,6.534c-.128.8,1.054,1.157,1.233.341l.423-1.933c-.418-.055-.836-.115-1.259-.171a25.055,25.055,0,0,1-.209,4.417c-.119.824,1.114,1.169,1.229.354Z"/>
          </g>
        </g>
        <g id="Group_141" data-name="Group 141">
          <g id="Group_140" data-name="Group 140">
            <path id="Path_60" data-name="Path 60" d="M96.764,114.1l.358,2.612c.043.316.149.606-.107.841a6.991,6.991,0,0,1-.9.683c-1.314.866-2.962.516-4.37,1.157l.777,1.007a5.979,5.979,0,0,1,2.42-1.259,3.78,3.78,0,0,0,2.2-1.822,5.015,5.015,0,0,0,.085-3.145c-.312-1.161-1.506-1.3-2.488-.909-.96.384-1.69,1.174-2.646,1.549.209.358.414.713.623,1.071a8.788,8.788,0,0,1,5.1-2.731l-.79-.448c.073.435.145.875.218,1.31l1.071-.623c-.324-.376-.653-.751-.977-1.131-.388-.448-1.067-.06-1.093.452a1.944,1.944,0,0,0,1.908,2c-.184-.32-.367-.64-.555-.964.141-.043.282-.081.422-.124a.643.643,0,0,0-.875.23.65.65,0,0,0,.23.875.926.926,0,0,0,1.331-.337.65.65,0,0,0-.555-.964.659.659,0,0,1-.627-.721l-1.093.452c.324.376.653.751.977,1.131a.644.644,0,0,0,.777.1.67.67,0,0,0,.294-.721c-.073-.435-.145-.875-.218-1.31a.654.654,0,0,0-.79-.448,9.876,9.876,0,0,0-5.659,3.06c-.4.431-.013,1.319.623,1.071.939-.367,1.664-1.063,2.556-1.506.239-.119.828-.388.986-.081a2.409,2.409,0,0,1,.119.738,5.553,5.553,0,0,1,.038.8c-.03,1.063-.768,1.6-1.69,1.967a6.8,6.8,0,0,0-2.829,1.528.644.644,0,0,0,.777,1.007,9.435,9.435,0,0,1,2.5-.444,5.16,5.16,0,0,0,2.381-1.08,3.9,3.9,0,0,0,.939-.854,1.8,1.8,0,0,0,.2-1.31q-.2-1.524-.418-3.047a.649.649,0,0,0-.79-.448.665.665,0,0,0-.44.79Z"/>
          </g>
        </g>
        <g id="Group_143" data-name="Group 143">
          <g id="Group_142" data-name="Group 142">
            <path id="Path_61" data-name="Path 61" d="M97.762,121.345a.641.641,0,0,0,0-1.28.641.641,0,0,0,0,1.28Z"/>
          </g>
        </g>
        <g id="Group_145" data-name="Group 145">
          <g id="Group_144" data-name="Group 144">
            <path id="Path_62" data-name="Path 62" d="M96.943,117.918a.641.641,0,0,0,0-1.28.641.641,0,0,0,0,1.28Z"/>
          </g>
        </g>
        <g id="Group_147" data-name="Group 147">
          <g id="Group_146" data-name="Group 146">
            <path id="Path_63" data-name="Path 63" d="M97.57,114.632q1.44-.013,2.881-.021c-.107-.4-.213-.794-.324-1.195a.685.685,0,0,0-.32.76.963.963,0,0,0,.081.209.834.834,0,0,0,.119.149c.209.179.184.124-.081-.175.021-.166.043-.329.064-.5l-.013.026.23-.23c.248-.038.316-.055.2-.06l-.115-.013c-.077-.009-.154-.017-.23-.021-.154-.017-.307-.03-.461-.047a.645.645,0,0,0-.64.64.656.656,0,0,0,.64.64,4.508,4.508,0,0,0,.956.068.706.706,0,0,0,.61-.6.692.692,0,0,0-.09-.452,1.083,1.083,0,0,0-.124-.154c-.026-.021-.051-.043-.081-.064-.158-.128-.1-.051.162.235v.341c0-.009,0-.017.009-.021l-.294.384.021-.013a.639.639,0,0,0-.324-1.191q-1.44.013-2.881.021a.638.638,0,1,0,0,1.276Z"/>
          </g>
        </g>
        <g id="Group_149" data-name="Group 149">
          <g id="Group_148" data-name="Group 148">
            <path id="Path_64" data-name="Path 64" d="M99.734,108.76c.047,1.519.094,3.034.141,4.554l1.093-.452a9.191,9.191,0,0,1-2.061-3.452l-.79.79a.985.985,0,0,1,.627,1.11h1.28q.115-1.466.23-2.936h-1.28c.021,1.549.038,3.094.06,4.643l.64-.64c-.666,0-1.327.009-1.993.009.184.32.367.64.555.964.35-.568.7-1.135,1.046-1.7L98.176,111l-.333.73a.647.647,0,0,0,.721.939c.354-.1.7-.2,1.058-.3l-.79-.448c.009-.316.124-.478.346-.491-.043-.081-.085-.166-.128-.252a1.834,1.834,0,0,0-.329-.478,1.406,1.406,0,0,0-1-.393,1.36,1.36,0,0,0-1.31,1.519.648.648,0,0,0,1.195.324l1.037-1.588-1.105-.644c-.273.516-.546,1.033-.824,1.549.388.166.781.329,1.169.5a1.665,1.665,0,0,0-1.1-2.061c-1.118-.405-2.262.35-3.209.854q-3.438,1.824-6.879,3.645c.213.367.431.738.644,1.105a32.467,32.467,0,0,1,7.43-3.286c-.209-.358-.414-.713-.623-1.071a66.257,66.257,0,0,0-4.993,4.673.644.644,0,0,0,.777,1.007,28.03,28.03,0,0,0,7.016-4.652c.542-.487-.158-1.383-.777-1.007a39.169,39.169,0,0,0-4.754,3.444l.9.9q1.575-1.664,3.149-3.324a.64.64,0,0,0-.9-.9l-1.511,1.267c-.6.5.162,1.289.777,1.007l2-.922-.777-1.007-1.2.93.9.9c.551-.674,1.1-1.353,1.647-2.027.422-.521-.124-1.442-.777-1.007-.461.312-.926.623-1.387.93.213.367.431.738.644,1.105.414-.3.824-.606,1.238-.909l-.875-.875a16.956,16.956,0,0,0-1.447,5.3h1.28c0-.452.367-.768.666-1.067l-1.071-.623c-.273,1.306-.542,2.616-.815,3.922a.64.64,0,0,0,1.233.341c.346-1.28.687-2.565,1.033-3.845-.418-.055-.836-.115-1.259-.171.043.781.085,1.566.128,2.347.038.683,1.105.913,1.259.171.132-.632.26-1.263.393-1.895-.418-.055-.836-.115-1.259-.171.051.644.218,1.775-.533,2.1-.768.337-.606-.854-.533-1.255.128-.679-.794-1.165-1.169-.5a10.365,10.365,0,0,0-1.323,4.857c-.017.849,1.178.79,1.28,0q.294-2.3.593-4.613c-.418.055-.836.115-1.259.171a6.041,6.041,0,0,1,.047,2.364c.41.115.824.226,1.233.341.043-.243.09-.487.132-.734H92.633c.137.649.277,1.3.414,1.95a.644.644,0,0,0,1.259-.171c-.009-1.1-.013-2.2-.021-3.3a.644.644,0,0,0-1.259-.171c-.2.73-.414,1.46-.619,2.189l1.071-.282a2.364,2.364,0,0,1-.935-1.852.641.641,0,0,0-1.28,0c.013.8.03,1.6.043,2.4.4-.107.794-.213,1.195-.324a6.045,6.045,0,0,1-.67-2.249.641.641,0,0,0-1.28,0,13.338,13.338,0,0,0,.461,4.383l1.071-.623a1.561,1.561,0,0,1-.307-.764c-.119-.717-1.272-.538-1.259.171.013.691.026,1.387.038,2.078.418-.055.836-.115,1.259-.171-.124-.316-.252-.632-.376-.947a.649.649,0,0,0-.7-.457.628.628,0,0,0-.555.627c.081.6.158,1.2.239,1.8.418-.055.836-.115,1.259-.171q-.326-1.024-.649-2.053c-.2-.649-1.353-.58-1.259.171.081.649.166,1.293.248,1.942.418-.055.836-.115,1.259-.171a12.519,12.519,0,0,1-.312-3.9c-.418.055-.836.115-1.259.171.29,1.114.585,2.228.875,3.346.209.807,1.391.461,1.233-.341a29.469,29.469,0,0,1-.542-5.676.644.644,0,0,0-1.259-.171,4.89,4.89,0,0,0,.162,3.384,6.3,6.3,0,0,0,.973,1.481,1.1,1.1,0,0,1,.307.593c0,.115-.1.119.009.1-.068.013-.273-.209-.32-.248a2.876,2.876,0,0,0-4.579,2.578.648.648,0,0,0,1.195.324l3.393-4.66-1.105-.644a29.362,29.362,0,0,0-2.838,6.154.643.643,0,0,0,1.169.5A18.056,18.056,0,0,1,90.964,121l-.9-.9a55.673,55.673,0,0,1-7.618,7.118l.875.875a26.267,26.267,0,0,1,4.6-5.454c.61-.576-.277-1.413-.9-.9a48.814,48.814,0,0,0-7,6.986.644.644,0,0,0,.777,1.007,18.773,18.773,0,0,0,6.713-6c.367-.533-.35-1.2-.875-.875a86.089,86.089,0,0,0-7.78,5.441l.9.9a23.254,23.254,0,0,1,4.993-4.69.64.64,0,0,0-.644-1.105,50.756,50.756,0,0,0-5.381,3.4l.875.875,1.524-2.24a.645.645,0,0,0-.721-.939,15.154,15.154,0,0,0-4.067,2.343l.9.9,3.431-2.855c.589-.491-.162-1.306-.777-1.007L75.558,126,76.335,127l2.727-2.458c.572-.516-.154-1.293-.777-1.007q-2.765,1.293-5.535,2.582l.777,1.007a15.847,15.847,0,0,1,3.888-2.569c.657-.307.192-1.4-.5-1.169l-3.61,1.191c.269.2.542.41.811.619a11.091,11.091,0,0,1,6.47-8.706c.751-.333.1-1.438-.644-1.105A12.345,12.345,0,0,0,72.84,125.2a.646.646,0,0,0,.811.619l3.61-1.191c-.166-.388-.329-.781-.5-1.169a17,17,0,0,0-4.148,2.765c-.572.516.154,1.293.777,1.007q2.765-1.293,5.535-2.582l-.777-1.007L75.426,126.1c-.568.512.154,1.31.777,1.007l4.323-2.112-.777-1.007-3.431,2.855c-.636.529.273,1.413.9.9a13.2,13.2,0,0,1,3.5-2.014L80,124.793l-1.524,2.24c-.35.516.358,1.25.875.875a52.163,52.163,0,0,1,5.381-3.4c-.213-.367-.431-.738-.644-1.105a24.129,24.129,0,0,0-5.253,4.891.64.64,0,0,0,.9.9,83.058,83.058,0,0,1,7.52-5.241l-.875-.875a17.389,17.389,0,0,1-6.252,5.539l.777,1.007a48.812,48.812,0,0,1,7-6.986l-.9-.9a27.467,27.467,0,0,0-4.8,5.714c-.307.512.35,1.28.875.875a57.111,57.111,0,0,0,7.878-7.319c.546-.615-.35-1.519-.9-.9a19.663,19.663,0,0,0-2.787,3.977c.388.166.781.329,1.169.5a28.07,28.07,0,0,1,2.706-5.847c.44-.717-.632-1.3-1.105-.644l-3.393,4.66c.4.107.794.213,1.195.324a1.6,1.6,0,0,1,1.908-1.852c.538.119.849.6,1.361.755a1.187,1.187,0,0,0,1.327-.465c.747-1.028-.081-1.92-.687-2.731a3.62,3.62,0,0,1-.508-3.256c-.418-.055-.836-.115-1.259-.171a31.3,31.3,0,0,0,.589,6.017c.41-.115.824-.226,1.233-.341-.29-1.114-.585-2.228-.875-3.346a.644.644,0,0,0-1.259.171,13.669,13.669,0,0,0,.354,4.246c.166.683,1.349.559,1.259-.171-.081-.649-.166-1.293-.248-1.942-.418.055-.836.115-1.259.171q.326,1.024.649,2.053c.2.649,1.357.58,1.259-.171-.081-.6-.158-1.2-.239-1.8-.418.055-.836.115-1.259.171.124.316.252.632.376.947.248.627,1.272.606,1.259-.171-.013-.691-.026-1.387-.038-2.078-.418.055-.836.115-1.259.171a2.771,2.771,0,0,0,.636,1.327c.418.516,1.229-.047,1.071-.623a12.182,12.182,0,0,1-.414-4.041h-1.28a7.852,7.852,0,0,0,.845,2.9.646.646,0,0,0,1.195-.324c-.013-.8-.03-1.6-.043-2.4h-1.28a3.6,3.6,0,0,0,1.31,2.757.651.651,0,0,0,1.071-.282c.2-.73.414-1.46.619-2.189-.418-.055-.836-.115-1.259-.171.009,1.1.013,2.2.021,3.3.418-.055.836-.115,1.259-.171-.137-.649-.277-1.3-.414-1.95a.644.644,0,0,0-1.233,0c-.043.243-.09.487-.132.734-.145.807,1.088,1.152,1.233.341a7.632,7.632,0,0,0-.047-3.047c-.166-.768-1.174-.487-1.259.171q-.294,2.3-.593,4.613h1.28a8.986,8.986,0,0,1,1.148-4.208c-.388-.166-.781-.329-1.169-.5a3.217,3.217,0,0,0,.1,2.053,1.591,1.591,0,0,0,1.609.871c1.728-.2,1.984-2.036,1.873-3.435-.055-.674-1.1-.926-1.259-.171-.132.632-.26,1.263-.393,1.895.418.055.836.115,1.259.171-.043-.781-.085-1.566-.128-2.347a.644.644,0,0,0-1.259-.171c-.346,1.28-.687,2.565-1.033,3.845.41.115.824.226,1.233.341.273-1.306.542-2.616.815-3.922a.646.646,0,0,0-1.071-.623A2.789,2.789,0,0,0,93.806,116c0,.841,1.195.8,1.28,0a15.13,15.13,0,0,1,1.272-4.656c.235-.512-.3-1.3-.875-.875-.414.3-.824.606-1.238.909-.653.478-.047,1.57.644,1.105.461-.312.926-.623,1.387-.93l-.777-1.007c-.551.674-1.1,1.353-1.647,2.027a.64.64,0,0,0,.9.9l1.2-.93c.615-.478-.166-1.285-.777-1.007l-2,.922.777,1.007,1.511-1.267-.9-.9q-1.575,1.664-3.149,3.324a.64.64,0,0,0,.9.9,37.173,37.173,0,0,1,4.494-3.243l-.777-1.007a27.1,27.1,0,0,1-6.756,4.451l.777,1.007a67.086,67.086,0,0,1,4.993-4.673c.5-.418-.034-1.246-.623-1.071a33.776,33.776,0,0,0-7.737,3.418.64.64,0,0,0,.644,1.105q2.593-1.37,5.181-2.744c.841-.444,1.677-.9,2.526-1.336a1.887,1.887,0,0,1,1.267-.329c.252.077.431.277.329.533-.265.679.832,1.127,1.169.5.273-.516.546-1.033.824-1.549a.64.64,0,0,0-1.105-.644l-1.037,1.588c.4.107.794.213,1.195.324-.064-.487.213-.055.307.124a1.327,1.327,0,0,0,.751.721.973.973,0,0,0,1.306-1.093.651.651,0,0,0-.79-.448c-.354.1-.7.2-1.058.3l.721.939.333-.73a.64.64,0,0,0-1.105-.644c-.35.568-.7,1.135-1.046,1.7a.646.646,0,0,0,.555.964c.666,0,1.327-.009,1.993-.009a.648.648,0,0,0,.64-.64c-.021-1.549-.038-3.094-.06-4.643a.641.641,0,0,0-1.28,0q-.115,1.466-.23,2.936c-.064.828,1.191.807,1.28,0a2.252,2.252,0,0,0-1.566-2.343.648.648,0,0,0-.79.79,10.62,10.62,0,0,0,2.394,4.016.647.647,0,0,0,1.093-.452c-.047-1.519-.094-3.034-.141-4.554a.628.628,0,1,0-1.255-.03Z"/>
          </g>
        </g>
        <g id="Group_151" data-name="Group 151">
          <g id="Group_150" data-name="Group 150">
            <path id="Path_65" data-name="Path 65" d="M75.157,124.239a16.048,16.048,0,0,1,8.2-9.423l-.777-1.007c-2.812,3.107-7.306,5.006-8.4,9.406-.141.568.649,1.157,1.071.623a46.143,46.143,0,0,1,7.609-7.6l-.9-.9c-2.548,2.74-4.827,5.706-7.1,8.672-.457.6.5,1.25,1.007.777q5.281-4.916,10.567-9.828l-.9-.9q-3.8,4.193-7.6,8.386l1.007.777a59.363,59.363,0,0,1,5.445-7.908l-1.007-.777a56.72,56.72,0,0,1-3.094,5.3c-.4.6.521,1.323,1.007.777q2.439-2.746,4.878-5.488c.542-.61-.316-1.489-.9-.9q-4.539,4.487-8.65,9.376c-.521.623.329,1.511.9.9a27.7,27.7,0,0,1,5.748-4.6l-.777-1.007-3.785,4.707.9.9q1.978-2.465,3.952-4.933a.64.64,0,0,0-.9-.9,25.182,25.182,0,0,0-4.852,5.714c-.393.632.482,1.259,1.007.777a42.765,42.765,0,0,1,4.754-3.837l-.875-.875a41.756,41.756,0,0,0-2.625,3.935c-.358.606.542,1.357,1.007.777a25.861,25.861,0,0,1,4.6-4.507l-.777-1.007a62.3,62.3,0,0,0-4.677,6.051c.4.107.794.213,1.195.324a12.866,12.866,0,0,1,.474-3.393.646.646,0,0,0-1.071-.623,5.35,5.35,0,0,0-1.477,2.531.646.646,0,0,0,1.071.623c1.92-2,3.956-4.076,6.632-5.014l-.721-.939q-1.786,2.823-3.785,5.5c-.431.576.555,1.344,1.007.777q2.721-3.431,5.441-6.858a.653.653,0,0,0,.051-.841.638.638,0,0,0-.828-.166,36.325,36.325,0,0,0-6.717,6.751c-.4.516.363,1.2.875.875a23.749,23.749,0,0,0,5.9-5.39c.491-.632-.333-1.528-.9-.9a30.716,30.716,0,0,0-3.986,5.433c-.354.615.508,1.331,1.007.777q2.765-3.079,5.352-6.312c.5-.627-.294-1.489-.9-.9a27.774,27.774,0,0,0-3.837,4.583c-.405.606.512,1.306,1.007.777A74.148,74.148,0,0,0,91.6,116.5c.4-.542-.358-1.169-.875-.875a44.2,44.2,0,0,0-6.576,4.882l.9.9L90.81,115.6c.491-.5-.179-1.455-.777-1.007q-3.866,2.925-7.447,6.2l1.007.777a33.721,33.721,0,0,1,3.687-4.485c.589-.606-.277-1.408-.9-.9q-2.157,1.716-4.31,3.435l1.007.777a43.406,43.406,0,0,1,4.639-5.138c.516-.487-.175-1.434-.777-1.007q-2.433,1.741-4.754,3.623l.9.9a35.664,35.664,0,0,1,6.606-4.6c-.213-.367-.431-.738-.644-1.105a27.183,27.183,0,0,0-4.08,3.687.644.644,0,0,0,.777,1.007l5.394-3.051c-.213-.367-.431-.738-.644-1.105a29.359,29.359,0,0,0-5.138,3.781c-.623.572.273,1.4.9.9q3.207-2.484,6.645-4.652c.585-.371.218-1.425-.5-1.169l-1.472.525c-.772.273-.44,1.511.341,1.233l1.472-.525c-.166-.388-.329-.781-.5-1.169q-3.566,2.26-6.9,4.852l.9.9a27.72,27.72,0,0,1,4.882-3.581.64.64,0,0,0-.644-1.105L85.1,116.655l.777,1.007a25.5,25.5,0,0,1,3.82-3.487.64.64,0,0,0-.644-1.105,37.352,37.352,0,0,0-6.862,4.8c-.627.551.277,1.413.9.9q2.2-1.78,4.494-3.423l-.777-1.007a45.723,45.723,0,0,0-4.839,5.4c-.478.623.491,1.186,1.007.777q2.157-1.716,4.31-3.435l-.9-.9a36.052,36.052,0,0,0-3.888,4.746c-.427.623.491,1.25,1.007.777q3.45-3.162,7.187-6l-.777-1.007-5.753,5.817c-.589.593.286,1.43.9.9a42.215,42.215,0,0,1,6.316-4.682l-.875-.875a69.925,69.925,0,0,1-5.411,6.521l1.007.777a26.276,26.276,0,0,1,3.636-4.323l-.9-.9q-2.586,3.233-5.352,6.312l1.007.777a29.2,29.2,0,0,1,3.785-5.172l-.9-.9a22.755,22.755,0,0,1-5.642,5.189l.875.875a34.108,34.108,0,0,1,6.256-6.29l-.777-1.007q-2.721,3.431-5.441,6.858l1.007.777q2-2.676,3.785-5.5a.644.644,0,0,0-.721-.939c-2.9,1.016-5.108,3.171-7.2,5.343l1.071.623a4.086,4.086,0,0,1,1.148-1.963l-1.071-.623a14.123,14.123,0,0,0-.516,3.73.648.648,0,0,0,1.195.324,60,60,0,0,1,4.477-5.791c.444-.508-.162-1.472-.777-1.007a27.314,27.314,0,0,0-4.865,4.707l1.007.777a42.6,42.6,0,0,1,2.625-3.935c.384-.512-.367-1.229-.875-.875a45.563,45.563,0,0,0-5.01,4.037l1.007.777a24.029,24.029,0,0,1,4.652-5.458l-.9-.9q-1.978,2.465-3.952,4.933c-.512.636.388,1.549.9.9l3.785-4.707c.427-.533-.107-1.408-.777-1.007a28.992,28.992,0,0,0-6.009,4.8l.9.9q4.1-4.891,8.65-9.376l-.9-.9q-2.439,2.746-4.878,5.488l1.007.777a57.678,57.678,0,0,0,3.094-5.3c.312-.61-.521-1.37-1.007-.777a61.659,61.659,0,0,0-5.646,8.168c-.354.615.508,1.327,1.007.777q3.8-4.193,7.6-8.386a.64.64,0,0,0-.9-.9q-5.281,4.916-10.567,9.828l1.007.777c2.211-2.876,4.43-5.753,6.9-8.411.576-.619-.273-1.4-.9-.9a46.143,46.143,0,0,0-7.609,7.6l1.071.623c1.016-4.088,5.45-5.945,8.07-8.842a.644.644,0,0,0-.777-1.007,17.33,17.33,0,0,0-8.787,10.191c-.294.772.943,1.105,1.195.324Z"/>
          </g>
        </g>
        <g id="Group_153" data-name="Group 153">
          <g id="Group_152" data-name="Group 152">
            <path id="Path_66" data-name="Path 66" d="M101.04,108.346q.1-2.945.2-5.894c.026-.777.2-1.763-.521-2.292a3.344,3.344,0,0,0-2.275-.333c-3.645.431-5.309,4.041-6.551,7.054-.743,1.8-1.592,3.884-.96,5.842a.645.645,0,0,0,1.233,0,12.065,12.065,0,0,1,2.172-4.169l-1.071-.623q-.826,2.029-1.647,4.058c-.235.58.683,1.114,1.071.623a49.1,49.1,0,0,1,4.327-4.8l-1.007-.777a28.719,28.719,0,0,0-1.972,3.026c-.346.61.521,1.349,1.007.777a31.961,31.961,0,0,0,2.159-2.859c-.388-.166-.781-.329-1.169-.5l-.371,1.946c-.107.568.619,1.157,1.071.623.508-.6,1.011-1.195,1.519-1.792l-1.071-.623c-.316.785-.627,1.57-.943,2.356-.23.58.687,1.122,1.071.623l1.566-2.027-1.071-.623c-.158.478-.312.956-.469,1.434-.222.679.866,1.161,1.169.5.384-.841.772-1.686,1.157-2.526-.388-.166-.781-.329-1.169-.5a7.645,7.645,0,0,0,.021,2.334c.1.636,1.1.585,1.233,0a42.787,42.787,0,0,0,.79-4.763c.09-.785.2-1.579.252-2.369a1.208,1.208,0,0,0-.854-1.4,3.167,3.167,0,0,0-1.805.393,7.1,7.1,0,0,0-1.69,1.041,10.632,10.632,0,0,0-2.637,3.427c-.38.73.7,1.37,1.105.644a23.029,23.029,0,0,1,4.216-5.484c.61-.585-.277-1.408-.9-.9-2.45,1.967-4.878,4.178-5.77,7.3a.643.643,0,0,0,1.169.5l2.189-3.572-1.105-.644q-1.191,2.484-2.386,4.963a.64.64,0,0,0,1.105.644q1.223-2,2.445-3.99c-.388-.166-.781-.329-1.169-.5-.367,1.221-.79,2.415-1.267,3.593-.273.674.836,1.131,1.169.5.367-.7.738-1.413,1.105-2.117l-1.105-.644a9.334,9.334,0,0,0-.8,2.586.644.644,0,0,0,1.169.5Q95.989,107.3,97,105.7c.444-.7-.644-1.319-1.105-.644a4.605,4.605,0,0,0-.777,2.258.646.646,0,0,0,1.093.452q1.191-1.485,2.253-3.064c-.4-.107-.794-.213-1.195-.324a5.891,5.891,0,0,1-.73,2.987.64.64,0,0,0,1.105.644l1.323-2c-.4-.107-.794-.213-1.195-.324-.068.585-.137,1.165-.2,1.75-.085.738,1.058.836,1.259.171s.4-1.336.593-2.006c-.418-.055-.836-.115-1.259-.171,0,.218-.009.44-.009.657-.013.7,1.139.9,1.259.171q.358-2.2.508-4.426a.647.647,0,0,0-.964-.555,13.341,13.341,0,0,0-2.744,2.343l1.007.777a7.416,7.416,0,0,1,1.212-1.78c.529-.619-.337-1.515-.9-.9a19.7,19.7,0,0,0-2.411,3.192c-.405.67.469,1.191,1.007.777a30.476,30.476,0,0,0,2.394-2.061l-1.071-.282c.1.273.2.542.29.815.273.772,1.511.44,1.233-.341-.1-.273-.2-.542-.29-.815a.649.649,0,0,0-1.071-.282,30.476,30.476,0,0,1-2.394,2.061l1.007.777a17.6,17.6,0,0,1,2.211-2.932l-.9-.9a8.627,8.627,0,0,0-1.413,2.04c-.269.61.482,1.366,1.007.777a12.185,12.185,0,0,1,2.488-2.142c-.32-.184-.64-.367-.964-.555q-.134,2.055-.465,4.084c.418.055.836.115,1.259.171,0-.218.009-.44.009-.657a.644.644,0,0,0-1.259-.171c-.2.67-.4,1.336-.593,2.006.418.055.836.115,1.259.171.068-.585.137-1.165.2-1.75.081-.683-.879-.8-1.195-.324l-1.323,2,1.105.644a7.256,7.256,0,0,0,.9-3.632.647.647,0,0,0-1.195-.324q-.967,1.447-2.053,2.8l1.093.452a3.28,3.28,0,0,1,.6-1.609l-1.105-.644q-1.018,1.607-2.031,3.209c.388.166.781.329,1.169.5a8.172,8.172,0,0,1,.67-2.283c.346-.734-.721-1.383-1.105-.644-.367.7-.738,1.413-1.105,2.117.388.166.781.329,1.169.5q.717-1.767,1.267-3.593a.643.643,0,0,0-1.169-.5q-1.223,2-2.445,3.99l1.105.644Q94.6,106.5,95.8,104.023a.64.64,0,0,0-1.105-.644L92.5,106.951c.388.166.781.329,1.169.5.828-2.9,3.175-4.921,5.441-6.734l-.9-.9a24.091,24.091,0,0,0-4.417,5.744l1.105.644a10.289,10.289,0,0,1,1.916-2.7,6.241,6.241,0,0,1,1.259-.956,5.219,5.219,0,0,1,.794-.38,3.477,3.477,0,0,0,.717-.2c.068,0,.068-.021-.009-.073-.051-.085-.073-.085-.055,0-.013.013-.034.444-.034.418-.03.307-.064.619-.094.926-.064.619-.132,1.238-.209,1.852a36.908,36.908,0,0,1-.67,3.8h1.233a5.787,5.787,0,0,1-.021-1.652.657.657,0,0,0-.371-.755.629.629,0,0,0-.8.26c-.384.841-.772,1.686-1.157,2.526.388.166.781.329,1.169.5.158-.478.312-.956.469-1.434.188-.576-.674-1.139-1.071-.623L96.4,109.724l1.071.623c.316-.785.627-1.57.943-2.356.235-.589-.67-1.1-1.071-.623-.508.6-1.011,1.195-1.519,1.792l1.071.623.371-1.946a.643.643,0,0,0-1.169-.5,28.354,28.354,0,0,1-1.959,2.6l1.007.777a28.719,28.719,0,0,1,1.972-3.026c.444-.6-.5-1.267-1.007-.777a49.6,49.6,0,0,0-4.327,4.8l1.071.623q.826-2.029,1.647-4.058c.239-.585-.679-1.11-1.071-.623a13.663,13.663,0,0,0-2.505,4.733h1.233c-.585-1.814.41-3.9,1.122-5.544a13.343,13.343,0,0,1,2.782-4.592,4.464,4.464,0,0,1,2.275-1.122,3.72,3.72,0,0,1,1.391-.009c.171.038.179.03.243.192a2.306,2.306,0,0,1-.013.725q-.109,3.156-.213,6.316c-.017.815,1.263.811,1.293-.013Z"/>
          </g>
        </g>
        <g id="Group_155" data-name="Group 155">
          <g id="Group_154" data-name="Group 154">
            <path id="Path_67" data-name="Path 67" d="M106.758,98.654a5.563,5.563,0,0,0-6.077,1.588l1.093.452c.017-1.8,2.219-1.959,3.517-1.639a.64.64,0,0,0,.341-1.233c-1.165-.448-1.925-1.634-2.885-2.386a14.094,14.094,0,0,0-3.623-2.194,2.076,2.076,0,0,0-1.775-.073c-.529.333-.679,1.131-.879,1.673q-.819,2.208-1.57,4.438c.41.115.824.226,1.233.341a8.3,8.3,0,0,1,1.617-3.149l-1.093-.452c-.047,1.622-.909,3.1-.777,4.741a.647.647,0,0,0,1.195.324c.457-.785.918-1.575,1.374-2.36-.388-.166-.781-.329-1.169-.5-.111.572-.226,1.144-.337,1.711a.646.646,0,0,0,1.071.623c.3-.26.606-.525.909-.785L97.852,99.5a1.541,1.541,0,0,1,.064.623.646.646,0,0,0,.964.555c.2-.141.4-.282.6-.422l-.875-.23c.047.09.094.179.137.265a.645.645,0,0,0,.875.23l1.075-.717c-.32-.184-.64-.367-.964-.555-.073.721.691,1,1.25.764-.26-.034-.516-.068-.777-.1.043.038.081.081.124.119a.652.652,0,0,0,.9,0q.992-1.037,1.984-2.07a.648.648,0,0,0,0-.9,25.364,25.364,0,0,0-3.8-2.625c-.529-.341-1.208-.794-1.771-.235a2.846,2.846,0,0,0-.555,1.925.648.648,0,0,0,1.093.452c.277-.243.926.2,1.178.316.491.23.982.461,1.472.7.124.06.248.115.367.175.269.2.333.06.2-.4-.068-.017-.533.487-.6.551l-.6.551c-.107.1-.282.32-.44.341-.346.047-.862-.469-1.114-.679-.192-.154-.376-.32-.555-.487-.09-.085-.179-.171-.265-.256-.119-.2-.192-.141-.209.192.038.081.653.162.751.188l.8.2a4.9,4.9,0,0,1,1.447.393l-.294-.384c.009.03.021.06.03.094.021-.166.043-.329.064-.5.111-.081.111-.09,0-.021-.081.047-.162.09-.243.137-.158.09-.312.184-.474.265-.145.077-.619.35-.725.124-.081-.175.115-.632.128-.832a1.387,1.387,0,0,0-.226-.849.647.647,0,0,0-1.195.324c.017.687.188,1.814.888,2.151a.825.825,0,0,0,.96-.166c.333-.337.192-.687.32-1.084.252-.785-.982-1.122-1.233-.341a.745.745,0,0,0-.073.414c-.03.171.081.2.337.085.337.1.423.043.256-.162-.03-.3-.171-.576-.175-.9-.4.107-.794.213-1.195.324.179.273-.107.828-.077,1.161a1.315,1.315,0,0,0,.644,1.024c.811.487,1.677.021,2.4-.388.333-.188.743-.363.845-.772a.832.832,0,0,0-.619-.96,22.267,22.267,0,0,0-3.013-.768c-.883-.171-1.848.461-1.4,1.438a5.7,5.7,0,0,0,1.98,1.856,1.734,1.734,0,0,0,2.364-.077c.376-.329.738-.674,1.11-1.016.312-.286.653-.555.606-1.02-.051-.538-.516-.747-.956-.952l-1.66-.781c-.909-.427-1.861-.871-2.727-.115l1.093.452a2.472,2.472,0,0,1,.1-.751,1.3,1.3,0,0,1,.115-.3c-.3.111-.324.213-.068.3a2.962,2.962,0,0,0,.691.448c.2.132.405.26.606.393a16.755,16.755,0,0,1,2.5,1.754v-.9q-.992,1.037-1.984,2.07h.9c-.043-.038-.081-.081-.124-.119a.671.671,0,0,0-.777-.1.712.712,0,0,1-.085.034l.5-.064.269.371a.646.646,0,0,0-.964-.555l-1.075.717.875.23c-.047-.09-.094-.179-.137-.265a.641.641,0,0,0-.875-.23c-.2.141-.4.282-.6.423.32.184.64.367.964.555a2.546,2.546,0,0,0-.107-.964.649.649,0,0,0-1.071-.282c-.3.26-.606.525-.909.785l1.071.623c.111-.572.226-1.144.337-1.711a.644.644,0,0,0-1.169-.5c-.457.785-.918,1.575-1.374,2.36.4.107.794.213,1.195.324-.128-1.622.734-3.124.777-4.741a.647.647,0,0,0-1.093-.452A9.84,9.84,0,0,0,94.9,99.3a.64.64,0,0,0,1.233.341q.653-1.933,1.353-3.849c.107-.294.218-.589.324-.883a3.783,3.783,0,0,0,.222-.589c.026-.179.09-.03-.026-.03a3.867,3.867,0,0,1,1.707.67,14.753,14.753,0,0,1,2.945,2.121,7.943,7.943,0,0,0,2.629,1.993c.115-.41.226-.824.341-1.233a4.764,4.764,0,0,0-3.615.312,3.042,3.042,0,0,0-1.524,2.565.646.646,0,0,0,1.093.452,4.311,4.311,0,0,1,4.831-1.255c.777.256,1.114-.982.341-1.259Z"/>
          </g>
        </g>
        <g id="Group_157" data-name="Group 157">
          <g id="Group_156" data-name="Group 156">
            <path id="Path_68" data-name="Path 68" d="M92.372,109.643a.641.641,0,0,0,0-1.28.641.641,0,0,0,0,1.28Z"/>
          </g>
        </g>
        <g id="Group_159" data-name="Group 159">
          <g id="Group_158" data-name="Group 158">
            <path id="Path_69" data-name="Path 69" d="M98.377,92.961a15.664,15.664,0,0,0-4.216-1.8c-.055.418-.115.836-.171,1.259a8.833,8.833,0,0,1,4.067,1.681c.107-.4.213-.794.324-1.195a19.622,19.622,0,0,0-2.829.2c-.691.1-1.63.184-1.937.939a1.013,1.013,0,0,0,.964,1.37,1.288,1.288,0,0,0,.926-.388c.277-.277.41-.747.764-.926l-.939-.721c-.307.977-.619,1.95-.926,2.928.41.115.824.226,1.233.341a7.58,7.58,0,0,1,.892-2.522c-.4-.107-.794-.213-1.195-.324-.081.866-.158,1.737-.239,2.6-.068.755,1.033.815,1.259.171l.576-1.652c-.41-.115-.824-.226-1.233-.341q-1.146,3.956-2.287,7.912c.41.115.824.226,1.233.341a35.2,35.2,0,0,1,1.5-5.706c.222-.683-.849-1.148-1.169-.5a10.962,10.962,0,0,0-.947,6.8c.119.661,1.058.555,1.233,0q.672-2.1,1.344-4.2c-.41-.115-.824-.226-1.233-.341a13.865,13.865,0,0,0-.61,3.738c-.017.708,1.114.888,1.259.171.2-.977.4-1.955.593-2.928a.647.647,0,0,0-1.071-.623,25.5,25.5,0,0,0-4.366,5.249c.388.166.781.329,1.169.5a29.465,29.465,0,0,1,3.03-6.892c-.388-.166-.781-.329-1.169-.5a31.489,31.489,0,0,0-1.669,6.935h1.28a24.689,24.689,0,0,1,.913-6.675.64.64,0,0,0-1.233-.341q-1.159,3.194-2.023,6.482c.41.115.824.226,1.233.341a22.489,22.489,0,0,1,2.121-6.675c-.388-.166-.781-.329-1.169-.5-.064.388-.124.777-.188,1.165.418.055.836.115,1.259.171.128-1.314.674-2.556.452-3.9a2.665,2.665,0,0,0-2.053-2.266c-.055.418-.115.836-.171,1.259q1.152.147,2.309.3c.666.085.824-.892.324-1.195-.691-.418-1.383-.832-2.07-1.25-.107.4-.213.794-.324,1.195a1.348,1.348,0,0,0,.969-.35c.461-.367.051-1.075-.452-1.093-1.28-.043-2.565-.09-3.845-.132-.832-.03-.807,1.208,0,1.28a16.673,16.673,0,0,0,2.731.021.644.644,0,0,0,.171-1.259,11.832,11.832,0,0,0-7.2.171c.209.358.414.713.623,1.071l.2-.222c.329-.376.145-1.152-.452-1.093-2.317.23-4.9.568-6.444,2.526a.645.645,0,0,0,.777,1.007,19.543,19.543,0,0,1,5.48-1.72c1.976-.209,3.922.388,5.9.218.815-.068.824-1.353,0-1.28-2.1.179-4.165-.448-6.269-.171a22.43,22.43,0,0,0-5.753,1.852l.777,1.007c1.331-1.69,3.534-1.95,5.539-2.151-.149-.363-.3-.73-.452-1.093l-.2.222c-.388.444-.026,1.3.623,1.071a10.607,10.607,0,0,1,6.521-.171c.055-.418.115-.836.171-1.259a16.677,16.677,0,0,1-2.731-.021v1.28c1.28.043,2.565.09,3.845.132-.149-.363-.3-.73-.452-1.093l-.064-.026a.647.647,0,0,0-.324,1.195c.691.418,1.383.832,2.07,1.25.107-.4.213-.794.324-1.195-.768-.1-1.541-.2-2.309-.3-.708-.09-.879,1.135-.171,1.259,2.108.358.785,3.653.661,4.929-.068.713,1.144.883,1.259.171.064-.388.124-.777.188-1.165.107-.657-.819-1.195-1.169-.5a23.663,23.663,0,0,0-2.249,6.982c-.124.794,1.02,1.157,1.233.341q.864-3.29,2.023-6.482c-.41-.115-.824-.226-1.233-.341a25.973,25.973,0,0,0-.96,7.012c0,.849,1.182.794,1.28,0a30.213,30.213,0,0,1,1.622-6.593c.256-.7-.807-1.1-1.169-.5a30.808,30.808,0,0,0-3.158,7.2.644.644,0,0,0,1.169.5,24.575,24.575,0,0,1,4.169-4.989l-1.071-.623c-.2.977-.4,1.955-.593,2.928.418.055.836.115,1.259.171a12.578,12.578,0,0,1,.563-3.4c.243-.79-.986-1.122-1.233-.341q-.672,2.1-1.344,4.2H95.27a9.489,9.489,0,0,1,.819-5.812c-.388-.166-.781-.329-1.169-.5a35.2,35.2,0,0,0-1.5,5.706c-.119.794,1,1.152,1.233.341q1.146-3.956,2.287-7.912c.23-.8-.964-1.11-1.233-.341l-.576,1.652c.418.055.836.115,1.259.171.081-.866.158-1.737.239-2.6.06-.649-.9-.849-1.195-.324a8.725,8.725,0,0,0-1.02,2.829.64.64,0,0,0,1.233.341c.307-.977.619-1.95.926-2.928A.645.645,0,0,0,95.637,93a2.4,2.4,0,0,0-.875.935c-.073.107-.538.615,0,.666a4.62,4.62,0,0,0,.533-.154A17.1,17.1,0,0,1,98.39,94.2a.648.648,0,0,0,.324-1.195A10.076,10.076,0,0,0,94,91.152c-.725-.094-.854,1.08-.171,1.259a14.453,14.453,0,0,1,3.909,1.664c.691.423,1.336-.683.636-1.114Z"/>
          </g>
        </g>
        <g id="Group_161" data-name="Group 161">
          <g id="Group_160" data-name="Group 160">
            <path id="Path_70" data-name="Path 70" d="M94.895,96.277a7.006,7.006,0,0,0-2.748-4c.1.239.2.482.294.721l-.516.286c.03.051.06.107.09.158a1.925,1.925,0,0,0,.171.32,7.1,7.1,0,0,1,.329.764,8.908,8.908,0,0,1,.4,1.489,8.135,8.135,0,0,1-.081,3.081h1.233c-.235-1.016-.474-2.036-.708-3.051a20.556,20.556,0,0,0-.687-2.8,1.569,1.569,0,0,0-1.788-1.1,2.357,2.357,0,0,0-1.011.542c-.324.273-.589.683-1,.824a.64.64,0,0,0,.341,1.233,2.118,2.118,0,0,0,.721-.273,2.231,2.231,0,0,0,.371-.2c.026,0,.051,0,.081-.009-.064-.243-.128-.294-.2-.166-.188.073-.469.636-.593.807-.226.3-.452.61-.674.913-.448.606.5,1.25,1.007.777l2.5-2.334-.9-.9c-.474.606-.943,1.212-1.417,1.818a.645.645,0,0,0,.777,1.007l1.046-.461-.875-.875c-.533,1.024-1.067,2.044-1.6,3.068.388.166.781.329,1.169.5a6.061,6.061,0,0,1,1.165-1.839l-1.007-.777-1.831,3.6c-.312.61.512,1.366,1.007.777q.992-1.191,1.989-2.381L90.934,97c-.5.883-.994,1.771-1.494,2.654l1.105.644q1.2-2.5,2.394-4.989c-.388-.166-.781-.329-1.169-.5a17.664,17.664,0,0,0-.977,3.214c.41.115.824.226,1.233.341.026-.128.051-.256.073-.38.128-.666-.828-1.186-1.169-.5a31.483,31.483,0,0,0-1.908,4.784c.41.115.824.226,1.233.341a14.165,14.165,0,0,1,1.818-4.967c-.388-.166-.781-.329-1.169-.5A28.182,28.182,0,0,0,89.3,102.3a.64.64,0,0,0,1.233.341c.3-.807.606-1.617.909-2.424-.41-.115-.824-.226-1.233-.341q-.647,2.945-1.289,5.894c.418.055.836.115,1.259.171a12.683,12.683,0,0,1,2.048-7.7c-.388-.166-.781-.329-1.169-.5a34.933,34.933,0,0,0-1,6.474.644.644,0,0,0,1.259.171A47.778,47.778,0,0,1,93.687,97.2c-.388-.166-.781-.329-1.169-.5q-1.031,3.892-2.066,7.784h1.233a17.749,17.749,0,0,1-.115-3.717,16.425,16.425,0,0,1,.218-1.763c.077-.431.145-1.37.743-1.349-.184-.32-.367-.64-.555-.964a13.862,13.862,0,0,0-2,5.8c-.312,2.181-.286,4.43-.977,6.542-.222.679.879,1.165,1.169.5a26.235,26.235,0,0,1,3.354-5.663l-1.071-.623a59.234,59.234,0,0,0-1.724,6.226c.41.115.824.226,1.233.341a21.065,21.065,0,0,1,1.43-5.117c-.388-.166-.781-.329-1.169-.5q-1.1,3.1-2.2,6.2h1.233a15.955,15.955,0,0,1-.017-4.182.647.647,0,0,0-1.195-.324c-.747,1.677-1.541,3.764-.354,5.45.081.115.269.448.4.5.043.085.064.077.06-.026.038-.094.021-.107-.051-.047-.068-.009-.269.145-.333.179-.478.252-.956.508-1.434.76-.32.171-2.526,1.519-2.637,1.011-.149.265-.3.525-.448.79a13.888,13.888,0,0,0,5.906-2.637c.529-.41.265-1.4-.5-1.169L87.2,111.734c-.589.175-1.178.358-1.771.529-.239.068-1.361.324-1.093-.2a4.445,4.445,0,0,1,1.084-1.028,14.936,14.936,0,0,1,1.31-1,16.854,16.854,0,0,1,2.864-1.549l-.777-1.007-6.8,6.393,1.007.777a13.553,13.553,0,0,1,5.014-4.1l-.777-1.007q-1.466,1.4-2.936,2.791a.644.644,0,0,0,.777,1.007,18.234,18.234,0,0,0,3.09-2.159l-.9-.9c-.9.785-1.8,1.57-2.7,2.36-.623.546.282,1.434.9.9q1.453-1.229,2.9-2.458l-.9-.9c-.333.3-.666.593-.994.892-.627.563.273,1.4.9.9a10.359,10.359,0,0,0,2.185-2.381c.435-.649-.482-1.2-1.007-.777a3.7,3.7,0,0,0-1.349,2.356.647.647,0,0,0,1.071.623c.474-.384.947-.772,1.417-1.157l-.9-.9-1.058,1.314a.64.64,0,0,0,.9.9l1.741-1.4a.646.646,0,0,0-.452-1.093q-4.2.429-8.416.627c.107.4.213.794.324,1.195a12.5,12.5,0,0,1,5.766-2.275c-.055-.418-.115-.836-.171-1.259a51.507,51.507,0,0,0-6.1,2.663c.213.367.431.738.644,1.105a45.955,45.955,0,0,1,4.443-2.347c.708-.324.166-1.28-.5-1.169l-5,.845c.166.388.329.781.5,1.169.337-.192.674-.388,1.011-.58l.508-.29c.055-.034.111-.064.171-.1.312-.1.277-.312-.1-.619-.111.563.627,1.161,1.071.623,1.7-2.078,4.5-2.266,6.99-2.394-.055-.418-.115-.836-.171-1.259a39.982,39.982,0,0,0-6.909,1.959c-.755.29-.465,1.472.341,1.233q2.9-.858,5.8-1.72c-.166-.388-.329-.781-.5-1.169l-1.844,1.2c-.478.312-.358,1.285.324,1.195a5,5,0,0,0,2.351-.9c.533-.388.235-1.464-.5-1.169q-1.856.749-3.713,1.5c.166.388.329.781.5,1.169l1.609-.819c.687-.35.179-1.289-.5-1.169-.956.171-1.916.341-2.872.508l-1.233.218c-.137.026-.273.047-.41.073-.222-.03-.218.073.009.3.017,0,.256-.282.286-.307a23.912,23.912,0,0,1,4.49-2.821l-.777-1.007q-2.119,1.709-4.242,3.414c-.58.469.162,1.344.777,1.007q2.381-1.312,4.767-2.62c-.213-.367-.431-.738-.644-1.105q-1.095.743-2.185,1.489a.64.64,0,0,0,.644,1.105q1.722-.973,3.444-1.942l-.777-1.007q-.583.723-1.169,1.447c-.414.512.145,1.481.777,1.007a3.337,3.337,0,0,0,1.387-2.97.649.649,0,0,0-1.093-.452q-1.536,1.261-3.073,2.526l.9.9a17.275,17.275,0,0,1,2.074-2.07c.294-.243.755-.469.883-.849a6.909,6.909,0,0,0,.128-1.575c.038-.533.081-1.071.119-1.6a2.2,2.2,0,0,0-.081-1.139c-.414-.892-1.451-.845-2.24-.576.209.358.414.713.623,1.071q1.492-1.383,2.979-2.77c.448-.418-.017-1.306-.623-1.071l-2.59,1,.721.939a.633.633,0,0,1,.533-.277.658.658,0,0,0,.619-.469c.094-.422.435-.738.551-1.161a1.34,1.34,0,0,0-.149-1.105,1.163,1.163,0,0,0-1.007-.491c-.478.009-.875.38-1.34.35.2.269.41.542.619.811a4.623,4.623,0,0,1,1.118-1.848.65.65,0,0,0-.282-1.071c-1.353-.482-2.509.542-3.837.525s-2.637-.525-3.854.277a.64.64,0,0,0,.644,1.105,8.5,8.5,0,0,1,4.511-.743c-.107-.4-.213-.794-.324-1.195a31.458,31.458,0,0,0-4.925,3.295c-.58.474.162,1.344.777,1.007A35.082,35.082,0,0,1,88.2,94.361c-.209-.358-.414-.713-.623-1.071q-1.62,1.351-3.239,2.7c-.555.461.175,1.413.777,1.007l3.862-2.608L88.2,93.379a16.315,16.315,0,0,0-2.689,3.192.644.644,0,0,0,.875.875q1.594-1.043,3.188-2.091l-.875-.875q-1.466,2.151-2.936,4.3c-.414.606.5,1.285,1.007.777l2.356-2.394-1.007-.777a28.429,28.429,0,0,0-2.479,4.788c-.226.559.5.952.939.721.529-.273,1.058-.546,1.583-.815l-.777-1.007q-1.671,1.869-3.337,3.738a.64.64,0,0,0,.9.9q2.5-2.369,4.993-4.733a.646.646,0,0,0-.623-1.071,10.587,10.587,0,0,0-3.222,1.78c-.563.448.192,1.438.777,1.007.836-.619,1.677-1.238,2.514-1.856l-.777-1.007a25.391,25.391,0,0,0-4.541,5.932.644.644,0,0,0,1.007.777q1.786-1.671,3.576-3.342l-1.007-.777c-.615.794-1.225,1.588-1.839,2.381-.469.606.491,1.221,1.007.777l3.29-2.842-1.007-.777c-.431.768-.866,1.536-1.3,2.3a.644.644,0,0,0,1.007.777c.431-.376.858-.751,1.289-1.127.632-.555-.273-1.4-.9-.9l-1.485,1.178c-.644.512.265,1.413.9.9l1.485-1.178-.9-.9c-.431.376-.858.751-1.289,1.127l1.007.777c.431-.768.866-1.536,1.3-2.3a.644.644,0,0,0-1.007-.777l-3.29,2.842,1.007.777c.615-.794,1.225-1.588,1.839-2.381.457-.593-.5-1.25-1.007-.777q-1.786,1.671-3.576,3.342l1.007.777a24.421,24.421,0,0,1,4.34-5.672c.508-.491-.179-1.447-.777-1.007-.836.619-1.677,1.238-2.514,1.856l.777,1.007a8.816,8.816,0,0,1,2.659-1.451c-.209-.358-.414-.713-.623-1.071q-2.5,2.369-4.993,4.733l.9.9q1.671-1.869,3.337-3.738a.644.644,0,0,0-.777-1.007c-.529.273-1.058.546-1.583.815l.939.721a26.725,26.725,0,0,1,2.351-4.485c.4-.615-.5-1.289-1.007-.777L85.86,98.637l1.007.777q1.466-2.151,2.936-4.3a.644.644,0,0,0-.875-.875q-1.594,1.043-3.188,2.091l.875.875A15.271,15.271,0,0,1,89.1,94.276c.529-.487-.166-1.417-.777-1.007l-3.862,2.608.777,1.007q1.62-1.351,3.239-2.7c.491-.41-.034-1.267-.623-1.071A37.022,37.022,0,0,0,81.9,95.727l.777,1.007a29.6,29.6,0,0,1,4.664-3.1c.606-.329.26-1.135-.324-1.195a9.756,9.756,0,0,0-5.155.918c.213.367.431.738.644,1.105,1-.661,2.292-.068,3.4-.1A5.5,5.5,0,0,0,87.529,94a2.476,2.476,0,0,1,1.677-.209c-.094-.358-.188-.713-.282-1.071a5.983,5.983,0,0,0-1.447,2.415.648.648,0,0,0,.619.811,1.749,1.749,0,0,0,.781-.137c.111-.043.222-.1.333-.141a.6.6,0,0,1,.154-.055c.1,0,.1-.047.009-.128-.043.431-.469.8-.568,1.246.2-.158.41-.312.619-.469a1.969,1.969,0,0,0-1.639.913.645.645,0,0,0,.721.939l2.59-1c-.209-.358-.414-.713-.623-1.071q-1.492,1.383-2.979,2.77a.646.646,0,0,0,.623,1.071c.184-.064.644-.277.738-.06a1.936,1.936,0,0,1-.038.542c-.017.2-.03.4-.047.6q-.09,1.2-.179,2.411c.107-.184.213-.367.316-.555a18.12,18.12,0,0,0-2.923,2.736.64.64,0,0,0,.9.9q1.536-1.261,3.073-2.526l-1.093-.452a2.055,2.055,0,0,1-.751,1.865l.777,1.007q.583-.723,1.169-1.447a.644.644,0,0,0-.777-1.007q-1.722.973-3.444,1.942c.213.367.431.738.644,1.105q1.095-.743,2.185-1.489a.64.64,0,0,0-.644-1.105q-2.381,1.312-4.767,2.62l.777,1.007q2.119-1.709,4.242-3.414c.593-.478-.162-1.314-.777-1.007a29.63,29.63,0,0,0-3.12,1.827c-.482.324-.952.666-1.413,1.024a1.93,1.93,0,0,0-.854,1.174,1.02,1.02,0,0,0,.649,1.118,2.966,2.966,0,0,0,1.553-.081l3.9-.691c-.166-.388-.329-.781-.5-1.169l-1.609.819c-.636.324-.188,1.442.5,1.169q1.856-.749,3.713-1.5c-.166-.388-.329-.781-.5-1.169a3.743,3.743,0,0,1-1.7.725c.107.4.213.794.324,1.195l1.844-1.2a.643.643,0,0,0-.5-1.169q-2.9.858-5.8,1.72c.115.41.226.824.341,1.233a40.365,40.365,0,0,1,6.909-1.959c.708-.132.546-1.293-.171-1.259-2.812.145-5.983.427-7.9,2.77l1.071.623a.933.933,0,0,0-1.242-1.093,5.246,5.246,0,0,0-1.046.559c-.393.226-.785.452-1.182.679-.666.384-.192,1.285.5,1.169l5-.845c-.166-.388-.329-.781-.5-1.169a45.031,45.031,0,0,0-4.443,2.347.64.64,0,0,0,.644,1.105,48.741,48.741,0,0,1,5.791-2.531c.623-.226.6-1.349-.171-1.259a13.773,13.773,0,0,0-6.41,2.45c-.474.341-.367,1.225.324,1.195q4.212-.2,8.416-.627c-.149-.363-.3-.73-.452-1.093l-1.741,1.4.9.9,1.058-1.314a.64.64,0,0,0-.9-.9c-.474.384-.947.772-1.417,1.157l1.071.623a2.69,2.69,0,0,1,1.016-1.792l-1.007-.777a9.188,9.188,0,0,1-1.984,2.121l.9.9c.333-.3.666-.593.994-.892.619-.555-.282-1.434-.9-.9q-1.453,1.229-2.9,2.458l.9.9c.9-.785,1.8-1.57,2.7-2.36.623-.546-.286-1.438-.9-.9a16.971,16.971,0,0,1-2.829,1.959l.777,1.007q1.466-1.4,2.936-2.791c.555-.525-.149-1.31-.777-1.007a14.869,14.869,0,0,0-5.475,4.558c-.448.6.5,1.255,1.007.777l6.8-6.393c.572-.538-.154-1.267-.777-1.007a16.788,16.788,0,0,0-3.6,2.078,17.031,17.031,0,0,0-1.634,1.4,1.735,1.735,0,0,0-.7,1.6,1.626,1.626,0,0,0,1.2,1.174,4.121,4.121,0,0,0,2.142-.307l4.643-1.391c-.166-.388-.329-.781-.5-1.169a13.037,13.037,0,0,1-5.6,2.509.651.651,0,0,0-.448.79,1.409,1.409,0,0,0,.982,1.028,2.353,2.353,0,0,0,1.75-.329c1.2-.615,2.475-1.2,3.619-1.92a1.138,1.138,0,0,0,.563-1.306c-.162-.516-.661-.824-.854-1.336-.457-1.225.132-2.543.627-3.657-.4-.107-.794-.213-1.195-.324A17.078,17.078,0,0,0,90,110.727c.1.683,1.05.525,1.233,0q1.1-3.1,2.2-6.2c.239-.674-.883-1.161-1.169-.5a22.451,22.451,0,0,0-1.562,5.42c-.119.794,1.054,1.161,1.233.341a59.524,59.524,0,0,1,1.724-6.226c.2-.58-.67-1.131-1.071-.623a27.251,27.251,0,0,0-3.555,5.919c.388.166.781.329,1.169.5A35.409,35.409,0,0,0,91.152,103a13.126,13.126,0,0,1,1.9-5.68.646.646,0,0,0-.555-.964c-1.758-.06-1.976,2.078-2.138,3.371a19.456,19.456,0,0,0,.064,5.078c.09.653,1.084.568,1.233,0q1.031-3.892,2.066-7.784c.179-.674-.879-1.182-1.169-.5a49.875,49.875,0,0,0-2.505,7.5c.418.055.836.115,1.259.171a33.107,33.107,0,0,1,.956-6.133.643.643,0,0,0-1.169-.5,13.89,13.89,0,0,0-2.223,8.347c.038.687,1.1.913,1.259.171q.647-2.945,1.289-5.894a.64.64,0,0,0-1.233-.341c-.3.807-.606,1.617-.909,2.424.41.115.824.226,1.233.341a28.971,28.971,0,0,1,1.609-5.142c.286-.683-.811-1.1-1.169-.5A15.136,15.136,0,0,0,89,102.256a.64.64,0,0,0,1.233.341,29.1,29.1,0,0,1,1.78-4.477c-.388-.166-.781-.329-1.169-.5-.026.128-.051.256-.073.38-.158.8,1.071,1.152,1.233.341a17.9,17.9,0,0,1,.977-3.214c.273-.666-.858-1.144-1.169-.5q-1.2,2.5-2.394,4.989c-.354.734.7,1.374,1.105.644.5-.883.994-1.771,1.494-2.654.341-.61-.525-1.353-1.007-.777q-.992,1.191-1.989,2.381l1.007.777,1.831-3.6c.316-.619-.491-1.34-1.007-.777a7.754,7.754,0,0,0-1.494,2.4c-.269.674.836,1.131,1.169.5.533-1.024,1.067-2.044,1.6-3.068a.645.645,0,0,0-.875-.875l-1.046.461.777,1.007c.474-.606.943-1.212,1.417-1.818.5-.636-.286-1.485-.9-.9L89,95.658,90,96.435c.41-.551.841-1.093,1.229-1.66a1.161,1.161,0,0,0,.141-1.3,1.206,1.206,0,0,0-1.135-.512c-.529.034-.883.457-1.387.529.115.41.226.824.341,1.233a5.691,5.691,0,0,0,1.566-1.157c.248-.188.5-.3.666.017a4.172,4.172,0,0,1,.26.943q.57,2.439,1.135,4.882a.644.644,0,0,0,1.233,0,9.621,9.621,0,0,0-.2-4.908,6.179,6.179,0,0,0-1.016-2.155.927.927,0,0,0-1.639.282.658.658,0,0,0,.294.721,5.7,5.7,0,0,1,2.159,3.239.639.639,0,0,0,1.238-.316Z"/>
          </g>
        </g>
        <g id="Group_163" data-name="Group 163">
          <g id="Group_162" data-name="Group 162">
            <path id="Path_71" data-name="Path 71" d="M88.711,100.438a19.107,19.107,0,0,0-5.241,2.351l.777,1.007a22.792,22.792,0,0,0,3.76-3.691.647.647,0,0,0-.623-1.071,25.873,25.873,0,0,0-5.185,2.317l.777,1.007q1.594-1.9,3.184-3.8c.38-.457.034-1.276-.623-1.071a4.891,4.891,0,0,0-1.809,1.024c-.555.487.158,1.361.777,1.007l2.637-1.511L86.364,97a16.742,16.742,0,0,0-2.189,2.377l1.105.644a18.207,18.207,0,0,0,1.148-2.125c.256-.568.469-1.267-.128-1.7s-1.263,0-1.767.371c-.679.5-1.353.994-2.031,1.489l.777,1.007L86.035,96.8c.559-.457-.175-1.417-.777-1.007l-3.192,2.181.875.875c.555-.807,1.11-1.617,1.669-2.424.354-.516-.358-1.246-.875-.875q-.871.621-1.741,1.246c-.657.469-.068,1.545.644,1.105s1.447-.892,2.172-1.336a.64.64,0,0,0-.644-1.105L81.9,96.691l.875.875c.623-1.033,1.246-2.07,1.869-3.1.265-.44-.188-1.157-.721-.939a12.4,12.4,0,0,0-3.1,1.792l.9.9c.521-.5,1.041-1,1.562-1.506a.644.644,0,0,0-.777-1.007c-.661.358-1.323.713-1.984,1.071l.875.875c.162-.329.324-.653.487-.982a.647.647,0,0,0-.721-.939,6,6,0,0,0-2.253,1.02l.875.875a5.16,5.16,0,0,0,.691-1.549.647.647,0,0,0-.939-.721,20.907,20.907,0,0,0-7.49,5.881.645.645,0,0,0,.777,1.007c2.386-1.259,4.084-3.9,6.892-4.289-.209-.358-.414-.713-.623-1.071q-1.511,1.3-3.021,2.595c-.546.469.184,1.434.777,1.007Q79.269,96.74,81.682,95l-.875-.875q-1.524,2.349-3.051,4.7c-.4.61.5,1.3,1.007.777q1.933-2.01,3.862-4.02L81.618,94.8a17.891,17.891,0,0,0-1.805,3.354.635.635,0,0,0,.371.755.654.654,0,0,0,.8-.26l2.3-3-1.105-.644a43.057,43.057,0,0,0-2.373,5.817h1.233a1.426,1.426,0,0,1,.555-1.331l-.939-.721c-.149,1.028-.3,2.053-.452,3.081a.65.65,0,0,0,.371.755.634.634,0,0,0,.8-.26q.915-2.061,1.827-4.123c-.388-.166-.781-.329-1.169-.5l-.947,3.149c-.2.679.866,1.165,1.169.5a16.548,16.548,0,0,1,2.185-3.585l-1.071-.623c-.235,1.011-.469,2.027-.7,3.039.418.055.836.115,1.259.171.021-.265.043-.533.064-.8-.32.184-.64.367-.964.555a3.085,3.085,0,0,0,3.969-.67l-1.007-.777a28.289,28.289,0,0,1-3.149,5.484l1.071.623a15.836,15.836,0,0,1,1.929-3.653c.414-.589-.533-1.331-1.007-.777a19.773,19.773,0,0,0-2.7,4.114l1.105.644c.26-.559.525-1.122.785-1.681-.388-.166-.781-.329-1.169-.5-.371,1.118-.738,2.24-1.11,3.359.418.055.836.115,1.259.171a6.311,6.311,0,0,1,1.583-3.5l-1.071-.623q-.666,2-1.327,3.99c.41.115.824.226,1.233.341a7.856,7.856,0,0,1,1.592-2.825l-1.071-.623-.64,1.933a5.386,5.386,0,0,1-.29.849,5.98,5.98,0,0,1-.666.815q-1.331,1.632-2.663,3.26l1.071.623a17.461,17.461,0,0,1,2.258-4c.452-.61-.491-1.233-1.007-.777a16.036,16.036,0,0,0-2.4,2.911c.4.107.794.213,1.195.324a19.317,19.317,0,0,1,1.844-5.936c.269-.619-.461-1.34-1.007-.777a8.576,8.576,0,0,0-2.036,3.452.643.643,0,0,0,1.169.5,25.417,25.417,0,0,1,2.526-3.994l-1.071-.623a42.205,42.205,0,0,0-1.246,4.963c-.149.8,1.063,1.152,1.233.341.29-1.366.585-2.736.875-4.1.145-.683-.8-1.157-1.169-.5a17.237,17.237,0,0,0-1.66,4.263c.418.055.836.115,1.259.171a11.355,11.355,0,0,1,.6-4.993c.26-.734-.772-1.037-1.169-.5a6,6,0,0,0-1.1,2.876c-.081.653.9.841,1.195.324L82.8,101.5l-1.105-.644-1.114,2.394c.4.107.794.213,1.195.324,0-.482,0-.964.009-1.447a.648.648,0,0,0-.964-.555,11.582,11.582,0,0,0-2.266,1.942l1.093.452c-.047-.781-.1-1.566-.145-2.347-.034-.589-.883-.926-1.195-.324a6.45,6.45,0,0,0-.717,2.71.647.647,0,0,0,1.195.324,30.359,30.359,0,0,0,1.916-4.289c-.418-.055-.836-.115-1.259-.171-.068.734-.132,1.468-.2,2.206h1.28c.013-.58.03-1.165.043-1.745h-1.28c-.009.414-.021.832-.03,1.246h1.28a16.266,16.266,0,0,1,.324-3.521c.137-.679-.807-1.165-1.169-.5a10.233,10.233,0,0,0-1.105,3.2c.418.055.836.115,1.259.171a10.083,10.083,0,0,1,.6-2.859c.243-.674-.862-1.152-1.169-.5A20.949,20.949,0,0,0,77.756,102h1.233a8.9,8.9,0,0,1-.277-2.228c0-.777-1-.8-1.259-.171a12.063,12.063,0,0,0-.743,2.552h1.233a2.491,2.491,0,0,1,.094-1.263,4.828,4.828,0,0,0,.23-.58c.038-.188.043-.38.09-.568A3.547,3.547,0,0,1,79.6,97.835a.649.649,0,0,0-.128-1.007,1.913,1.913,0,0,0-2.36.423,2.4,2.4,0,0,0-.213,2.59c.277.619,1.169.256,1.195-.324q.064-1.626.132-3.256a.646.646,0,0,0-1.195-.324,8.324,8.324,0,0,0-.913,4.123c.4-.107.794-.213,1.195-.324a3.179,3.179,0,0,1-.474-1.865.649.649,0,0,0-.964-.555l-2.3,1.259a3.535,3.535,0,0,0-1.609,1.221,4.878,4.878,0,0,0-.119,2.33c.038.913.081,1.827.119,2.74a.644.644,0,0,0,1.259.171q.768-3.009,1.541-6.022a.644.644,0,0,0-1.169-.5,3.932,3.932,0,0,0-.943,2.1.98.98,0,0,0,1.417.892c.7-.307,1.191-1.161,1.669-1.733Q76.6,98.74,77.47,97.7l-1.007-.777q-.89,2.061-1.78,4.118l1.105.644c.337-.785.679-1.57,1.016-2.356-.4-.107-.794-.213-1.195-.324a19.223,19.223,0,0,0-.017,3.056c.051.687,1.075.909,1.259.171s.371-1.5.559-2.249c-.418-.055-.836-.115-1.259-.171.026,1.071.055,2.142.081,3.214.418-.055.836-.115,1.259-.171-.175-.751-.61-1.575-1.46-1.677a1.294,1.294,0,0,0-1.494,1.25c.418-.055.836-.115,1.259-.171-.068-.418-.132-.836-.2-1.255a.644.644,0,0,0-1.233,0c-.141.76-.286,1.519-.427,2.279H75.17c-.124-.414-.252-.828-.376-1.242a.644.644,0,0,0-1.259.171c-.055.5-.107.994-.162,1.489h1.28a8.048,8.048,0,0,1,.094-2.458c-.418-.055-.836-.115-1.259-.171a19.5,19.5,0,0,0,.815,4.165.64.64,0,0,0,1.233-.341,13.571,13.571,0,0,1-.026-3.6c-.418.055-.836.115-1.259.171l.551,4.046c.1.713,1.306.546,1.259-.171a9.091,9.091,0,0,1,.137-2.381H74.965c.248.653.491,1.31.738,1.963a.64.64,0,0,0,1.233-.341c-.03-.115-.06-.235-.094-.35a.64.64,0,0,0-1.233.341c.166.666.333,1.331.5,1.993a.644.644,0,0,0,1.259-.171,27.479,27.479,0,0,1,.457-4.1c-.418-.055-.836-.115-1.259-.171-.013,1.157-.021,2.317-.034,3.474a.641.641,0,0,0,1.28,0,7.751,7.751,0,0,1,.516-2.381c-.418-.055-.836-.115-1.259-.171.111,1.11.218,2.219.329,3.329a.641.641,0,0,0,1.28,0,9.3,9.3,0,0,1,.546-3.013H77.991c.158,1.105.316,2.215.469,3.32.107.743,1.229.516,1.259-.171.038-.969.081-1.942.119-2.911-.418.055-.836.115-1.259.171.128.828.26,1.656.388,2.484.115.751,1.212.508,1.259-.171.073-1.152.149-2.3.222-3.457h-1.28c.064,1,.128,2,.192,3,.051.819,1.331.824,1.28,0-.064-1-.128-2-.192-3a.641.641,0,0,0-1.28,0c-.073,1.152-.149,2.3-.222,3.457.418-.055.836-.115,1.259-.171-.128-.828-.26-1.656-.388-2.484-.115-.738-1.229-.521-1.259.171-.038.969-.081,1.942-.119,2.911.418-.055.836-.115,1.259-.171-.158-1.105-.316-2.215-.469-3.32-.1-.683-1.046-.525-1.233,0a10.317,10.317,0,0,0-.593,3.354h1.28c-.111-1.11-.218-2.219-.329-3.329a.644.644,0,0,0-1.259-.171,8.728,8.728,0,0,0-.563,2.723h1.28c.013-1.157.021-2.317.034-3.474.009-.7-1.122-.9-1.259-.171a29.809,29.809,0,0,0-.5,4.438c.418-.055.836-.115,1.259-.171-.166-.666-.333-1.331-.5-1.993-.41.115-.824.226-1.233.341.03.115.06.235.094.35.41-.115.824-.226,1.233-.341-.248-.653-.491-1.31-.738-1.963-.2-.533-1.1-.679-1.233,0a10.205,10.205,0,0,0-.184,2.718c.418-.055.836-.115,1.259-.171l-.551-4.046a.63.63,0,0,0-.7-.457.654.654,0,0,0-.555.627,14.881,14.881,0,0,0,.073,3.943c.41-.115.824-.226,1.233-.341a17.977,17.977,0,0,1-.768-3.824c-.06-.67-1.105-.93-1.259-.171a9.071,9.071,0,0,0-.141,2.8.641.641,0,0,0,1.28,0c.055-.5.107-.994.162-1.489-.418.055-.836.115-1.259.171.124.414.252.828.376,1.242.171.563,1.114.653,1.233,0,.141-.76.286-1.519.427-2.279H74.359c.068.418.132.836.2,1.255.115.717,1.28.542,1.259-.171,0,.158-.1,0,.009.017a.281.281,0,0,1,.149.077c.179.124.235.487.277.674a.644.644,0,0,0,1.259-.171q-.038-1.607-.081-3.214a.644.644,0,0,0-1.259-.171c-.188.751-.371,1.5-.559,2.249.418.055.836.115,1.259.171A18.732,18.732,0,0,1,76.889,99c.051-.61-.943-.9-1.195-.324-.337.785-.679,1.57-1.016,2.356-.324.747.781,1.4,1.105.644q.89-2.061,1.78-4.118c.26-.6-.5-1.387-1.007-.777l-2.13,2.552c-.179.213-.354.427-.533.64a2.785,2.785,0,0,1-.235.269c-.239.132-.137.2.3.222.09-.047.248-.585.316-.7a5.426,5.426,0,0,1,.418-.619c-.388-.166-.781-.329-1.169-.5q-.768,3.009-1.541,6.022c.418.055.836.115,1.259.171-.034-.738-.064-1.477-.1-2.211-.017-.35-.03-.7-.047-1.054a3.736,3.736,0,0,1-.03-1.131c.145-.435,1.054-.734,1.421-.935.674-.371,1.349-.738,2.019-1.11-.32-.184-.64-.367-.964-.555a4.333,4.333,0,0,0,.649,2.509.646.646,0,0,0,1.195-.324,6.949,6.949,0,0,1,.738-3.474c-.4-.107-.794-.213-1.195-.324q-.064,1.626-.132,3.256c.4-.107.794-.213,1.195-.324-.235-.521.021-1.7.819-1.263-.043-.337-.085-.67-.128-1.007A4.68,4.68,0,0,0,77.1,99.461c-.043.188-.051.405-.1.58-.077.256-.209.482-.273.747a3.989,3.989,0,0,0-.021,1.681.644.644,0,0,0,1.233,0,12.064,12.064,0,0,1,.743-2.552c-.418-.055-.836-.115-1.259-.171a10.2,10.2,0,0,0,.32,2.565.644.644,0,0,0,1.233,0,19.388,19.388,0,0,1,1.4-4.131c-.388-.166-.781-.329-1.169-.5a11.38,11.38,0,0,0-.644,3.2c-.043.708,1.139.888,1.259.171a9.005,9.005,0,0,1,.977-2.889c-.388-.166-.781-.329-1.169-.5a18.026,18.026,0,0,0-.371,3.858.641.641,0,0,0,1.28,0c.009-.414.021-.832.03-1.246a.641.641,0,0,0-1.28,0c-.013.58-.03,1.165-.043,1.745-.021.836,1.208.807,1.28,0,.068-.734.132-1.468.2-2.206.068-.76-1.028-.811-1.259-.171a28.472,28.472,0,0,1-1.784,3.986c.4.107.794.213,1.195.324a4.9,4.9,0,0,1,.542-2.061c-.4-.107-.794-.213-1.195-.324.047.781.1,1.566.145,2.347a.648.648,0,0,0,1.093.452,10.168,10.168,0,0,1,2.01-1.741c-.32-.184-.64-.367-.964-.555,0,.482,0,.964-.009,1.447,0,.6.918.918,1.195.324l1.114-2.394c.341-.734-.7-1.378-1.105-.644l-1.767,3.149c.4.107.794.213,1.195.324a4.7,4.7,0,0,1,.922-2.228c-.388-.166-.781-.329-1.169-.5a12.232,12.232,0,0,0-.64,5.33c.068.67,1.075.926,1.259.171a15.711,15.711,0,0,1,1.532-3.956c-.388-.166-.781-.329-1.169-.5-.29,1.366-.585,2.736-.875,4.1.41.115.824.226,1.233.341a42.42,42.42,0,0,1,1.246-4.963c.184-.576-.67-1.139-1.071-.623a27.058,27.058,0,0,0-2.727,4.251c.388.166.781.329,1.169.5a7.183,7.183,0,0,1,1.707-2.889l-1.007-.777a21.21,21.21,0,0,0-2.019,6.581c-.06.687.866.794,1.195.324a14.571,14.571,0,0,1,2.2-2.654l-1.007-.777a18.9,18.9,0,0,0-2.386,4.31c-.235.585.674,1.105,1.071.623q1.434-1.754,2.864-3.508a9.632,9.632,0,0,0,.649-.8,4.457,4.457,0,0,0,.371-.99q.352-1.063.7-2.13a.645.645,0,0,0-1.071-.623,9.386,9.386,0,0,0-1.92,3.388c-.252.79.977,1.118,1.233.341q.666-2,1.327-3.99a.645.645,0,0,0-1.071-.623,7.8,7.8,0,0,0-1.959,4.4c-.085.747,1.041.819,1.259.171.371-1.118.738-2.24,1.11-3.359.226-.679-.862-1.157-1.169-.5-.26.559-.525,1.122-.785,1.681-.346.738.743,1.391,1.105.644a18.453,18.453,0,0,1,2.5-3.854l-1.007-.777a17.093,17.093,0,0,0-2.057,3.956c-.213.58.674,1.122,1.071.623a29.933,29.933,0,0,0,3.35-5.744c.29-.606-.529-1.387-1.007-.777a1.816,1.816,0,0,1-2.415.469.649.649,0,0,0-.964.555c-.021.265-.043.533-.064.8a.644.644,0,0,0,1.259.171c.235-1.011.469-2.027.7-3.039.132-.568-.64-1.157-1.071-.623a17.8,17.8,0,0,0-2.386,3.845c.388.166.781.329,1.169.5l.947-3.149c.2-.679-.871-1.169-1.169-.5q-.915,2.061-1.827,4.123c.388.166.781.329,1.169.5.149-1.028.3-2.053.452-3.081.068-.478-.435-1.093-.939-.721a2.777,2.777,0,0,0-1.144,2.778c.107.67,1.058.546,1.233,0a40.617,40.617,0,0,1,2.245-5.509.64.64,0,0,0-1.105-.644l-2.3,3c.388.166.781.329,1.169.5a16.515,16.515,0,0,1,1.673-3.047c.418-.6-.508-1.293-1.007-.777q-1.933,2.01-3.862,4.02l1.007.777q1.524-2.349,3.051-4.7c.337-.516-.35-1.255-.875-.875q-2.413,1.748-4.827,3.491l.777,1.007q1.511-1.3,3.021-2.595c.546-.469-.068-1.148-.623-1.071-2.962.41-4.7,3.1-7.2,4.417l.777,1.007a20.091,20.091,0,0,1,7.234-5.68l-.939-.721a4.082,4.082,0,0,1-.563,1.242c-.341.512.358,1.259.875.875a5,5,0,0,1,1.946-.892L80.79,94c-.162.329-.324.653-.487.982a.645.645,0,0,0,.875.875c.661-.358,1.323-.713,1.984-1.071l-.777-1.007c-.521.5-1.041,1-1.562,1.506-.61.589.277,1.4.9.9a10.428,10.428,0,0,1,2.535-1.464l-.721-.939c-.623,1.033-1.246,2.07-1.869,3.1a.644.644,0,0,0,.875.875l2.266-1.229c-.213-.367-.431-.738-.644-1.105-.725.444-1.447.892-2.172,1.336.213.367.431.738.644,1.105q.871-.621,1.741-1.246l-.875-.875c-.555.807-1.11,1.617-1.669,2.424a.644.644,0,0,0,.875.875l3.192-2.181-.777-1.007-2.757,2.258c-.555.457.188,1.438.777,1.007.393-.29.79-.58,1.182-.871.226-.166.452-.333.679-.5.132-.1.5-.273.572-.414.158-.077.094-.171-.188-.29-.047.115-.1.23-.154.346-.1.213-.2.422-.312.632-.23.448-.487.883-.751,1.31-.448.717.619,1.28,1.105.644a15.057,15.057,0,0,1,1.989-2.117c.555-.491-.158-1.361-.777-1.007l-2.637,1.511.777,1.007a3.422,3.422,0,0,1,1.246-.7c-.209-.358-.414-.713-.623-1.071q-1.594,1.9-3.184,3.8a.644.644,0,0,0,.777,1.007,24.4,24.4,0,0,1,4.878-2.189c-.209-.358-.414-.713-.623-1.071a22.792,22.792,0,0,1-3.76,3.691c-.572.444.171,1.4.777,1.007a17.954,17.954,0,0,1,4.933-2.219.626.626,0,0,0-.346-1.2Z"/>
          </g>
        </g>
        <g id="Group_165" data-name="Group 165">
          <g id="Group_164" data-name="Group 164">
            <path id="Path_72" data-name="Path 72" d="M82.6,101.343a.641.641,0,0,0,0-1.28.641.641,0,0,0,0,1.28Z"/>
          </g>
        </g>
        <g id="Group_167" data-name="Group 167">
          <g id="Group_166" data-name="Group 166">
            <path id="Path_73" data-name="Path 73" d="M81.58,112.669c-1.182,1.912-3.414,2.821-5.053,4.263a12.594,12.594,0,0,0-3.679,5.774c.418.055.836.115,1.259.171-.06-1.05-.085-2.1-.179-3.154-.068-.781-.508-1.711-1.451-1.592l.64.64c.013-.836.03-1.673.043-2.509h-1.28a10.075,10.075,0,0,0,.956,3.273c.26.538,1,.32,1.169-.154.124-.341.248-.679.367-1.02H73.138q.224,1.4.452,2.808c.115.708,1.314.546,1.259-.171-.175-2.3,1.438-4.063,2.9-5.625L76.74,114.6c-.529,1.169-1.058,2.334-1.588,3.5a.64.64,0,0,0,1.105.644,20.974,20.974,0,0,1,4.793-5.326l-.9-.9-2.906,3.239a.64.64,0,0,0,.9.9q1.344-1.293,2.689-2.582l-1.093-.452a1.389,1.389,0,0,1-.218.687c.388.166.781.329,1.169.5a8.857,8.857,0,0,0,.388-3.922c-.06-.469-.7-.943-1.093-.452-.081.1-.162.209-.248.312l1.007.128a5,5,0,0,1-.188-3.35,1.383,1.383,0,0,0-1.489-1.848c-.465.038-.943.376-1.4.316-.5-.064-.892-.585-1.191-.935a5.24,5.24,0,0,0-1.135-1.08,2.26,2.26,0,0,0-.73-.312,2.828,2.828,0,0,0-.324-.047,1.119,1.119,0,0,0-.239,0c-.209-.009-.2.141.021.457A.647.647,0,0,0,73,103.455a3.28,3.28,0,0,0-1.007,3.333.648.648,0,0,0,1.169.154c.5-.794,1-1.583,1.5-2.377-.4-.107-.794-.213-1.195-.324a14.936,14.936,0,0,1-.269,2.923c-.154.8,1.058,1.152,1.233.341a12.227,12.227,0,0,1,.986-2.846c-.4-.107-.794-.213-1.195-.324-.013,1.165-.03,2.33-.043,3.5a.644.644,0,0,0,1.259.171,1.356,1.356,0,0,1,.734-.9l-.939-.721c-.2,1.174-.414,2.347-.619,3.525.418.055.836.115,1.259.171a8.6,8.6,0,0,1,.482-3.871c-.41-.115-.824-.226-1.233-.341-.427,1.639-.64,3.457.871,4.6.427.324.922-.132.964-.555.145-1.447.218-2.9.226-4.353H75.9c.064,1.524.128,3.051.192,4.575a.64.64,0,0,0,1.28,0,19.375,19.375,0,0,1,.444-3.576H76.586l.6,2.689a.644.644,0,0,0,1.259-.171,10.686,10.686,0,0,1,.423-3.5c-.418-.055-.836-.115-1.259-.171a36.914,36.914,0,0,0,.043,3.948.641.641,0,0,0,1.28,0,12.028,12.028,0,0,1,.61-3.538c-.418-.055-.836-.115-1.259-.171a16.8,16.8,0,0,0,.388,5.633c.107.444.235.888.384,1.319.077.23.474.93.341,1.186-.073.141-.474.273-.606.346-.179.094-.354.192-.533.286-.474.256-.947.508-1.417.764l.875.875a22.3,22.3,0,0,1,3.508-4.216l-.9-.9q-1.376,1.447-2.757,2.889l1.071.623a25.7,25.7,0,0,1,1.336-3.162c.312-.615-.5-1.349-1.007-.777-.683.768-1.37,1.536-2.053,2.309l1.007.777A27.673,27.673,0,0,1,79.783,110c.371-.606-.538-1.349-1.007-.777-.627.768-1.25,1.536-1.878,2.3l1.093.452a5.162,5.162,0,0,1,.593-2.232c.239-.452-.166-1.144-.721-.939a3.292,3.292,0,0,0-1.447.986l1.007.777c.107-.166.213-.333.316-.5a.647.647,0,0,0-.555-.964c-1.024-.017-1.417.935-1.417,1.814,0,1.152.03,2.3.043,3.452a.641.641,0,0,0,1.28,0,4.709,4.709,0,0,1,.824-2.262c-.4-.107-.794-.213-1.195-.324.038.73.081,1.46.119,2.189.418-.055.836-.115,1.259-.171l-.2-.627a.649.649,0,0,0-1.169-.154c-.44.7-.879,1.4-1.319,2.1l1.169.154a1.369,1.369,0,0,1-.017-.807c-.418-.055-.836-.115-1.259-.171a5.669,5.669,0,0,1-1.745,3.388l1.093.452a3.519,3.519,0,0,0-1.011-2.266A3.6,3.6,0,0,1,73,113.5q-.019-1.44-.038-2.876c-.009-.478-.013-.96-.021-1.438,0-.226-.154-1.357.119-1.442-.269-.2-.542-.41-.811-.619.013.542.021,1.084.034,1.622a.647.647,0,0,0,1.195.324,2.25,2.25,0,0,1,.717-.743c-.32-.184-.64-.367-.964-.555l.243,2.471a.641.641,0,0,0,1.28,0,6.778,6.778,0,0,1,.461-1.754c-.418-.055-.836-.115-1.259-.171l.115,3.188a.647.647,0,0,0,1.093.452c.286-.252.576-.5.862-.755l-1.071-.282c.269,1.78.551,3.935-.93,5.279l.623-.166c-.469-.145-.674-.687-.819-1.11a8.882,8.882,0,0,1-.427-1.972,9.319,9.319,0,0,1,.5-3.96H72.66q.352,2.516.708,5.032c.1.734,1.242.525,1.259-.171l.064-2.842c.021-.841-1.191-.8-1.28,0a17.051,17.051,0,0,0,.158,4.8c.111.64,1.084.58,1.233,0a15.518,15.518,0,0,0,.487-4.835.641.641,0,0,0-1.28,0,12.814,12.814,0,0,0,.521,4.2.64.64,0,0,0,1.233-.341,11.808,11.808,0,0,1-.474-3.862h-1.28a14.368,14.368,0,0,1-.444,4.494H74.8A15.747,15.747,0,0,1,74.687,111h-1.28l-.064,2.842c.418-.055.836-.115,1.259-.171q-.352-2.516-.708-5.032c-.1-.683-1.05-.529-1.233,0a10.3,10.3,0,0,0-.525,4.494c.137,1.229.4,2.855,1.391,3.713a1.792,1.792,0,0,0,.772.414.907.907,0,0,0,.862-.393,4.669,4.669,0,0,0,.986-1.694,9.747,9.747,0,0,0,.034-4.6c-.077-.516-.751-.563-1.071-.282-.286.252-.576.5-.862.755l1.093.452-.115-3.188a.644.644,0,0,0-1.259-.171,7.845,7.845,0,0,0-.508,2.091h1.28l-.243-2.471a.65.65,0,0,0-.964-.555,3.72,3.72,0,0,0-1.174,1.2c.4.107.794.213,1.195.324-.013-.542-.021-1.084-.034-1.622a.65.65,0,0,0-.811-.619c-1.127.354-1.075,1.494-1.063,2.471.017,1.165.03,2.33.047,3.5a9.066,9.066,0,0,0,.273,3.094c.333.879,1.421,1.6,1.387,2.578a.647.647,0,0,0,1.093.452,6.988,6.988,0,0,0,2.121-4.293c.09-.725-1.08-.854-1.259-.171a2.718,2.718,0,0,0,.017,1.489.648.648,0,0,0,1.169.154c.44-.7.879-1.4,1.319-2.1l-1.169-.154.2.627c.213.657,1.3.585,1.259-.171-.038-.73-.081-1.46-.119-2.189a.647.647,0,0,0-1.195-.324,6,6,0,0,0-1,2.906h1.28c0-.405-.162-3.99.094-3.986-.184-.32-.367-.64-.555-.964-.107.166-.213.333-.316.5-.384.6.538,1.344,1.007.777a2,2,0,0,1,.879-.657l-.721-.939a6.664,6.664,0,0,0-.768,2.881.646.646,0,0,0,1.093.452c.627-.768,1.25-1.536,1.878-2.3l-1.007-.777a27.672,27.672,0,0,0-1.865,3.581c-.26.61.478,1.37,1.007.777.683-.768,1.37-1.536,2.053-2.309l-1.007-.777a28.431,28.431,0,0,0-1.464,3.47.646.646,0,0,0,1.071.623q1.376-1.447,2.757-2.889a.64.64,0,0,0-.9-.9A23.759,23.759,0,0,0,76.6,115.4c-.358.563.337,1.165.875.875.474-.256.947-.508,1.417-.764a6.377,6.377,0,0,0,1.34-.785c.824-.76.269-1.792-.017-2.667a15.743,15.743,0,0,1-.661-6.423c.077-.751-1.041-.824-1.259-.171a13.161,13.161,0,0,0-.657,3.879h1.28a36.906,36.906,0,0,1-.043-3.948.644.644,0,0,0-1.259-.171,11.714,11.714,0,0,0-.465,3.845c.418-.055.836-.115,1.259-.171l-.6-2.689a.644.644,0,0,0-1.233,0,21.615,21.615,0,0,0-.487,3.918h1.28c-.064-1.524-.128-3.051-.192-4.575a.641.641,0,0,0-1.28,0q-.006,2.183-.226,4.353c.32-.184.64-.367.964-.555-.952-.721-.529-2.211-.282-3.154a.64.64,0,0,0-1.233-.341,9.553,9.553,0,0,0-.529,4.212c.068.657,1.122.939,1.259.171.2-1.174.414-2.347.619-3.525a.648.648,0,0,0-.939-.721,2.619,2.619,0,0,0-1.323,1.664c.418.055.836.115,1.259.171.013-1.165.03-2.33.043-3.5a.646.646,0,0,0-1.195-.324,13.564,13.564,0,0,0-1.114,3.149c.41.115.824.226,1.233.341a16.465,16.465,0,0,0,.312-3.265.647.647,0,0,0-1.195-.324c-.5.794-1,1.583-1.5,2.377l1.169.154a2.01,2.01,0,0,1,.679-2.087l-1.071-.623a.961.961,0,0,0,.661,1.135,5.252,5.252,0,0,0,.777.026,1.39,1.39,0,0,1,.679.384c.811.725,1.344,1.8,2.531,1.963.61.085,1.054-.235,1.63-.294.239-.026.286-.017.213.226a6.04,6.04,0,0,0-.184.777,6.155,6.155,0,0,0,.5,3.559.643.643,0,0,0,1.007.128c.081-.1.162-.209.248-.312l-1.093-.452a8.023,8.023,0,0,1-.341,3.581c-.235.7.8,1.105,1.169.5a2.733,2.733,0,0,0,.393-1.336.647.647,0,0,0-1.093-.452q-1.344,1.293-2.689,2.582l.9.9,2.906-3.239a.64.64,0,0,0-.9-.9,21.889,21.889,0,0,0-4.993,5.586l1.105.644c.529-1.169,1.058-2.334,1.588-3.5.282-.619-.474-1.349-1.007-.777-1.686,1.805-3.474,3.888-3.273,6.529.418-.055.836-.115,1.259-.171q-.224-1.4-.452-2.808c-.111-.683-1.041-.529-1.233,0-.124.341-.248.679-.367,1.02l1.169-.154a8.235,8.235,0,0,1-.781-2.629.641.641,0,0,0-1.28,0c-.013.836-.03,1.673-.043,2.509a.642.642,0,0,0,.64.64c.265-.034.222,1.233.235,1.468.038.666.073,1.331.111,1.993a.644.644,0,0,0,1.259.171,11.35,11.35,0,0,1,3.738-5.535c1.686-1.353,3.691-2.3,4.865-4.2.448-.674-.657-1.319-1.093-.619Z"/>
          </g>
        </g>
        <text id="T" transform="translate(98.377 114.511)" fill="#fff" font-size="5" font-family="Poppins-SemiBold, Poppins" font-weight="600"><tspan x="0" y="0">T</tspan></text>
        <text id="R" transform="translate(76.045 153.9)" fill="#fff" font-size="5" font-family="Poppins-SemiBold, Poppins" font-weight="600"><tspan x="0" y="0">R</tspan></text>
        <text id="A" transform="translate(79.284 147.136)" fill="#fff" font-size="5" font-family="Poppins-SemiBold, Poppins" font-weight="600"><tspan x="0" y="0">A</tspan></text>
        <text id="P" transform="translate(83.7 140.767)" fill="#fff" font-size="5" font-family="Poppins-SemiBold, Poppins" font-weight="600"><tspan x="0" y="0">P</tspan></text>
        <text id="H" transform="translate(87.149 134.178)" fill="#fff" font-size="5" font-family="Poppins-SemiBold, Poppins" font-weight="600"><tspan x="0" y="0">H</tspan></text>
        <text id="O" transform="translate(90.52 127.75)" fill="#fff" font-size="5" font-family="Poppins-SemiBold, Poppins" font-weight="600"><tspan x="0" y="0">O</tspan></text>
        <text id="L" transform="translate(95.576 121.079)" fill="#fff" font-size="5" font-family="Poppins-SemiBold, Poppins" font-weight="600"><tspan x="0" y="0">L</tspan></text>
        <text id="T-2" data-name="T" transform="translate(72.045 160.549)" fill="#fff" font-size="5" font-family="Poppins-SemiBold, Poppins" font-weight="600"><tspan x="0" y="0">T</tspan></text>
        <path id="Path_74" data-name="Path 74" d="M105.487,99.743a4.018,4.018,0,0,0-.973,0,4.693,4.693,0,0,0-2.9,1.7v12.935H107.5v-13.78A4.321,4.321,0,0,0,105.487,99.743Z" fill="#f4dc23" stroke="#f4dc23" stroke-miterlimit="10" stroke-width="0.205"/>
      </g>
    </g>
    <text id="Trapholt" transform="translate(239 76)" font-size="56" font-family="Poppins-Regular, Poppins"><tspan x="0" y="0">Trapholt</tspan></text>
  </g>
</svg>
