<svg id="Layer_1" data-name="Layer 1" xmlns="http://www.w3.org/2000/svg" viewBox="0 0 217.74 69.84"><defs><style>.cls-1{fill:#fff;}.cls-2{fill:#f4dc23;}</style></defs><path d="M947.9,575.11h-4.25V514.37l.07-.08c2.45-2.92,7.68-8,15.19-8.88a21.15,21.15,0,0,1,5.09,0c7.52,1,12.78,6,15.25,8.85l.08.09v1.46l-.5-.35a4,4,0,0,0-1.84-.76,3.54,3.54,0,0,0-.92,0h0a4.37,4.37,0,0,0-2.69,1.54v12.82h6v.82h-8.74v5.83h8.74v.63H966.79v5.83h12.54v.63H963v6.46h-3.8v5.83h20.11v.63H955.44v6.46h-3.77v6.45H947.9Zm-3.62-.63h3V568H951v-6.45h3.77v-6.46h3.78v-6.46h3.8v-6.46h3.77v-6.46H970v-6.46h2.79V516l.07-.09a5.08,5.08,0,0,1,3.18-1.85h0a4.78,4.78,0,0,1,1.07,0,4.7,4.7,0,0,1,1.63.55v0c-2.44-2.84-7.55-7.62-14.78-8.55a19.84,19.84,0,0,0-4.93,0c-7.23.88-12.29,5.7-14.71,8.56Z" transform="translate(-943.65 -505.26)"/><rect x="951.36" y="567.98" width="27.65" height="0.63" transform="translate(-945.4 -502.27) rotate(-0.18)"/><rect x="955.12" y="561.47" width="23.89" height="0.63" transform="translate(-947.97 -497.76) rotate(-0.44)"/><rect x="970.54" y="540.86" width="0.63" height="16.31" transform="translate(-527.26 1011.5) rotate(-89.68)"/><path d="M953.88,526.38a8,8,0,0,1,1.79-3.38l-1-.77a16.58,16.58,0,0,0-1.9,5.68.63.63,0,0,0,1.15.48l2.37-3.72-1.15-.49-1.23,6.48a.64.64,0,0,0,1.16.48l1.92-3.28-1.17-.32a21,21,0,0,1-.4,4.61c-.11.56.62,1.13,1.06.61l1-1.12c.52-.62-.36-1.51-.89-.9l-1,1.13,1,.61a22.1,22.1,0,0,0,.44-4.94.64.64,0,0,0-1.18-.32L954,530.51l1.15.48,1.22-6.47a.63.63,0,0,0-1.15-.49l-2.37,3.73,1.16.48a15.45,15.45,0,0,1,1.77-5.37c.33-.61-.5-1.32-1-.76a9.16,9.16,0,0,0-2.11,3.94c-.2.78,1,1.12,1.21.33Z" transform="translate(-943.65 -505.26)"/><path d="M944.54,574.63l2.18.07a.64.64,0,0,0,.61-.46,18.57,18.57,0,0,0,.26-6,.68.68,0,0,0-.46-.61,9.3,9.3,0,0,0-2.51-.43.65.65,0,0,0-.63.63l-.09,5.38a.64.64,0,0,0,.8.61c.53-.12,1,.15,1.54-.15a1.29,1.29,0,0,0,.62-1.11c.06-.68.07-1.37.11-2.06a4.25,4.25,0,0,0-.07-1.88,1.07,1.07,0,0,0-2,.06,5.76,5.76,0,0,0-.12,1.66l0,2.26c0,.83,1.18.8,1.26,0l.53-5.13a.64.64,0,0,0-1-.55s-.34.21-.36.18,0-.53,0-.58c0-.44,0-.87.07-1.31a9.47,9.47,0,0,1,.36-2.65l-1.24-.17a49.54,49.54,0,0,0,.24,5.31c.06.57.86.92,1.18.32l.63-1.16-1.16-.15c.13.89.59,1.7,1.59,1.68a14.59,14.59,0,0,0,1.58-.29,6.77,6.77,0,0,1,2,.06.63.63,0,0,0,.8-.6l.15-3.62c0-.82.33-2.07-.37-2.7s-1.91-.5-2.73-.54a33,33,0,0,0-3.72.07.61.61,0,0,0-.54.31c-.3.69-.27,1.81.76,1.78.4,0,.75-.32,1.15-.38a7.42,7.42,0,0,1,1.49,0l1.65.07a3.33,3.33,0,0,1,.48,0c-.14-.13-.1,0-.13.07a3.27,3.27,0,0,0,0,1l0,1.61c0,.18.08.65,0,.78s-.62.11-.81.13c-.48,0-1,.13-1.45.16s-.72-.25-.82-.79-.15-1.07-.23-1.6l-.12-.87c0-.12.05-.28-.07-.19s.26.08.32.09l1.72.1a8.08,8.08,0,0,0,.85,0c.13,0,.25.09.19,0s-.07.47-.07.45v.74a2.57,2.57,0,0,1,0,.83c-.13.23-1,.26-1.28.32s-.67.21-.84.1-.23-.56-.26-.74-.13-.63-.17-.94a.77.77,0,0,1,0-.3c0-.17-.17,0,0,0a3.47,3.47,0,0,1,.9,0,3.2,3.2,0,0,0,.92,0h.12v-.07a1.63,1.63,0,0,1,0,.44l0,.37c0,.08-.08.53,0,.42l.37-.29c.27.1.31.05.15-.15l-.1-.17a3.65,3.65,0,0,0-.32-.45,2,2,0,0,0-.89-.65c-.73-.26-1.45-.09-1.61.71a1.9,1.9,0,0,0,.41,1.86,2,2,0,0,0,2,.19.65.65,0,0,0,.28-1.06l-.9-1.12c-.32-.4-.91-.12-1,.28l-.15.42c-.27.77.95,1.1,1.22.33l.15-.41-1.06.27.89,1.13.28-1.06c-.22.07-.61.24-.81.07s0-.64,0-.86l-.44.44c.82-.24,1,1.18,1.63,1.44a.87.87,0,0,0,.91-.15c.31-.3.27-.8.29-1.19,0-.7.18-1.52-.59-1.87a3.09,3.09,0,0,0-1.09-.15,13.93,13.93,0,0,0-1.58-.08,1.2,1.2,0,0,0-1.2,1.24,5.91,5.91,0,0,0,.52,2.53,1.51,1.51,0,0,0,1.59.77c.42-.05.83-.14,1.24-.22a2.9,2.9,0,0,0,1.27-.35c.66-.49.5-1.46.51-2.17s.2-1.81-.69-2.12a4.63,4.63,0,0,0-1.18-.11l-1.47-.09c-.77,0-1.89-.27-2.12.74a3.54,3.54,0,0,0,.08,1.17l.21,1.49a3.29,3.29,0,0,0,.66,2,2.34,2.34,0,0,0,2.13.41l1.36-.15a1.78,1.78,0,0,0,1.18-.4,1.67,1.67,0,0,0,.33-1.21c0-.58,0-1.16,0-1.74,0-.75.33-2.14-.52-2.57a3.3,3.3,0,0,0-1.29-.16l-1.65-.08a8.9,8.9,0,0,0-1.46,0,3.37,3.37,0,0,0-.55.12l-.34.14c-.32.12-.23.19.27.22l-.55.31c1-.07,2-.11,3-.09.46,0,.91,0,1.36.06.23,0,1,0,1.22.15s0,.8,0,1.07l-.06,1.45-.12,2.89.8-.61a8,8,0,0,0-2.62-.07c-.38.05-.78.23-1.15.24s-.43-.4-.48-.75c-.08-.55-.91-.59-1.15-.15l-.63,1.16,1.18.32a49.54,49.54,0,0,1-.25-5.31.63.63,0,0,0-1.24-.16,15.56,15.56,0,0,0-.48,4.52,1.57,1.57,0,0,0,.52,1.41,1.55,1.55,0,0,0,1.75-.15l-1-.54-.53,5.13H946l0-2.14a4.28,4.28,0,0,0,0-1.13v-.16l-.29.13c-.07.09,0,.47,0,.59l-.11,2.09c0,.32.06.55-.28.6a8.1,8.1,0,0,0-1,0l.8.61.08-5.38-.63.63a8,8,0,0,1,2.17.39l-.46-.61a17.6,17.6,0,0,1-.22,5.61l.61-.46-2.18-.07c-.82,0-.81,1.23,0,1.26Z" transform="translate(-943.65 -505.26)"/><path d="M950.93,561.76a14.89,14.89,0,0,1,3.53,0,.64.64,0,0,0,.63-.63C955,560,955,559,955,557.9c0-.5,0-1,0-1.51,0-.22,0-.44,0-.67s0-.33,0-.5,0-.33-.3-.37l-.19-.45,0,.27a.66.66,0,0,0,.63.64l3.08,0a.64.64,0,0,0,.63-.63c-.1-2.17-.14-4.33-.12-6.5l-.63.63a10.08,10.08,0,0,1,1.65-.08l-.17-1.24-.48.07c-.72.1-.53,1.24.17,1.24h2.76a.63.63,0,0,0,.16-1.24c-1.43-.4-4-.82-5.14.44a2.35,2.35,0,0,0-.33,2,26.53,26.53,0,0,1,.12,3.78l.63-.63c-1.07,0-2.17-.1-3.23,0a1.42,1.42,0,0,0-1.34,1.08,13.21,13.21,0,0,0-.28,2.88,32.11,32.11,0,0,0,0,3.4l.46-.61a27.63,27.63,0,0,1-8.56.3l.63.63q0-7.34.14-14.67a.63.63,0,0,0-1.26,0q-.18,7.33-.15,14.67a.66.66,0,0,0,.64.63,28.59,28.59,0,0,0,8.9-.34.62.62,0,0,0,.46-.61,33.33,33.33,0,0,1,0-4.58,4,4,0,0,1,.14-1.25c.2-.35.73-.26,1.06-.26l2.32,0a.65.65,0,0,0,.63-.64c0-.77,0-1.54,0-2.31s-.21-1.44-.21-2.15c0-1.48,3.16-.82,4-.6l.17-1.24h-2.76l.16,1.24.48-.07c.73-.1.52-1.22-.16-1.24a10.08,10.08,0,0,0-1.65.08.65.65,0,0,0-.63.63c0,2.17,0,4.33.12,6.5l.63-.63-3.08,0,.63.63c-.11-1.51-1.89-1.24-2,.14a41,41,0,0,0,.08,6.27l.63-.63a15.58,15.58,0,0,0-3.86.1c-.8.11-.46,1.33.33,1.21Z" transform="translate(-943.65 -505.26)"/><path d="M945.34,545.62l.2-2.27-.63.63c5.59.3,11.2.4,16.8.32l-.63-.63.41,3.48.8-.61a6.32,6.32,0,0,0-3-.23l.61,1.05a4.31,4.31,0,0,0,1.59-3.08h-1.26l.23,2.27,1.24-.16a3,3,0,0,0-1.73-2.52,17.26,17.26,0,0,0-4.54-.54,42.37,42.37,0,0,0-5,0c-1.54.1-3.24.53-4.73,0a.62.62,0,0,0-.77.44,12.06,12.06,0,0,0-.14,3.93.63.63,0,0,0,1.24.16c.29-.77-.06-2.65,1-2.75a21.09,21.09,0,0,1,3.54.26l7.28.57c.78.06,2,.38,2.68-.11a1.1,1.1,0,0,0,.25-1.61,1,1,0,0,0-1.63.31,3,3,0,0,0-.18.94A2.35,2.35,0,0,1,958,547l1,.27a2.66,2.66,0,0,0-3.55-1.88.64.64,0,0,0,.17,1.24l3.51.18v-1.27l-9.79-.47c-1.2-.06-2.84-.45-3.72.6s-.81,2.5-1,3.62a53.64,53.64,0,0,0-.18,9.65,1.71,1.71,0,0,0,.46,1.36c.44.36.89.23,1.4.13,1.34-.27,2.51.93,3.85.13.66-.39.18-1.24-.49-1.15a18.62,18.62,0,0,1-3.58.12c-.82,0-.79,1.17,0,1.26a16.11,16.11,0,0,0,6.51-.63c.77-.24.44-1.46-.34-1.22a15,15,0,0,1-6.17.59v1.26a20.42,20.42,0,0,0,3.91-.16l-.48-1.16c-.58.35-1.22-.06-1.78-.23a2.82,2.82,0,0,0-1.35-.14c-.19,0-.5.2-.67,0a4.13,4.13,0,0,1,0-1c0-.61,0-1.22-.06-1.84a40.58,40.58,0,0,1,.38-7.63,13.23,13.23,0,0,1,.33-1.64c.21-.67.62-.77,1.29-.75,1.24,0,2.47.12,3.71.18l7.77.38c.82,0,.81-1.23,0-1.27l-3.51-.17.17,1.24a1.41,1.41,0,0,1,2,1,.64.64,0,0,0,1,.28,3.43,3.43,0,0,0,1-1.37,2.88,2.88,0,0,0,.2-.65l.06-.43c.08-.21,0-.29-.23-.26l-.29-.38a10.26,10.26,0,0,0-2.38-.2l-2.37-.18-5.08-.4c-1.17-.09-3-.6-4.06.19s-.62,2.2-1,3.29l1.24.17a11.15,11.15,0,0,1,.09-3.6l-.77.44a8.33,8.33,0,0,0,3.72.17c1.45-.13,2.91-.19,4.37-.18a42.51,42.51,0,0,1,4.36.27,5.17,5.17,0,0,1,1.92.33c.54.3.66,1.06.78,1.6s1.32.55,1.24-.17l-.23-2.27a.63.63,0,0,0-1.26,0,3.13,3.13,0,0,1-1.22,2.19c-.55.45.07,1.14.61,1.06a4.94,4.94,0,0,1,2.35.23.63.63,0,0,0,.8-.61l-.4-3.48a.64.64,0,0,0-.64-.63c-5.6.08-11.21,0-16.8-.32a.63.63,0,0,0-.63.63l-.2,2.27c-.07.81,1.19.81,1.26,0Z" transform="translate(-943.65 -505.26)"/><path d="M946.38,559.5l-.19-5.93-1.17.32a15.25,15.25,0,0,1,1.24,5.32.64.64,0,0,0,1.24.17,25.41,25.41,0,0,0,.78-3.12,13.93,13.93,0,0,1,1.16-3l-1.15-.49a26.13,26.13,0,0,0-1.09,7.56c0,.57.92.92,1.17.31l2.56-6-1.09-.63a12.48,12.48,0,0,0-1.1,5.48.63.63,0,0,0,1.17.32l2.05-3.4-1.16-.49a10.57,10.57,0,0,0-.68,3.14c-.06.81,1.2.81,1.26,0a9.58,9.58,0,0,1,.64-2.8c.26-.68-.8-1.08-1.15-.49l-2,3.4,1.18.32a11.1,11.1,0,0,1,.93-4.85.65.65,0,0,0-.23-.86.63.63,0,0,0-.86.23l-2.56,6,1.18.32a24.87,24.87,0,0,1,1-7.22.63.63,0,0,0-1.15-.49,15.9,15.9,0,0,0-1.26,3.16,29.64,29.64,0,0,1-.8,3.25l1.24.17a17.05,17.05,0,0,0-1.42-6c-.26-.58-1.2-.27-1.18.32l.19,5.93a.63.63,0,0,0,1.26,0Z" transform="translate(-943.65 -505.26)"/><path d="M950.78,559.86l2.24-4.08-1.15-.49a16.8,16.8,0,0,0-.88,4c-.07.72,1,.83,1.24.17l.56-1.93h-1.22l.2,1.43c.1.71,1.28.54,1.24-.17a51,51,0,0,1,.56-8,25.94,25.94,0,0,0,.15-4.13c0-.47-.07-.93-.54-1.14a4.31,4.31,0,0,0-1.68-.11,28.81,28.81,0,0,0-4,.12c-1.19.16-1.42,1.08-1.63,2.1-.29,1.33-.52,2.66-.7,4-.13,1-.32,2,.46,2.74a.63.63,0,0,0,1-.27l.6-1.72-1.24-.17-.06,3.43a.63.63,0,0,0,1.17.32l1.9-3.31-1.16-.49-.85,3.39a.63.63,0,0,0,1.22.34,53.56,53.56,0,0,0,1.38-5.3,25.06,25.06,0,0,0,.37-2.74,2.62,2.62,0,0,0-.35-1.92c-.9-1.07-2.38-.22-2.84.81a20.42,20.42,0,0,0-.72,2.17,6,6,0,0,0-.37,2.45.63.63,0,0,0,1.24.17,33.46,33.46,0,0,1,2.12-5.28l-1.16-.49c-.7,2.13,0,4.63-1.18,6.58l1.15.15c-.72-1.78.55-3.38,1.6-4.71a3.71,3.71,0,0,1,.71-.82c.33-.21.64-.08,1,0a3.35,3.35,0,0,0,1.89.31c.81-.14.45-1.32-.34-1.21l-3.52.48a.64.64,0,0,0,0,1.22l3.41.51v-1.22l-4.1.59a.63.63,0,0,0,0,1.21l3.13.48v-1.22l-.22.07a.63.63,0,0,0,.16,1.24l.86,0v-1.26l-3.86.38c-.8.08-.83,1.31,0,1.26a15.52,15.52,0,0,1,4,.3l.16-1.24a15.54,15.54,0,0,0-4.6.59.64.64,0,0,0,0,1.22,11.93,11.93,0,0,0,4.87.4l-.17-1.24L949.47,551a.63.63,0,0,0,.17,1.24l3.68,0a.63.63,0,0,0,0-1.26l-3.53-.06a.63.63,0,0,0-.32,1.17,5.17,5.17,0,0,0,1.7.65l-.16-1.16a4.08,4.08,0,0,1-1.79.41.63.63,0,0,0,0,1.26l1.54,0a.63.63,0,0,0,.16-1.24l-1.4-.31a.64.64,0,0,0-.77.78c.51,1.46-.59,2.9-.87,4.31-.13.65.83,1.17,1.15.49l2.19-4.67-1.15-.49a13.85,13.85,0,0,0-.61,3.72c0,.75,1,.81,1.24.17a34.68,34.68,0,0,1,1.47-3.43l-1.17-.32-.2,1.89c-.07.71,1.07.85,1.24.17l.41-1.62-1.24-.17v1.6a3.06,3.06,0,0,0,0,.8c-.07.31,0,.35.17.14l-.28,0c-.76.13-1.09.82-1.25,1.51l1.21.33a7.3,7.3,0,0,1,1.21-3l-1.16-.49-.66,1.69c-.3.76.92,1.09,1.21.34l.67-1.69c.28-.71-.77-1-1.15-.49a7.86,7.86,0,0,0-1.33,3.28c-.14.78,1,1.14,1.21.33a1.23,1.23,0,0,1,.17-.52c.15-.13.33-.07.5-.12a1,1,0,0,0,.7-.7,5.31,5.31,0,0,0,0-1.32v-1.74a.63.63,0,0,0-1.24-.17l-.41,1.62,1.24.17.2-1.89c.07-.63-.91-.86-1.18-.32a37.54,37.54,0,0,0-1.6,3.74l1.24.16a12.85,12.85,0,0,1,.56-3.38c.21-.67-.84-1.15-1.15-.49l-2.19,4.67,1.16.48c.33-1.67,1.48-3.21.86-5l-.77.78,1.4.31.17-1.24-1.54,0v1.26a5.57,5.57,0,0,0,2.43-.58.63.63,0,0,0-.15-1.15,4.16,4.16,0,0,1-1.4-.52l-.31,1.18,3.53.06V551l-3.68,0,.16,1.24,3.37-1.12a.63.63,0,0,0-.17-1.24,11,11,0,0,1-4.53-.36v1.22a14.25,14.25,0,0,1,4.26-.55c.69,0,.89-1.09.17-1.24a16.72,16.72,0,0,0-4.35-.34v1.26l3.86-.38c.79-.08.83-1.28,0-1.26h-.86l.17,1.24.23-.06c.54-.17.65-1.12,0-1.22l-3.14-.47v1.21l4.11-.58a.64.64,0,0,0,0-1.22l-3.42-.51v1.22l3.53-.49-.34-1.21c-.79.14-1.56-.61-2.41-.51s-1.48,1-2,1.68c-1.23,1.56-2.45,3.51-1.63,5.56a.65.65,0,0,0,1.16.15c1.32-2.11.56-4.62,1.31-6.88.22-.67-.83-1.13-1.15-.49a34.4,34.4,0,0,0-2.24,5.58l1.24.17a8.92,8.92,0,0,1,.74-3.43c.11-.36.24-1.11.71-1.2s.31.94.28,1.25a35.73,35.73,0,0,1-1.69,7.57l1.22.34.85-3.39a.63.63,0,0,0-1.15-.49l-1.9,3.32,1.18.31.06-3.43a.63.63,0,0,0-1.24-.17l-.6,1.72,1.06-.28c-.54-.51-.08-1.94,0-2.56q.24-1.55.57-3.09c.1-.47.09-.93.59-1.07a6.69,6.69,0,0,1,1.55-.06c1.12,0,2.27,0,3.38,0,.22,0,.18,0-.12,0,0,.13,0,.26,0,.39s0,.51,0,.77c0,.52,0,1-.06,1.55-.07,1-.19,2.06-.31,3.09a36.18,36.18,0,0,0-.37,6.32l1.24-.16-.2-1.44c-.1-.65-1.06-.54-1.22,0l-.56,1.93,1.24.17a15.46,15.46,0,0,1,.83-3.68c.24-.68-.81-1.11-1.15-.49l-2.24,4.09c-.39.71.7,1.35,1.09.63Z" transform="translate(-943.65 -505.26)"/><path d="M953.92,553.28a24.77,24.77,0,0,0,.35-3.22c0-.52,0-1,0-1.57q0-.37,0-.75c0-.13,0-.25,0-.38a2.29,2.29,0,0,0,0-.25c0-.14,0-.12-.07.06l-.27.16.3,0,.51,0,.88.07c.61,0,1.23.06,1.84.14l-.32-.08.06,0-.22-.22c-.16-.23.06-.21-.15-.15a1.19,1.19,0,0,1-.27.07,5,5,0,0,1-1-.12,1.88,1.88,0,0,0-2,.63,1,1,0,0,0,.89,1.6c.8,0,1.61,0,2.41,0l-.17-1.24-2.25.82c-.65.24-1.4.45-1.61,1.19a.64.64,0,0,0,.78.78,16.48,16.48,0,0,1,3.2-.47l-.32-1.18-3.1,1.31c-.57.25-.28,1.23.32,1.18l3.07-.25-.32-1.18a5.18,5.18,0,0,1-1.93.56,2.93,2.93,0,0,0-1.76,1.07.62.62,0,0,0,.37.92,3,3,0,0,0,1.5-.05,3.21,3.21,0,0,1,1.22-.22,2.16,2.16,0,0,0,.84.1.93.93,0,0,0,0-1.82.63.63,0,0,0-.8.6l0,.6a3.24,3.24,0,0,0,0,.56s.39-.2.25-.28a1.12,1.12,0,0,0-.23-.06,4.17,4.17,0,0,0-.6-.1,3.78,3.78,0,0,0-2.21.48.63.63,0,0,0,.64,1.09,2.5,2.5,0,0,1,1.13-.32,9.84,9.84,0,0,1,1.23.17.93.93,0,0,0,1-.73,5.14,5.14,0,0,0-.06-1.41l-.8.61c.27-.4.27-.61,0-.66l-.2,0a2.3,2.3,0,0,0-.45-.05,3.42,3.42,0,0,0-.85.12,3.26,3.26,0,0,1-1.41.21l.38.92a2.18,2.18,0,0,1,1.39-.55,4.46,4.46,0,0,0,1.85-.62c.46-.32.36-1.23-.32-1.17l-3.07.25.32,1.18,3.1-1.32c.59-.24.27-1.2-.32-1.17a17.68,17.68,0,0,0-3.54.51l.78.78c0-.07.31-.15.37-.18l.83-.3,1.78-.65a.63.63,0,0,0-.17-1.24h-2.25c-.13,0-.23-.07-.06.09-.18-.17.41.44.08.23h0c.05,0,.19-.07.26-.07a1.79,1.79,0,0,1,.4,0,3.74,3.74,0,0,0,1.79,0,1.45,1.45,0,0,0,1-1.28c0-.83-.91-.8-1.5-.84l-2-.16c-.62,0-1.46-.21-1.69.56a2.2,2.2,0,0,0,0,.81c0,.35,0,.71,0,1.06a24,24,0,0,1-.32,4.4.63.63,0,0,0,.44.77.62.62,0,0,0,.77-.44Z" transform="translate(-943.65 -505.26)"/><path d="M954.74,549.21a.63.63,0,0,0,0-1.26.63.63,0,0,0,0,1.26Z" transform="translate(-943.65 -505.26)"/><path d="M962.75,543.48v-1.55l-.46.61a18,18,0,0,1,3.52-.25.64.64,0,0,0,.63-.63,49.92,49.92,0,0,1,.13-6.81l-1.08.44a2.17,2.17,0,0,0,1.62.53h2.46a.64.64,0,0,0,.63-.64,15,15,0,0,1,0-2c0-.75-1-.81-1.24-.17a1.37,1.37,0,0,1-.34.64c-.26.18-.74.09-1,.12a11.76,11.76,0,0,0-2.19.42.63.63,0,0,0,.34,1.21,10.26,10.26,0,0,1,1.46-.32c.48-.07,1,0,1.46-.13.87-.15,1.25-.84,1.53-1.61l-1.24-.16a15,15,0,0,0,0,2l.63-.63h-1.84c-.37,0-1.06.13-1.35-.16a.63.63,0,0,0-1.07.45,49.92,49.92,0,0,0-.13,6.81l.63-.64a20.79,20.79,0,0,0-3.86.3.63.63,0,0,0-.46.61l0,1.55a.64.64,0,0,0,1.27,0Z" transform="translate(-943.65 -505.26)"/><path d="M945.29,543.35a28.31,28.31,0,0,0,.25-4.69c0-.69-1.09-.89-1.24-.17l-.42,1.91,1.22.33a24.07,24.07,0,0,0,.12-6.78c-.1-.78-1.25-.83-1.26,0a32.09,32.09,0,0,0,1.15,9,.64.64,0,0,0,1.22,0,6.06,6.06,0,0,1,1-2l-1.17-.31.07,3.52a.64.64,0,0,0,1.27,0,7.18,7.18,0,0,1,.75-3.18l-1.15-.15.53,2.42c.16.72,1.21.53,1.24-.16l.09-2.19-1.24.17.57,1.73c.17.55,1.1.66,1.22,0l.27-1.6-1.15.15a5,5,0,0,1,.4,1.42.64.64,0,0,0,1.22,0l.25-.4-1-.12.89,2.07c.27.62,1.16.25,1.18-.32l.1-2.64-1.24.16.82,2.59a.63.63,0,0,0,1.24-.17l.2-2.4-1.18.32.84,1.61a.64.64,0,0,0,1.18-.31,6.76,6.76,0,0,1,.12-1.85l-1.16.15a7.36,7.36,0,0,1,1.13,2.58l1.06-.62a1.15,1.15,0,0,1-.22-1.36l-1.05.28a9.54,9.54,0,0,1,1.41,1.82.64.64,0,0,0,1.16-.49l-.32-2.19-1.06.61a4.1,4.1,0,0,1,.9,1.53.63.63,0,0,0,1.24-.16l0-1.73-.79.61.38.27a.64.64,0,0,0,1.08-.44l.07-.61-1.18.32.8,1.44a.64.64,0,0,0,1.18-.32l-.07-1.9a.64.64,0,0,0-1.18-.31,4.57,4.57,0,0,0-.72,2.66c.09.79,1.3.82,1.26,0a4.77,4.77,0,0,1,1.52-3.8L958,539.2c0,1.25,0,2.5-.09,3.76a.63.63,0,0,0,1.17.32l.53-1.09L958.5,542l.56,2.43a.63.63,0,0,0,1.24-.17,9,9,0,0,1,.25-1.72h-1.22l.21,1c.13.66,1,.53,1.22,0l.38-1.05h-1.22l.14.48a.63.63,0,0,0,1.21,0l.36-1h-1.21l.1.66c.09.63,1.08.58,1.22,0l.17-.76a.63.63,0,0,0-1.22-.34l-.24.61,1.24.17a22,22,0,0,1,.82-5.53l-1.24-.17a13.8,13.8,0,0,0,.35,3.45c.16.74,1.17.49,1.24-.17l.13-1.35c.07-.72-1.06-.84-1.24-.17a19.2,19.2,0,0,0-.56,3,.64.64,0,0,0,.8.61l3.11-.68a.64.64,0,0,0,0-1.22,9.7,9.7,0,0,0-2.63-.19l.17,1.24a6,6,0,0,0,2.92-1.17.64.64,0,0,0-.28-1.06,4.83,4.83,0,0,0-3.22.55l.93.71c.41-1,2.28-.52,2.49-1.82a1,1,0,0,0-1.24-1l.71.93a4.85,4.85,0,0,0,.81-3.33c-.07-.63-1.13-.94-1.24-.17a16.11,16.11,0,0,1-.55,2.57l1.24.17-.2-1.95a.64.64,0,0,0-1.24-.17,9.94,9.94,0,0,0-.73,3l1.08-.45a2.85,2.85,0,0,1-.53-1.11.64.64,0,0,0-1.24.17l-.17,2,1.24-.16-.45-1.33a.63.63,0,0,0-1.24.17V538a.64.64,0,0,0,1.24.17,1.61,1.61,0,0,0-.32-1.76,1.14,1.14,0,0,0-1.54.12,5,5,0,0,0-1,2.21,14.74,14.74,0,0,0-.49,3.09l1.24-.16-.07-.46c-.1-.69-1.32-.54-1.24.17l-.08.4,1,.27a7.07,7.07,0,0,1-.27-2.63c.06-.73-1-.82-1.24-.16a8.1,8.1,0,0,0-.35,2.49.64.64,0,0,0,1.27,0l.15-2.47c0-.47.18-1.11-.13-1.53a.79.79,0,0,0-1.42.28c-.18.79,1,1.13,1.22.34l-.88.09,0,.41a3.94,3.94,0,0,0-.07,1l-.12,1.85H960a6.6,6.6,0,0,1,.3-2.16l-1.24-.17a8.25,8.25,0,0,0,.31,3,.64.64,0,0,0,1.06.28,1.52,1.52,0,0,0,.45-1.29l-1.24.17.07.45c.11.74,1.2.5,1.24-.17a12.9,12.9,0,0,1,.36-2.39c.09-.36.19-.72.31-1.07.06-.16.37-1.24.18-.54L963,538v-.26l-1.24.17.45,1.32a.63.63,0,0,0,1.24-.17l.17-2-1.24.17a4.26,4.26,0,0,0,.86,1.66c.37.48,1,0,1.07-.44a9,9,0,0,1,.69-2.7l-1.24-.17.19,1.95a.63.63,0,0,0,1.24.16,16,16,0,0,0,.56-2.56L964.5,535a3.79,3.79,0,0,1-.64,2.69.64.64,0,0,0,.72.93c-.16-.45-.41-.54-.75-.29l-.29.09a4.7,4.7,0,0,0-.83.35,2.18,2.18,0,0,0-.94,1.17c-.2.54.49,1,.93.71a3.37,3.37,0,0,1,2.24-.42l-.28-1.06a4.81,4.81,0,0,1-2.36.85c-.69.12-.54,1.28.17,1.24a8.39,8.39,0,0,1,2.29.15v-1.22l-3.1.68.8.61a15.9,15.9,0,0,1,.51-2.65l-1.24-.17-.14,1.35,1.24-.17a12.48,12.48,0,0,1-.3-3.11.63.63,0,0,0-1.24-.17,23.81,23.81,0,0,0-.87,5.87c0,.77,1,.79,1.24.17l.25-.61-1.22-.34-.17.77h1.22l-.11-.66c-.1-.68-1-.52-1.21,0l-.36,1h1.21l-.13-.49a.64.64,0,0,0-1.22,0l-.38,1h1.22l-.21-1a.64.64,0,0,0-1.22,0,10.23,10.23,0,0,0-.29,2.06l1.24-.17-.57-2.43a.64.64,0,0,0-1.15-.15l-.53,1.09,1.18.32c.09-1.26.12-2.51.09-3.76a.64.64,0,0,0-1.08-.45,6,6,0,0,0-1.88,4.69h1.26a3.48,3.48,0,0,1,.55-2l-1.17-.32.07,1.9,1.17-.32-.8-1.43a.63.63,0,0,0-1.17.31l-.08.61,1.08-.45a2.72,2.72,0,0,0-.94-.59c-.39-.17-.79.24-.8.6l0,1.73,1.24-.17a5.54,5.54,0,0,0-1.23-2.09c-.47-.51-1.14,0-1.05.62l.32,2.19,1.15-.49a10.37,10.37,0,0,0-1.61-2.07.63.63,0,0,0-1,.28,2.36,2.36,0,0,0,.54,2.59.64.64,0,0,0,1.05-.62,12.24,12.24,0,0,0-.45-1.68,7.22,7.22,0,0,0-.81-1.2c-.28-.4-1-.43-1.15.15a8.45,8.45,0,0,0-.16,2.19l1.17-.32-.84-1.61c-.31-.6-1.13-.26-1.18.31l-.19,2.4,1.24-.17-.82-2.58a.63.63,0,0,0-1.24.17l-.1,2.64,1.17-.31-.89-2.08c-.18-.41-.72-.35-1-.13a1.46,1.46,0,0,0-.58.95h1.22a6.47,6.47,0,0,0-.53-1.72.64.64,0,0,0-1.15.16l-.28,1.6h1.22l-.57-1.74a.63.63,0,0,0-1.24.17l-.09,2.19,1.24-.17-.54-2.42a.63.63,0,0,0-1.15-.15,8.7,8.7,0,0,0-.93,3.81h1.27l-.08-3.52a.64.64,0,0,0-1.18-.32,6.73,6.73,0,0,0-1.11,2.34h1.22a30.43,30.43,0,0,1-1.11-8.7H944a22.85,22.85,0,0,1-.08,6.45c-.12.78,1,1.14,1.22.33l.41-1.9-1.24-.17a26.31,26.31,0,0,1-.2,4.35c-.11.8,1.11,1.14,1.22.34Z" transform="translate(-943.65 -505.26)"/><path d="M968.65,528.78l.35,2.57c0,.32.15.6-.1.83a6.54,6.54,0,0,1-.89.68c-1.29.85-2.92.5-4.3,1.14l.76,1a6,6,0,0,1,2.39-1.25A3.67,3.67,0,0,0,969,532a4.9,4.9,0,0,0,.09-3.1c-.31-1.15-1.49-1.29-2.46-.9s-1.66,1.16-2.6,1.53l.61,1a8.75,8.75,0,0,1,5-2.69l-.77-.44.21,1.29,1.06-.61-1-1.11a.63.63,0,0,0-1.07.44,1.92,1.92,0,0,0,1.88,2l-.55-.95.42-.12a.64.64,0,0,0-.87.22.65.65,0,0,0,.23.87.92.92,0,0,0,1.31-.33.64.64,0,0,0-.54-1,.65.65,0,0,1-.62-.72l-1.08.45,1,1.11a.64.64,0,0,0,.77.1.65.65,0,0,0,.29-.71l-.21-1.3a.65.65,0,0,0-.78-.44,9.79,9.79,0,0,0-5.58,3c-.39.42,0,1.3.61,1.06.93-.37,1.64-1.05,2.52-1.49.24-.12.82-.38,1-.08a2.59,2.59,0,0,1,.12.73,6.87,6.87,0,0,1,0,.79c0,1.05-.75,1.58-1.66,1.94a6.7,6.7,0,0,0-2.79,1.5.64.64,0,0,0,.76,1,9.28,9.28,0,0,1,2.46-.44,5.13,5.13,0,0,0,2.35-1.06,3.77,3.77,0,0,0,.93-.85,1.81,1.81,0,0,0,.2-1.29c-.14-1-.28-2-.41-3a.63.63,0,1,0-1.22.34Z" transform="translate(-943.65 -505.26)"/><path d="M969.63,535.92a.63.63,0,0,0,0-1.26.63.63,0,0,0,0,1.26Z" transform="translate(-943.65 -505.26)"/><path d="M968.83,532.54a.63.63,0,0,0,0-1.26.63.63,0,0,0,0,1.26Z" transform="translate(-943.65 -505.26)"/><path d="M969.44,529.3l2.85,0L972,528.1a.69.69,0,0,0-.32.75,1.31,1.31,0,0,0,.08.21l.12.15c.21.18.18.12-.08-.18l.06-.48v0l.23-.22c.24,0,.31-.06.2-.06h-.11l-.23,0-.45,0a.63.63,0,0,0-.63.63.63.63,0,0,0,.63.63,4.26,4.26,0,0,0,.94.07.69.69,0,0,0,.6-.59.72.72,0,0,0-.09-.45.88.88,0,0,0-.12-.15l-.08-.06c-.15-.13-.1,0,.16.23v.31l-.3.38,0,0a.63.63,0,0,0,.29-.71.64.64,0,0,0-.6-.46l-2.85,0a.63.63,0,1,0,0,1.26Z" transform="translate(-943.65 -505.26)"/><path d="M971.58,523.51l.14,4.49,1.07-.45a9.43,9.43,0,0,1-2-3.4l-.78.78a1,1,0,0,1,.62,1.09c0,.82,1.2.8,1.26,0l.23-2.89h-1.27l.06,4.57.63-.63h-2l.54.95,1-1.68-1.09-.64-.33.72a.64.64,0,0,0,.72.93l1-.3-.8-.61,0,.2.31-.55c.43-.28-1.15-1.09-1.46-1.06a1.36,1.36,0,0,0-1.18,1.49.63.63,0,0,0,1.17.32l1-1.57-1.09-.63-.81,1.52,1.16.49c.5-2-1.7-2.41-3.09-1.79-2.72,1.21-5.32,2.79-7.94,4.19l.63,1.09a33.57,33.57,0,0,1,7.33-3.25l-.61-1c-1.72,1.46-3.36,3-4.93,4.61a.64.64,0,0,0,.77,1,28.53,28.53,0,0,0,6.92-4.59c.53-.47-.16-1.36-.77-1a39.16,39.16,0,0,0-4.69,3.4l.89.89,3.11-3.28a.63.63,0,0,0-.89-.89L965,527.24c-.59.49.16,1.27.76,1l2-.91-.77-1-1.18.92.89.89,1.63-2c.41-.51-.12-1.42-.77-1l-1.36.92.63,1.09,1.22-.9-.86-.86a17.59,17.59,0,0,0-1.43,5.23H967a2,2,0,0,1,.65-1.06l-1-.61-.8,3.87a.63.63,0,0,0,1.21.33l1-3.79-1.24-.17.13,2.32c0,.67,1.08.9,1.24.17l.38-1.88-1.24-.16c.05.6.22,1.38-.34,1.79-.26.5-.52.44-.78-.19a3.84,3.84,0,0,1,.07-.76c.12-.66-.79-1.16-1.15-.49a10.83,10.83,0,0,0-1.31,4.79c0,.83,1.17.78,1.27,0l.58-4.55-1.24.16a6.35,6.35,0,0,1,.05,2.34c-.13.79,1.07,1.14,1.21.33l.13-.72h-1.21l.4,1.93a.63.63,0,0,0,1.24-.17l0-3.26a.63.63,0,0,0-1.24-.17l-.61,2.16,1.06-.28a2.41,2.41,0,0,1-.92-1.82.64.64,0,0,0-1.27,0l0,2.37,1.17-.32a6.62,6.62,0,0,1-.66-2.22.63.63,0,0,0-1.26,0,14,14,0,0,0,.45,4.32l1.16-.49a1.49,1.49,0,0,1-.4-.88.63.63,0,0,0-1.24.17l0,2,1.24-.17-.37-.93c-.23-.6-1.34-.6-1.24.17l.24,1.77,1.24-.17-.64-2c-.21-.64-1.34-.57-1.24.17l.24,1.91,1.24-.17a13.12,13.12,0,0,1-.31-3.85l-1.24.17.87,3.3c.21.79,1.37.45,1.22-.34a30,30,0,0,1-.54-5.6.63.63,0,0,0-1.24-.16,5,5,0,0,0,.11,3.21,7.2,7.2,0,0,0,.72,1.23.67.67,0,0,1,.28.55c.14.31.12.37-.06.19-.15,0-.47-.27-.63-.33a2.83,2.83,0,0,0-3.82,2.92.64.64,0,0,0,1.18.32l3.34-4.59-1.09-.64a30.61,30.61,0,0,0-2.79,6.07.63.63,0,0,0,1.15.48,18.89,18.89,0,0,1,2.55-3.66c.54-.61-.35-1.5-.89-.9a56.54,56.54,0,0,1-7.64,7.12l1,.77a27.11,27.11,0,0,1,4.53-5.38c.6-.57-.28-1.4-.89-.89a48.39,48.39,0,0,0-6.91,6.89.64.64,0,0,0,.77,1,18.79,18.79,0,0,0,6.61-5.92c.37-.52-.34-1.18-.86-.86a86.43,86.43,0,0,0-7.67,5.37l.89.89A23.49,23.49,0,0,1,956.8,539a.64.64,0,0,0-.64-1.1,52.21,52.21,0,0,0-5.31,3.36l.87.86,1.5-2.21c.29-.43-.2-1.13-.72-.92a15.73,15.73,0,0,0-4,2.31l.9.89,3.38-2.82c.58-.48-.16-1.28-.77-1l-4.26,2.09.77,1,2.68-2.43c.57-.51-.15-1.27-.76-1L945,540.62l.76,1a16.58,16.58,0,0,1,3.84-2.53c.64-.31.19-1.38-.49-1.15l-3.56,1.17.8.61a11,11,0,0,1,6.38-8.58c.74-.34.1-1.43-.63-1.09a12.23,12.23,0,0,0-7,9.67.63.63,0,0,0,.8.61l3.56-1.18-.49-1.15a17.59,17.59,0,0,0-4.09,2.73c-.57.51.16,1.28.77,1l5.46-2.55-.77-1-2.69,2.43c-.56.5.15,1.29.77,1l4.26-2.09-.76-1-3.39,2.82c-.63.52.27,1.38.9.89a13.78,13.78,0,0,1,3.45-2l-.71-.92-1.51,2.2c-.34.51.36,1.23.87.87A50.44,50.44,0,0,1,956.8,539l-.64-1.1a24.76,24.76,0,0,0-5.18,4.83.63.63,0,0,0,.89.89,84.09,84.09,0,0,1,7.42-5.17l-.87-.86a17.58,17.58,0,0,1-6.16,5.46l.76,1a50,50,0,0,1,6.91-6.89l-.89-.89a28,28,0,0,0-4.73,5.63c-.41.66.46,1.17,1,.77a57.85,57.85,0,0,0,7.64-7.12l-.89-.9a20.55,20.55,0,0,0-2.75,3.93l1.15.48a29.23,29.23,0,0,1,2.67-5.76c.43-.71-.62-1.28-1.09-.64l-3.34,4.59,1.17.32a1.57,1.57,0,0,1,1.12-1.76c.87-.25,1.18.27,1.86.58a1.21,1.21,0,0,0,1.63-.48,1.74,1.74,0,0,0-.26-2c-.88-1.24-1.44-2.23-1-3.81L962,530a32.85,32.85,0,0,0,.58,5.94l1.22-.34-.87-3.29a.63.63,0,0,0-1.24.16,14.38,14.38,0,0,0,.35,4.19c.16.68,1.33.55,1.24-.17l-.24-1.91-1.24.17.64,2c.2.64,1.34.57,1.24-.17l-.23-1.77-1.24.16.37.94c.24.62,1.25.6,1.24-.17l0-2-1.24.17a2.87,2.87,0,0,0,.53,1.18.63.63,0,0,0,1.15-.49,12.7,12.7,0,0,1-.41-4h-1.26a8.71,8.71,0,0,0,.83,2.86.64.64,0,0,0,1.18-.32l0-2.37h-1.27a3.79,3.79,0,0,0,1.29,2.72.64.64,0,0,0,1.06-.28l.61-2.16-1.24-.17,0,3.26,1.24-.17L965.8,532a.63.63,0,0,0-1.21,0l-.13.72,1.21.33a8.18,8.18,0,0,0,0-3c-.15-.76-1.16-.48-1.24.17l-.59,4.55h1.27a9.14,9.14,0,0,1,1.13-4.15l-1.15-.49c-.21,1.18-.09,2.89,1.5,2.9,1.82,0,2.13-2,2-3.4-.05-.67-1.09-.91-1.24-.17l-.39,1.87,1.24.17-.13-2.32a.63.63,0,0,0-1.24-.16l-1,3.79,1.21.33.81-3.86a.64.64,0,0,0-1.06-.62,3,3,0,0,0-1,2c-.07.81,1.18.79,1.27,0a15.48,15.48,0,0,1,1.25-4.59c.22-.51-.29-1.29-.86-.87l-1.22.9c-.65.47,0,1.55.63,1.09l1.37-.92-.76-1-1.63,2a.63.63,0,0,0,.89.89l1.18-.92c.61-.47-.16-1.27-.76-1l-2,.91.77,1,1.49-1.25-.89-.89-3.11,3.28a.63.63,0,0,0,.89.89,38.74,38.74,0,0,1,4.44-3.2l-.77-1a27.36,27.36,0,0,1-6.66,4.39l.77,1a67,67,0,0,1,4.92-4.61c.49-.41,0-1.23-.61-1a33.77,33.77,0,0,0-7.63,3.37.63.63,0,0,0,.63,1.09l4.38-2.32,2-1c.37-.19.73-.4,1.1-.58.21-.1,2-.93,1.74.11-.17.68.81,1.14,1.15.49l.81-1.53a.63.63,0,0,0-1.09-.63l-1,1.56,1.18.32c0-.31.57.54.63.59a1.1,1.1,0,0,0,.78.28.92.92,0,0,0,.94-.95.62.62,0,0,0-.8-.6l-1,.29.71.93.33-.72a.63.63,0,0,0-1.09-.64l-1,1.69a.64.64,0,0,0,.55,1h2a.64.64,0,0,0,.63-.64l0-4.57a.64.64,0,0,0-1.27,0L970.6,526h1.26a2.26,2.26,0,0,0-1.54-2.31c-.44-.18-.92.35-.78.78a11,11,0,0,0,2.36,4A.64.64,0,0,0,973,528l-.14-4.49c0-.81-1.29-.81-1.26,0Z" transform="translate(-943.65 -505.26)"/><path d="M947.34,538.78a15.9,15.9,0,0,1,8.08-9.3l-.76-1c-2.8,3.06-7.17,5-8.29,9.28-.14.56.65,1.13,1.06.61a46.67,46.67,0,0,1,7.5-7.5L954,530c-2.51,2.7-4.76,5.63-7,8.55-.45.59.49,1.23,1,.76l10.42-9.69-.89-.89-7.5,8.27,1,.77a60.61,60.61,0,0,1,5.37-7.8l-1-.77a55.7,55.7,0,0,1-3,5.23c-.39.6.52,1.31,1,.77l4.81-5.41c.54-.61-.31-1.47-.89-.9q-4.47,4.43-8.53,9.25c-.51.61.32,1.49.89.89a27.54,27.54,0,0,1,5.67-4.53l-.76-1-3.73,4.65.89.89,3.9-4.86a.64.64,0,0,0-.9-.9,25.06,25.06,0,0,0-4.78,5.64c-.39.62.47,1.24,1,.76a44.82,44.82,0,0,1,4.69-3.78l-.87-.86a42.91,42.91,0,0,0-2.59,3.88c-.35.59.53,1.33,1,.76a26.13,26.13,0,0,1,4.54-4.44l-.76-1a61.65,61.65,0,0,0-4.61,6l1.17.32a13.61,13.61,0,0,1,.47-3.35.64.64,0,0,0-1.06-.61,5.66,5.66,0,0,0-1.45,2.49.63.63,0,0,0,1,.62c1.9-2,3.9-4,6.54-4.95l-.71-.92c-1.17,1.85-2.42,3.66-3.73,5.42-.43.57.54,1.32,1,.76l5.36-6.76a.63.63,0,0,0-.89-.89,35.31,35.31,0,0,0-6.49,6.55c-.4.51.36,1.19.86.87a23.59,23.59,0,0,0,5.82-5.32c.49-.62-.33-1.51-.89-.89a30.39,30.39,0,0,0-3.93,5.36c-.35.6.5,1.31,1,.76q2.73-3,5.28-6.22c.5-.62-.29-1.47-.89-.9a29.2,29.2,0,0,0-3.79,4.52c-.4.6.51,1.29,1,.77a73.91,73.91,0,0,0,5.54-6.69c.39-.53-.36-1.15-.87-.86a44,44,0,0,0-6.48,4.81l.89.9,5.67-5.74c.49-.49-.17-1.44-.76-1q-3.81,2.88-7.34,6.11l1,.77a35.06,35.06,0,0,1,3.63-4.43c.58-.59-.27-1.38-.89-.89l-4.25,3.39,1,.76a44,44,0,0,1,4.58-5.07c.5-.48-.18-1.41-.77-1q-2.4,1.73-4.69,3.58l.9.89a35.41,35.41,0,0,1,6.51-4.53l-.64-1.09a27.14,27.14,0,0,0-4,3.63.63.63,0,0,0,.76,1l5.32-3-.63-1.09a29.82,29.82,0,0,0-5.07,3.73c-.62.57.27,1.38.89.9,2.11-1.64,4.3-3.16,6.55-4.59.58-.37.22-1.41-.48-1.16l-1.45.52c-.76.27-.44,1.49.33,1.22l1.45-.52-.48-1.15c-2.35,1.49-4.61,3.08-6.81,4.78l.89.9a28.65,28.65,0,0,1,4.81-3.54.63.63,0,0,0-.63-1.09l-5.32,3,.76,1a25.57,25.57,0,0,1,3.77-3.44.63.63,0,0,0-.64-1.09,36.87,36.87,0,0,0-6.77,4.73c-.62.54.27,1.39.9.89,1.44-1.17,2.92-2.29,4.43-3.38l-.77-1a47.18,47.18,0,0,0-4.77,5.32c-.47.62.48,1.17,1,.77l4.25-3.39-.89-.89a35.86,35.86,0,0,0-3.83,4.68c-.42.61.48,1.23,1,.76q3.41-3.12,7.09-5.91l-.77-1-5.67,5.73c-.58.59.28,1.41.89.9a41.86,41.86,0,0,1,6.23-4.62l-.86-.87a71.52,71.52,0,0,1-5.34,6.44l1,.76a26.14,26.14,0,0,1,3.59-4.26l-.89-.9c-1.71,2.13-3.47,4.2-5.28,6.23l1,.76a29.52,29.52,0,0,1,3.73-5.1l-.89-.89a22.81,22.81,0,0,1-5.57,5.12l.87.86a34.74,34.74,0,0,1,6.29-6.3l-.89-.89-5.36,6.76,1,.76c1.31-1.75,2.56-3.56,3.73-5.42a.63.63,0,0,0-.71-.92c-2.86,1-5,3.12-7.1,5.27l1.06.61a4.16,4.16,0,0,1,1.13-1.94l-1.06-.61a14.27,14.27,0,0,0-.51,3.68.64.64,0,0,0,1.18.32,58.25,58.25,0,0,1,4.41-5.71c.44-.51-.16-1.46-.76-1a27,27,0,0,0-4.8,4.64l1,.76a45.92,45.92,0,0,1,2.59-3.88c.38-.5-.36-1.21-.86-.86a45,45,0,0,0-4.94,4l1,.77a23.63,23.63,0,0,1,4.59-5.38l-.9-.9-3.89,4.87c-.51.62.38,1.52.89.89l3.73-4.64c.42-.53-.1-1.39-.76-1a28.82,28.82,0,0,0-5.93,4.73l.89.89q4.05-4.82,8.53-9.24l-.89-.9-4.81,5.41,1,.77a57,57,0,0,0,3-5.23c.31-.6-.51-1.35-1-.77a62.79,62.79,0,0,0-5.57,8.06c-.35.6.5,1.31,1,.76l7.49-8.27a.63.63,0,0,0-.89-.89l-10.42,9.69,1,.77c2.18-2.84,4.37-5.67,6.8-8.3A.63.63,0,0,0,954,530a45.48,45.48,0,0,0-7.5,7.5l1.05.61c1-4,5.35-5.86,8-8.72a.63.63,0,0,0-.76-1,17.16,17.16,0,0,0-8.67,10.05c-.25.77,1,1.11,1.22.34Z" transform="translate(-943.65 -505.26)"/><path d="M972.86,523.1l.13-3.79.07-1.9a6.07,6.07,0,0,0,0-1.65c-.28-1.06-1.53-1.15-2.44-1.09a5.54,5.54,0,0,0-2.86,1c-1.74,1.24-2.71,3.29-3.55,5.19s-2,4.37-1.28,6.56a.64.64,0,0,0,1.22,0,11.79,11.79,0,0,1,2.14-4.11l-1.06-.62-1.62,4c-.23.57.67,1.09,1.06.61a49,49,0,0,1,4.26-4.74l-1-.76a27.65,27.65,0,0,0-1.94,3c-.34.6.51,1.33,1,.77a32.54,32.54,0,0,0,2.13-2.82l-1.15-.49-.37,1.92c-.11.56.61,1.14,1,.61l1.5-1.77-1-.61-.93,2.32c-.23.58.67,1.11,1.05.62l1.55-2-1-.62-.47,1.42c-.22.67.86,1.14,1.16.49l1.14-2.49-1.16-.49a8.06,8.06,0,0,0,0,2.3c.1.63,1.09.58,1.22,0a39.86,39.86,0,0,0,.78-4.73c.09-.78.22-1.58.25-2.37a1.19,1.19,0,0,0-.75-1.29,2.85,2.85,0,0,0-1.78.32,7.43,7.43,0,0,0-1.75,1.06,10.45,10.45,0,0,0-2.61,3.39c-.38.72.69,1.35,1.09.64a22.78,22.78,0,0,1,4.15-5.41c.6-.58-.27-1.39-.89-.89-2.42,1.94-4.8,4.11-5.69,7.2a.64.64,0,0,0,1.16.48l2.15-3.52-1.09-.64-2.35,4.9a.63.63,0,0,0,1.09.63l2.41-3.93-1.15-.49c-.36,1.2-.78,2.39-1.25,3.55-.27.66.83,1.11,1.15.49l1.1-2.09-1.09-.64a8.88,8.88,0,0,0-.79,2.55.63.63,0,0,0,1.15.49l2-3.17c.44-.69-.63-1.3-1.09-.63a4.61,4.61,0,0,0-.76,2.22.64.64,0,0,0,1.08.45c.78-1,1.52-2,2.22-3l-1.18-.32a5.75,5.75,0,0,1-.72,2.94.63.63,0,0,0,1.09.64l1.31-2-1.18-.31-.2,1.72c-.09.73,1,.83,1.24.17l.59-2-1.24-.16v.64c0,.7,1.12.89,1.24.17.23-1.45.4-2.9.5-4.36a.63.63,0,0,0-.95-.55,13.31,13.31,0,0,0-2.71,2.31l1,.77a7.31,7.31,0,0,1,1.2-1.76c.52-.61-.34-1.5-.9-.89a19.59,19.59,0,0,0-2.37,3.14c-.4.67.46,1.18,1,.77.82-.64,1.61-1.32,2.36-2l-1-.28.28.8c.27.76,1.49.43,1.22-.33l-.29-.81a.64.64,0,0,0-1-.28,30.53,30.53,0,0,1-2.36,2l1,.76a17.52,17.52,0,0,1,2.18-2.89l-.9-.89a8.48,8.48,0,0,0-1.39,2c-.27.6.48,1.34,1,.76a12.1,12.1,0,0,1,2.46-2.11l-1-.54c-.1,1.35-.25,2.69-.46,4l1.24.16v-.64a.63.63,0,0,0-1.24-.17l-.59,2,1.24.17.2-1.72c.08-.67-.86-.79-1.17-.32l-1.31,2,1.09.64a7.18,7.18,0,0,0,.89-3.58.63.63,0,0,0-1.17-.32c-.64.95-1.31,1.87-2,2.77l1.08.44a3.28,3.28,0,0,1,.59-1.59l-1.09-.63-2,3.16,1.15.49a8,8,0,0,1,.67-2.25c.34-.73-.71-1.37-1.09-.64l-1.1,2.09,1.16.48c.47-1.16.89-2.34,1.25-3.54a.64.64,0,0,0-1.16-.49l-2.41,3.94,1.09.63,2.35-4.89a.63.63,0,0,0-1.09-.64l-2.15,3.52,1.15.49c.82-2.86,3.13-4.85,5.36-6.64l-.89-.89a23.72,23.72,0,0,0-4.35,5.66l1.09.64a10,10,0,0,1,1.88-2.67,6.39,6.39,0,0,1,1.33-1,6,6,0,0,1,.77-.36l.39-.11c.16,0,.22,0,.19-.12s0-.1,0,0,0,.25,0,.38l-.09.92-.21,1.84a36,36,0,0,1-.66,3.71h1.22a5.94,5.94,0,0,1,0-1.63c.09-.64-.82-1.21-1.15-.49L969.29,524l1.15.49.46-1.42c.19-.57-.66-1.12-1-.61l-1.55,2,1.06.61.93-2.32c.23-.59-.66-1.09-1.06-.62l-1.5,1.77,1.06.62.36-1.92a.63.63,0,0,0-1.15-.49,28.57,28.57,0,0,1-1.93,2.56l1,.77a27.78,27.78,0,0,1,1.94-3c.44-.58-.49-1.25-1-.76a50.47,50.47,0,0,0-4.27,4.74l1.06.61,1.62-4c.23-.58-.67-1.09-1-.62a13.47,13.47,0,0,0-2.47,4.67h1.22c-.57-1.76.37-3.77,1.07-5.38a13.49,13.49,0,0,1,2.7-4.54,4.47,4.47,0,0,1,2.27-1.17,3.45,3.45,0,0,1,1.24,0c.31.06.36.07.43.33a3.31,3.31,0,0,1,0,.77l-.21,6.05a.63.63,0,0,0,1.26,0Z" transform="translate(-943.65 -505.26)"/><path d="M978.5,513.55a5.47,5.47,0,0,0-6,1.56l1.08.45c0-1.78,2.18-1.94,3.47-1.62a.63.63,0,0,0,.33-1.22c-1.14-.44-1.9-1.61-2.84-2.35a14.2,14.2,0,0,0-3.49-2.13,2.22,2.22,0,0,0-1.78-.15c-.54.3-.7,1.1-.9,1.63-.54,1.47-1.07,2.95-1.57,4.44l1.22.34a8.28,8.28,0,0,1,1.59-3.11l-1.08-.45c0,1.6-.89,3.06-.77,4.68a.64.64,0,0,0,1.18.32l1.36-2.33-1.16-.49-.33,1.69a.64.64,0,0,0,1.06.62l.89-.78-1-.28a1.62,1.62,0,0,1,.06.62.63.63,0,0,0,1,.54l.59-.41-.86-.23.13.26a.64.64,0,0,0,.87.23l1.06-.71-.95-.54a.82.82,0,0,0,1.08.82l-.62-.17.13.12a.64.64,0,0,0,.89,0l2-2a.65.65,0,0,0,0-.9,25.49,25.49,0,0,0-3.81-2.62c-.51-.33-1.15-.73-1.69-.2A2.86,2.86,0,0,0,969,511a.64.64,0,0,0,1.08.45c.28-.24.94.2,1.19.32l1.38.65.39.18c.28.21.35.08.22-.38-.07,0-.52.48-.59.54l-.59.54c-.11.1-.28.32-.44.34-.36.05-.91-.51-1.17-.73s-.4-.34-.59-.53a3,3,0,0,1-.25-.25c-.18.2-.19.3,0,.32a2.35,2.35,0,0,0,.67.16l.79.21a4.87,4.87,0,0,1,1.43.38l-.29-.37,0,.09.06-.49c.11-.08.11-.09,0,0l-.24.13-.46.27c-.17.08-.59.33-.72.12s.12-.65.13-.82a1.45,1.45,0,0,0-.22-.84.64.64,0,0,0-1.18.32c0,.68.18,1.79.88,2.12a.81.81,0,0,0,.94-.16c.33-.33.2-.68.32-1.07.25-.78-1-1.11-1.22-.34,0,.12-.11.29-.07.41s.08.2.33.09c.33.09.42,0,.26-.17a7.6,7.6,0,0,1-.18-.88l-1.18.32c.17.25-.08.76-.08,1.06a1.25,1.25,0,0,0,.59,1,2.19,2.19,0,0,0,2.34-.3c.35-.19.81-.37.91-.8a.8.8,0,0,0-.55-.93,9.55,9.55,0,0,0-1.3-.34c-.55-.14-1.1-.3-1.65-.42-.8-.17-1.82.26-1.53,1.25a2.57,2.57,0,0,0,.79,1,12.35,12.35,0,0,0,1.22,1,1.7,1.7,0,0,0,2.29,0c.37-.31.72-.65,1.07-1s.69-.56.68-1-.46-.76-.88-1l-1.67-.79c-.9-.42-1.86-.88-2.72-.13l1.08.45a2.68,2.68,0,0,1,.09-.74,1.88,1.88,0,0,1,.12-.3c-.31.12-.33.22-.06.31a8,8,0,0,0,1.28.83,16.1,16.1,0,0,1,2.45,1.72V512l-2,2.05h.89l-.12-.12a.64.64,0,0,0-.62-.16l.33.06.19.45v-.11a.64.64,0,0,0-1-.55l-1.06.71.86.23-.13-.27a.64.64,0,0,0-.87-.22l-.59.41.95.55a2.53,2.53,0,0,0-.1-1,.64.64,0,0,0-1.06-.28l-.9.77,1.06.62.33-1.69a.63.63,0,0,0-1.15-.49l-1.36,2.33,1.18.32c-.13-1.6.72-3.08.77-4.68a.64.64,0,0,0-1.08-.44,9.61,9.61,0,0,0-1.92,3.66.63.63,0,0,0,1.22.34q.65-1.93,1.35-3.84c.12-.34.25-.67.37-1a1.77,1.77,0,0,1,.18-.45c0-.07,0-.07,0,0s0,.08.11.07.54.14.79.25a6.4,6.4,0,0,1,.82.43,15,15,0,0,1,2.88,2.1,7.67,7.67,0,0,0,2.54,1.91l.33-1.22a4.79,4.79,0,0,0-3.51.28,3,3,0,0,0-1.55,2.56.63.63,0,0,0,1.07.44,4.29,4.29,0,0,1,4.77-1.24c.76.28,1.09-.94.33-1.21Z" transform="translate(-943.65 -505.26)"/><path d="M964.32,524.38a.63.63,0,0,0,0-1.26.63.63,0,0,0,0,1.26Z" transform="translate(-943.65 -505.26)"/><path d="M970.24,507.93a15.76,15.76,0,0,0-4.16-1.77l-.34,1.22a9,9,0,0,1,4.18,1.68l.32-1.18a18.6,18.6,0,0,0-3.25.27c-.61.1-1.36.33-1.5,1a1,1,0,0,0,.89,1.15c1,.14,1.09-.87,1.78-1.27l-.93-.72-.91,2.89,1.22.33a8,8,0,0,1,.88-2.49l-1.18-.31-.24,2.56c-.07.75,1,.81,1.24.17l.57-1.63-1.22-.34-2.25,7.81,1.21.33A36.62,36.62,0,0,1,968,512c.22-.67-.84-1.14-1.15-.49a11,11,0,0,0-.94,6.71c.11.65,1,.54,1.22,0l1.33-4.15-1.22-.34a14,14,0,0,0-.6,3.69.63.63,0,0,0,1.24.17l.58-2.89a.63.63,0,0,0-1-.62,26.09,26.09,0,0,0-4.31,5.18l1.16.48a29.14,29.14,0,0,1,3-6.79l-1.15-.49a32.19,32.19,0,0,0-1.65,6.84h1.27a24.46,24.46,0,0,1,.9-6.58.63.63,0,0,0-1.22-.33q-1.14,3.15-2,6.39l1.22.34a23,23,0,0,1,2.09-6.59l-1.15-.48-.19,1.14,1.24.17c.15-1.33.73-2.66.42-4a2.65,2.65,0,0,0-2-2.06l-.16,1.24,2.27.29c.66.09.81-.88.32-1.17l-2-1.23-.32,1.17a1.52,1.52,0,0,0,.83-.24.64.64,0,0,0-.32-1.18l-3.79-.13c-.82,0-.8,1.19,0,1.26a16.11,16.11,0,0,0,2.69,0,.63.63,0,0,0,.17-1.24,11.79,11.79,0,0,0-7.1.17l.61,1.05.19-.22c.33-.36.15-1.13-.44-1.07-2.32.23-4.8.57-6.36,2.49a.64.64,0,0,0,.77,1,18.75,18.75,0,0,1,5.6-1.72c1.88-.16,3.73.38,5.62.23.8-.06.81-1.32,0-1.26-2.1.16-4.16-.44-6.26-.16a22.24,22.24,0,0,0-5.6,1.82l.76,1c1.35-1.66,3.47-1.92,5.47-2.12l-.45-1.08-.19.22c-.39.44,0,1.27.61,1.06a10.62,10.62,0,0,1,6.43-.17l.17-1.24a17.26,17.26,0,0,1-2.69,0v1.26l3.79.13-.32-1.17-.19.07a.64.64,0,0,0-.32,1.18l2,1.23.32-1.18-2.27-.29c-.71-.09-.86,1.09-.17,1.24,2.06.43.8,3.53.65,4.86-.08.7,1.13.87,1.24.17l.19-1.15c.1-.65-.81-1.18-1.16-.49a24.15,24.15,0,0,0-2.22,6.89c-.12.78,1,1.14,1.22.34q.86-3.25,2-6.4l-1.22-.33a26.42,26.42,0,0,0-.95,6.91c0,.84,1.17.78,1.27,0a29.7,29.7,0,0,1,1.6-6.5c.25-.69-.8-1.09-1.16-.49a31.18,31.18,0,0,0-3.11,7.1.63.63,0,0,0,1.15.49,24.87,24.87,0,0,1,4.11-4.92l-1.05-.62-.59,2.89,1.24.17a12.7,12.7,0,0,1,.56-3.35.63.63,0,0,0-1.22-.34l-1.33,4.15h1.22a9.51,9.51,0,0,1,.81-5.73l-1.16-.49a35.31,35.31,0,0,0-1.47,5.63.63.63,0,0,0,1.21.33l2.26-7.8c.23-.79-.95-1.1-1.22-.34l-.57,1.64,1.24.16.24-2.56c.06-.64-.88-.84-1.18-.32a9.22,9.22,0,0,0-1,2.79.63.63,0,0,0,1.22.33l.91-2.88a.64.64,0,0,0-.93-.72,2,2,0,0,0-.63.56,1,1,0,0,0-.18,1,2.55,2.55,0,0,1,.62-.15,15.72,15.72,0,0,1,2.91-.22.63.63,0,0,0,.32-1.17,9.9,9.9,0,0,0-4.48-1.81c-.78-.11-1.15,1-.34,1.22A14.3,14.3,0,0,1,969.6,509a.63.63,0,0,0,.64-1.09Z" transform="translate(-943.65 -505.26)"/><path d="M966.81,511.2a7.15,7.15,0,0,0-2.71-3.95l.22.86.11-.17-.54.31c.31,0,.85,2.15.92,2.51a8.12,8.12,0,0,1,0,3.22H966l-.79-3.41a8.67,8.67,0,0,0-.78-2.76,1.45,1.45,0,0,0-1.49-.69c-.93.15-1.26,1-2.07,1.35a.63.63,0,0,0,.34,1.22,1.61,1.61,0,0,0,.52-.18s.62-.4.4-.41-1.06,1.44-1.21,1.64c-.44.59.49,1.23,1,.76l2.47-2.3-.9-.89-1.39,1.79a.63.63,0,0,0,.76,1l1-.45-.86-.86-1.58,3,1.16.49a6.3,6.3,0,0,1,1.15-1.82l-1-.76-1.8,3.55c-.31.6.51,1.34,1,.76l2-2.35-1-.76-1.47,2.61,1.09.64,2.36-4.92-1.15-.48a18.42,18.42,0,0,0-1,3.17l1.22.33.07-.37c.13-.66-.82-1.17-1.15-.49a31.62,31.62,0,0,0-1.89,4.72l1.22.33a14.54,14.54,0,0,1,1.8-4.9l-1.16-.48a29.82,29.82,0,0,0-1.59,5.07.63.63,0,0,0,1.22.33l.9-2.39-1.22-.33-1.27,5.81,1.24.17a12.68,12.68,0,0,1,2-7.6l-1.15-.49a34.53,34.53,0,0,0-1,6.39.63.63,0,0,0,1.24.16,48.74,48.74,0,0,1,2.4-7.24l-1.21-.33-2,7.67,1.24.17a19.32,19.32,0,0,1-.17-3.23c0-.6,0-3.63,1-3.67l-.55-.95A13.89,13.89,0,0,0,962,517.2c-.33,2.2-.31,4.45-1,6.58-.21.67.86,1.15,1.15.49a26.91,26.91,0,0,1,3.31-5.59l-1.06-.61a62,62,0,0,0-1.7,6.14l1.22.33a21.83,21.83,0,0,1,1.48-5.19l-1.22-.34L962,525.12h1.22a16.23,16.23,0,0,1,0-4.12.64.64,0,0,0-1.18-.32c-.67,1.53-1.36,3.24-.62,4.88.1.21.48.6.52.81.2.18.1.29-.27.33l-.75.4c-.34.18-3,1.78-3.16,1.29l-.44.78a14,14,0,0,0,5.82-2.6c.53-.4.26-1.38-.49-1.15l-3.12.93-1.55.47c-.38.11-1.54.69-1.41-.23,0-.26.88-.82,1.09-1a16.72,16.72,0,0,1,1.35-1,16.92,16.92,0,0,1,2.59-1.38l-.76-1-6.71,6.31,1,.76a13.78,13.78,0,0,1,4.95-4l-.77-1L956.38,527a.63.63,0,0,0,.76,1,18.88,18.88,0,0,0,3.05-2.12l-.89-.9-2.66,2.33c-.62.54.28,1.41.89.89l2.86-2.42-.89-.89-1,.88c-.62.55.27,1.39.89.89a10.92,10.92,0,0,0,2.15-2.35c.43-.63-.48-1.2-1-.76a3.82,3.82,0,0,0-1.33,2.32.64.64,0,0,0,1.06.62l1.4-1.15-.9-.89-1,1.3a.63.63,0,0,0,.89.89l1.72-1.37a.64.64,0,0,0-.44-1.08c-2.77.28-5.53.48-8.3.62L954,526a12.49,12.49,0,0,1,5.68-2.24l-.17-1.24a53.29,53.29,0,0,0-6,2.62l.64,1.09a45.74,45.74,0,0,1,4.38-2.31c.69-.32.16-1.26-.49-1.15l-4.93.83.48,1.16a11.37,11.37,0,0,1,1.84-1.07l-.31-.55,0,.22c0,.48.69.9,1.08.44,1.72-2,4.4-2.23,6.89-2.36l-.17-1.24a41.57,41.57,0,0,0-6.81,1.93c-.74.28-.46,1.45.34,1.22l5.71-1.7-.48-1.15-1.82,1.19a.63.63,0,0,0,.48,1.15,5,5,0,0,0,2.15-.86c.55-.38.23-1.44-.48-1.16l-3.67,1.48.49,1.16,1.59-.81c.68-.35.17-1.27-.49-1.16l-2.43.43-1.21.22-.9.15a1.11,1.11,0,0,0,.71-.27c1.39-.8,2.65-1.79,4.09-2.53l-.76-1-4.19,3.37c-.57.46.16,1.32.77,1l4.7-2.59-.64-1.09-2.15,1.47a.63.63,0,0,0,.64,1.09l3.39-1.92-.76-1L960,520.26a.63.63,0,0,0,.89.89,3.31,3.31,0,0,0,1.24-2.83.64.64,0,0,0-1.08-.45l-3,2.5.89.89c.81-.94,1.79-1.63,2.63-2.5.58-.61.41-1.84.47-2.65s.32-1.69-.21-2.29a1.78,1.78,0,0,0-2-.27l.61,1.06,2.94-2.73c.44-.41,0-1.29-.62-1.06l-2.55,1,.61,1.05.63-.4A.67.67,0,0,0,962,512c.23-.76,1-1.48.36-2.28s-1.47-.11-2.28-.1l.61.8a4.86,4.86,0,0,1,1.1-1.82.64.64,0,0,0-.28-1.06c-1.37-.4-2.48.51-3.84.51s-2.49-.45-3.74.28c-.71.42-.09,1.43.64,1.09a8.6,8.6,0,0,1,4.45-.73l-.32-1.18a32.41,32.41,0,0,0-4.86,3.25c-.57.47.16,1.33.77,1a35.4,35.4,0,0,1,5.57-2.45l-.61-1.06-3.2,2.66c-.54.46.17,1.39.77,1l3.81-2.57-.77-1a17,17,0,0,0-2.65,3.15.63.63,0,0,0,.86.86l3.15-2.06-.87-.87-2.89,4.24c-.41.6.49,1.27,1,.77l2.32-2.36-1-.77a28.93,28.93,0,0,0-2.45,4.72c-.22.56.49.94.93.72l1.56-.81-.76-1-3.29,3.69a.63.63,0,0,0,.89.89l4.92-4.66a.64.64,0,0,0-.61-1.06,11.13,11.13,0,0,0-3.18,1.76c-.56.43.19,1.41.76,1l2.48-1.83-.76-1a25.76,25.76,0,0,0-4.48,5.85.63.63,0,0,0,1,.76l3.53-3.29-1-.77-1.82,2.35c-.46.6.49,1.21,1,.77l3.24-2.81-1-.76-1.28,2.27a.63.63,0,0,0,1,.76l1.27-1.11c.62-.54-.27-1.39-.89-.89L959.71,518c-.64.5.26,1.39.89.89l1.47-1.16-.89-.89L959.91,518l1,.77,1.28-2.27a.64.64,0,0,0-1-.77l-3.25,2.8,1,.77,1.82-2.35c.45-.59-.49-1.23-1-.76l-3.53,3.29,1,.76a24.78,24.78,0,0,1,4.28-5.59c.5-.49-.17-1.43-.76-1l-2.48,1.83.76,1a9.16,9.16,0,0,1,2.62-1.43L961,514l-4.92,4.67.89.89,3.29-3.69a.63.63,0,0,0-.76-1l-1.57.81.93.71a27.75,27.75,0,0,1,2.32-4.42.64.64,0,0,0-1-.77l-2.32,2.36,1,.77,2.89-4.24c.36-.52-.34-1.2-.86-.86l-3.14,2.06.86.86a15.76,15.76,0,0,1,2.45-2.89c.52-.48-.16-1.39-.76-1l-3.81,2.57.77,1,3.19-2.65a.64.64,0,0,0-.61-1.06,37.05,37.05,0,0,0-5.88,2.58l.76,1a30.63,30.63,0,0,1,4.6-3.06.63.63,0,0,0-.31-1.17,9.9,9.9,0,0,0-5.09.9l.64,1.09c1.08-.64,2.34,0,3.51-.11s2.08-.85,3.1-.55l-.28-1.05a6.37,6.37,0,0,0-1.43,2.38.64.64,0,0,0,.61.8c.29,0,.81-.28,1-.23s0,.15-.11.4a2.89,2.89,0,0,0-.24.6l.61-.46a2,2,0,0,0-1.52.77c-.34.43,0,1.31.62,1l2.55-1-.61-1.06-2.94,2.73a.64.64,0,0,0,.61,1.06c1-.33.68.73.63,1.34l-.16,2.1.32-.54a18.47,18.47,0,0,0-2.89,2.7.63.63,0,0,0,.89.89l3-2.49-1.07-.45a2.19,2.19,0,0,1-.87,1.94l.89.89,1.15-1.42c.43-.54-.1-1.37-.76-1l-3.4,1.92.64,1.09,2.15-1.47a.63.63,0,0,0-.64-1.09l-4.7,2.59.77,1,4.18-3.37c.58-.47-.16-1.3-.76-1a28.44,28.44,0,0,0-3.63,2.19c-.64.45-1.78,1.09-1.69,2s.9,1,1.57.88c1.49-.15,3-.53,4.46-.79l-.49-1.15-1.59.81c-.62.31-.18,1.42.49,1.15L962.3,522l-.48-1.15a4.31,4.31,0,0,1-1.85.73l.49,1.16,1.81-1.19a.63.63,0,0,0-.48-1.15l-5.72,1.69.34,1.22a40.07,40.07,0,0,1,6.81-1.93c.7-.13.54-1.28-.17-1.24-2.81.15-5.85.44-7.79,2.73l1.08.45c-.19-2-2.63-.16-3.44.3a.64.64,0,0,0,.48,1.16l4.94-.84-.49-1.15a45.74,45.74,0,0,0-4.38,2.31.63.63,0,0,0,.64,1.09,49.05,49.05,0,0,1,5.71-2.49c.61-.23.59-1.34-.17-1.24a13.9,13.9,0,0,0-6.32,2.41c-.47.34-.36,1.21.32,1.18,2.77-.13,5.53-.34,8.3-.62l-.45-1.08-1.72,1.38.89.89,1.05-1.3a.63.63,0,0,0-.9-.89l-1.4,1.14,1.06.62a2.75,2.75,0,0,1,1-1.77l-1-.77a9.74,9.74,0,0,1-2,2.1l.89.89,1-.88c.61-.55-.28-1.41-.89-.89l-2.86,2.42.89.89,2.66-2.32c.61-.54-.28-1.42-.89-.9a16.79,16.79,0,0,1-2.8,1.93l.77,1,2.9-2.76c.54-.51-.15-1.29-.77-1a14.89,14.89,0,0,0-5.4,4.5c-.45.59.49,1.23,1,.76l6.71-6.3c.56-.53-.15-1.26-.77-1a17.25,17.25,0,0,0-3.91,2.34c-.77.61-2.28,1.6-1.9,2.79s1.64,1.19,2.61.93c1.76-.47,3.49-1,5.23-1.57l-.49-1.15A13.14,13.14,0,0,1,957,528a.64.64,0,0,0-.44.78,1.53,1.53,0,0,0,1.94,1,9.62,9.62,0,0,0,2-1c.68-.36,1.37-.71,2.05-1.09s1.16-1.06.6-1.92a3,3,0,0,1-.73-2,7.29,7.29,0,0,1,.77-2.49l-1.17-.31a17.52,17.52,0,0,0,.06,4.46c.09.67,1,.51,1.22,0l2.17-6.11c.27-.78-.92-1.06-1.22-.34a21.91,21.91,0,0,0-1.48,5.2c-.12.78,1,1.14,1.22.33a62.76,62.76,0,0,1,1.7-6.14c.19-.57-.66-1.11-1.05-.61a27.7,27.7,0,0,0-3.51,5.84l1.16.49c1.24-4,.44-8.26,2.8-11.87a.63.63,0,0,0-.54-.95c-1.52.06-1.84,1.49-2,2.75a18.86,18.86,0,0,0,0,5.41c.09.66,1,.92,1.24.17l2-7.68c.22-.81-.91-1.06-1.21-.33a49.57,49.57,0,0,0-2.41,7.24l1.24.17a33.41,33.41,0,0,1,.94-6,.63.63,0,0,0-1.15-.49,13.87,13.87,0,0,0-2.19,8.24c0,.68,1.08.89,1.24.16l1.27-5.81a.63.63,0,0,0-1.22-.33l-.9,2.39,1.22.33a30.11,30.11,0,0,1,1.59-5.07c.28-.67-.8-1.08-1.15-.48a15.34,15.34,0,0,0-1.93,5.2.63.63,0,0,0,1.22.33A29,29,0,0,1,964,513l-1.16-.49-.07.38c-.15.79,1,1.13,1.22.33a17.55,17.55,0,0,1,1-3.17c.27-.66-.84-1.13-1.15-.49l-2.36,4.92c-.35.73.68,1.36,1.09.64l1.47-2.62c.34-.6-.52-1.33-1-.76l-2,2.35,1,.76,1.8-3.54c.31-.61-.49-1.33-1-.77a8.55,8.55,0,0,0-1.47,2.37c-.28.66.83,1.12,1.15.49l1.58-3a.63.63,0,0,0-.86-.86l-1,.45.76,1,1.4-1.79c.48-.62-.28-1.46-.9-.89l-2.46,2.3,1,.77c.52-.7,2-2.05,1.29-3s-1.64-.06-2.43.11l.34,1.22a3.54,3.54,0,0,0,1.11-.72.89.89,0,0,1,1.18-.15,3.88,3.88,0,0,1,.26,1.08l1,4.41a.64.64,0,0,0,1.22,0,9.58,9.58,0,0,0-.4-5.43c-.33-.83-1.38-2.91-2.35-1.4a.65.65,0,0,0,.23.86,5.78,5.78,0,0,1,2.13,3.19.63.63,0,0,0,1.22-.33Z" transform="translate(-943.65 -505.26)"/><path d="M960.71,515.3a19.1,19.1,0,0,0-5.17,2.32l.76,1A22.41,22.41,0,0,0,960,515c.37-.46,0-1.24-.61-1.05a26.05,26.05,0,0,0-5.12,2.28l.77,1,3.14-3.74c.37-.45,0-1.27-.61-1.06a5.12,5.12,0,0,0-1.79,1c-.55.47.16,1.34.77,1l2.6-1.49-.77-1a16.44,16.44,0,0,0-2.15,2.34l1.09.64c.49-.79,2.07-2.84,1.07-3.72a1.2,1.2,0,0,0-1.48.07c-.81.5-1.56,1.15-2.33,1.71l.76,1,2.72-2.22c.56-.45-.17-1.4-.76-1l-3.15,2.15.87.86,1.64-2.39c.35-.51-.35-1.23-.86-.87l-1.72,1.23c-.65.47-.07,1.53.64,1.09l2.14-1.32a.63.63,0,0,0-.64-1.09L954,511.6l.86.87,1.84-3.06c.27-.44-.18-1.15-.71-.93a12.64,12.64,0,0,0-3.06,1.77l.9.89,1.54-1.49c.53-.5-.14-1.32-.77-1l-2,1.06.86.86.48-1a.64.64,0,0,0-.71-.93,6.17,6.17,0,0,0-2.23,1l.87.86a5.38,5.38,0,0,0,.68-1.53.64.64,0,0,0-.93-.71,20.8,20.8,0,0,0-7.38,5.8.63.63,0,0,0,.76,1c2.36-1.26,4-3.81,6.8-4.23l-.62-1.05-3,2.56c-.54.46.18,1.41.76,1l4.76-3.45-.86-.86-3,4.64c-.39.6.49,1.27,1,.76l3.81-4-1-.76a17.3,17.3,0,0,0-1.78,3.31c-.3.72.76,1,1.15.48l2.27-2.95-1.09-.64a42.51,42.51,0,0,0-2.34,5.73l1.24.17a1.49,1.49,0,0,1,.52-1.48l-.93-.71-.44,3c-.1.64.83,1.21,1.15.49l1.8-4.06-1.15-.49-.94,3.11c-.2.67.85,1.15,1.16.48a16.34,16.34,0,0,1,2.15-3.53l-1-.62-.69,3,1.24.17.06-.79-.95.54a3,3,0,0,0,3.91-.66l-1-.76a28.52,28.52,0,0,1-3.11,5.41l1.06.61a16.31,16.31,0,0,1,1.9-3.6c.41-.58-.53-1.32-1-.77a20.15,20.15,0,0,0-2.66,4.06l1.09.64.78-1.66-1.16-.49-1.09,3.32,1.24.16a6.25,6.25,0,0,1,1.56-3.44l-1-.62-1.31,3.94,1.21.33a8.07,8.07,0,0,1,1.57-2.78l-1-.62-.62,1.86a4.69,4.69,0,0,1-1,1.71l-2.61,3.2,1.06.61a17.87,17.87,0,0,1,2.22-3.95c.44-.6-.49-1.22-1-.76a16.75,16.75,0,0,0-2.37,2.87l1.18.32a19.14,19.14,0,0,1,1.82-5.85c.26-.62-.46-1.33-1-.77a8.62,8.62,0,0,0-2,3.41.63.63,0,0,0,1.15.48,27,27,0,0,1,2.49-3.94l-1-.61a41.64,41.64,0,0,0-1.23,4.89c-.15.79,1,1.14,1.22.34l.86-4.05a.63.63,0,0,0-1.15-.48,17.2,17.2,0,0,0-1.64,4.2l1.24.17a11.42,11.42,0,0,1,.59-4.92c.25-.72-.77-1-1.16-.49a6.17,6.17,0,0,0-1.08,2.84c-.08.64.9.82,1.18.31l1.75-3.1-1.09-.64-1.1,2.36,1.17.32V517a.64.64,0,0,0-.95-.55,12,12,0,0,0-2.24,1.92l1.08.44-.14-2.31c0-.58-.88-.92-1.18-.32a6.7,6.7,0,0,0-.7,2.67.63.63,0,0,0,1.17.32,29.65,29.65,0,0,0,1.89-4.23l-1.24-.17-.19,2.17h1.26l0-1.72h-1.26l0,1.23h1.26a16.85,16.85,0,0,1,.32-3.47c.13-.66-.8-1.15-1.15-.48a10.25,10.25,0,0,0-1.09,3.15l1.24.16a10,10,0,0,1,.59-2.81c.24-.67-.85-1.14-1.15-.49a21.33,21.33,0,0,0-1.51,4.37h1.22a9,9,0,0,1-.27-2.19.63.63,0,0,0-1.24-.17,12.32,12.32,0,0,0-.73,2.52h1.22a5.94,5.94,0,0,1,.4-2.35,3.55,3.55,0,0,1,1.22-1.92.63.63,0,0,0-.12-1,1.89,1.89,0,0,0-2.31.4,2.35,2.35,0,0,0-.23,2.57c.26.62,1.16.25,1.18-.32l.13-3.21a.64.64,0,0,0-1.18-.31,8.27,8.27,0,0,0-.9,4.06l1.18-.32a3.21,3.21,0,0,1-.47-1.84.64.64,0,0,0-1-.54l-2.24,1.23c-.6.33-1.35.63-1.64,1.29a4.89,4.89,0,0,0-.09,2.19l.12,2.73a.63.63,0,0,0,1.24.17L947,513.9a.64.64,0,0,0-1.16-.49,3.59,3.59,0,0,0-.92,2.17,1,1,0,0,0,1.13.87c.73-.13,1.21-1,1.64-1.48l2-2.36-1-.76-1.75,4.06,1.09.64,1-2.33-1.17-.31a18.9,18.9,0,0,0,0,3c.05.68,1.06.89,1.24.17l.55-2.22-1.24-.17.08,3.17,1.24-.17c-.19-.78-.65-1.62-1.55-1.66a1.27,1.27,0,0,0-1.36,1.24l1.24-.17-.2-1.24a.64.64,0,0,0-1.22,0l-.42,2.25h1.22L947,516.9a.63.63,0,0,0-1.24.16l-.16,1.47h1.26a7.87,7.87,0,0,1,.09-2.42l-1.24-.17a20.47,20.47,0,0,0,.8,4.11.63.63,0,0,0,1.22-.33,13.69,13.69,0,0,1,0-3.56l-1.24.17.54,4c.09.7,1.28.54,1.24-.17a9.18,9.18,0,0,1,.13-2.34h-1.21l.72,1.93a.63.63,0,0,0,1.22-.33l-.09-.35a.63.63,0,0,0-1.22.34l.49,2a.63.63,0,0,0,1.24-.16,29,29,0,0,1,.45-4.05l-1.24-.16,0,3.42a.63.63,0,0,0,1.26,0,7.85,7.85,0,0,1,.51-2.34l-1.24-.17.32,3.28a.64.64,0,0,0,1.27,0,9.39,9.39,0,0,1,.54-3h-1.22l.46,3.28c.11.73,1.22.51,1.24-.17l.12-2.87-1.24.17.38,2.44c.12.74,1.2.5,1.24-.16l.22-3.41h-1.26l.19,3c0,.81,1.31.81,1.26,0l-.19-3a.63.63,0,0,0-1.26,0l-.22,3.41,1.24-.17-.38-2.45c-.12-.73-1.21-.51-1.24.17l-.12,2.87,1.24-.17-.46-3.28c-.1-.67-1-.52-1.22,0a10.44,10.44,0,0,0-.59,3.31h1.27l-.33-3.28a.63.63,0,0,0-1.24-.17,9.14,9.14,0,0,0-.55,2.68H950l0-3.42c0-.7-1.1-.89-1.24-.17a32.08,32.08,0,0,0-.49,4.38l1.24-.17-.49-2-1.22.34.09.34,1.22-.33-.73-1.94c-.19-.53-1.09-.67-1.21,0a11,11,0,0,0-.19,2.68l1.24-.16-.54-4c-.1-.77-1.16-.48-1.24.16a15.35,15.35,0,0,0,.07,3.89l1.22-.33a18.77,18.77,0,0,1-.76-3.78c-.05-.65-1.09-.92-1.24-.16a9.39,9.39,0,0,0-.13,2.75.63.63,0,0,0,1.26,0l.16-1.47-1.24.17.37,1.23c.17.55,1.1.64,1.22,0l.42-2.25h-1.22l.2,1.24c.12.72,1.22.51,1.24-.17,0,.12.11.2.27.25a2.16,2.16,0,0,1,.16.51.64.64,0,0,0,1.24-.17l-.08-3.17a.63.63,0,0,0-1.24-.17l-.55,2.22,1.24.17a18.9,18.9,0,0,1,0-3c0-.61-.93-.9-1.18-.32l-1,2.32c-.32.74.77,1.38,1.09.64l1.75-4.06c.26-.6-.48-1.37-1-.77l-2.07,2.48c-.16.2-.32.4-.49.59s-.52.34-.19.49.32-.28.46-.54a6.28,6.28,0,0,1,.45-.69l-1.15-.48-1.52,5.93,1.24.17-.09-2.12a9.86,9.86,0,0,1-.08-1.95c.1-.68,1-1,1.55-1.27l1.85-1-1-.55a4.41,4.41,0,0,0,.64,2.48.63.63,0,0,0,1.17-.32,7,7,0,0,1,.73-3.43l-1.18-.32-.12,3.21,1.17-.31c-.22-.52,0-1.66.81-1.25l-.13-1a4.66,4.66,0,0,0-1.58,2.59,7.53,7.53,0,0,0-.37,2.9.64.64,0,0,0,1.22,0,11.63,11.63,0,0,1,.73-2.51l-1.24-.17a10.25,10.25,0,0,0,.31,2.53.64.64,0,0,0,1.22,0,18.78,18.78,0,0,1,1.38-4.07l-1.16-.49a11.75,11.75,0,0,0-.63,3.15c-.05.71,1.12.88,1.24.17a9.06,9.06,0,0,1,1-2.85l-1.16-.48a17.93,17.93,0,0,0-.36,3.8.63.63,0,0,0,1.26,0l0-1.23a.63.63,0,0,0-1.26,0l0,1.72c0,.83,1.19.8,1.26,0l.19-2.17c.07-.75-1-.8-1.24-.17a27.1,27.1,0,0,1-1.76,3.93l1.18.32a5.09,5.09,0,0,1,.53-2l-1.17-.32.14,2.31a.64.64,0,0,0,1.08.45,10.16,10.16,0,0,1,2-1.72l-1-.54v1.42c0,.6.9.91,1.18.32l1.1-2.36c.33-.72-.69-1.36-1.09-.64l-1.75,3.11,1.18.32a4.76,4.76,0,0,1,.91-2.2l-1.16-.49a12.37,12.37,0,0,0-.63,5.26c.06.67,1.06.91,1.24.17a15.76,15.76,0,0,1,1.51-3.91l-1.16-.48-.86,4,1.22.34a40.67,40.67,0,0,1,1.23-4.89c.18-.57-.66-1.13-1.06-.62a27.9,27.9,0,0,0-2.69,4.19L953,521a7.23,7.23,0,0,1,1.68-2.85l-1-.76a21.15,21.15,0,0,0-2,6.49c-.06.68.85.78,1.17.32a15.19,15.19,0,0,1,2.17-2.62l-1-.76a19,19,0,0,0-2.35,4.25c-.23.57.66,1.09,1.05.61l2.91-3.57a4.36,4.36,0,0,0,.91-1.61l.7-2.14a.63.63,0,0,0-1.05-.62,9.52,9.52,0,0,0-1.89,3.35c-.25.77,1,1.1,1.21.33l1.31-3.93a.64.64,0,0,0-1-.62,7.78,7.78,0,0,0-1.93,4.34c-.09.74,1,.81,1.24.17l1.09-3.31c.22-.67-.85-1.14-1.15-.49l-.78,1.66c-.34.73.73,1.37,1.09.64a18.32,18.32,0,0,1,2.46-3.8l-1-.77a17.65,17.65,0,0,0-2,3.9c-.21.58.67,1.11,1.06.62a30,30,0,0,0,3.3-5.67c.29-.59-.51-1.36-1-.76a1.79,1.79,0,0,1-2.38.46.64.64,0,0,0-1,.55l-.07.79a.64.64,0,0,0,1.24.17l.69-3c.13-.56-.63-1.14-1-.62a18,18,0,0,0-2.35,3.8l1.15.48.93-3.1c.21-.67-.85-1.16-1.15-.49l-1.8,4.06,1.16.49.44-3c.07-.46-.43-1.09-.93-.71a2.72,2.72,0,0,0-1.15,2.57.63.63,0,0,0,1.24.17,40.15,40.15,0,0,1,2.22-5.43.63.63,0,0,0-1.09-.64l-2.27,3,1.15.48a16.85,16.85,0,0,1,1.66-3c.4-.6-.5-1.28-1-.77l-3.8,4,1,.76,3-4.63c.33-.51-.35-1.24-.87-.87l-4.76,3.45.77,1,3-2.56c.53-.46-.06-1.14-.62-1.06-2.92.44-4.63,3-7.1,4.36l.77,1a20,20,0,0,1,7.13-5.6l-.93-.71a4.2,4.2,0,0,1-.55,1.22c-.33.51.35,1.24.86.87a5.09,5.09,0,0,1,1.92-.88l-.71-.93-.48,1a.64.64,0,0,0,.86.87l2-1.06-.76-1-1.55,1.49c-.6.58.28,1.37.9.89a10.36,10.36,0,0,1,2.5-1.44l-.72-.93-1.84,3.06a.63.63,0,0,0,.86.86l2.24-1.21-.64-1.09-2.14,1.32.64,1.09,1.71-1.23-.86-.86-1.64,2.39a.64.64,0,0,0,.86.87l3.15-2.15-.77-1-2.72,2.22c-.55.45.19,1.42.77,1l1.16-.85c.14-.11,1.18-.74,1.17-.86,0-.31-.34.15-.35.17a4.89,4.89,0,0,0-.26.51c-.22.43-.46.84-.71,1.24-.45.71.61,1.26,1.09.64a14.89,14.89,0,0,1,2-2.09c.54-.48-.16-1.34-.77-1l-2.6,1.49.76,1a3.62,3.62,0,0,1,1.23-.68l-.61-1.06-3.14,3.75a.63.63,0,0,0,.76,1,25,25,0,0,1,4.81-2.16l-.61-1a23.22,23.22,0,0,1-3.71,3.64c-.57.44.17,1.37.77,1a18,18,0,0,1,4.86-2.19.63.63,0,0,0-.33-1.22Z" transform="translate(-943.65 -505.26)"/><path d="M954.68,516.2a.64.64,0,0,0,0-1.27.64.64,0,0,0,0,1.27Z" transform="translate(-943.65 -505.26)"/><path d="M953.67,527.37c-1.23,1.94-3.5,2.84-5.15,4.36a12.54,12.54,0,0,0-3.46,5.54l1.24.17a29.52,29.52,0,0,0-.21-3.39,1.38,1.38,0,0,0-1.39-1.29l.63.63,0-2.48h-1.26a10.63,10.63,0,0,0,.94,3.23c.26.54,1,.32,1.16-.15l.36-1h-1.22l.45,2.76c.11.71,1.28.54,1.24-.16-.14-2.28,1.4-4,2.85-5.55l-1-.76-1.56,3.45a.63.63,0,0,0,1.09.64,20.92,20.92,0,0,1,4.72-5.25l-.89-.9-2.86,3.2a.63.63,0,0,0,.89.89l2.65-2.55-1.08-.45a1.16,1.16,0,0,1-.21.68l1.15.49a9.06,9.06,0,0,0,.39-3.87c-.06-.47-.7-.93-1.08-.44l-.24.3,1,.13a4.85,4.85,0,0,1-.41-2.09c0-.57.28-1.11.3-1.68a1.32,1.32,0,0,0-1.44-1.36c-.54,0-1,.34-1.52.25s-1-.69-1.39-1.13a3.69,3.69,0,0,0-1.22-1c-.32-.14-.93,0-1.17-.23l.31.55,0-.21a.63.63,0,0,0-1.07-.44,3.27,3.27,0,0,0-1,3.28.64.64,0,0,0,1.16.15l1.48-2.34-1.17-.32a15.54,15.54,0,0,1-.27,2.89c-.15.79,1,1.13,1.22.33a12.73,12.73,0,0,1,1-2.8l-1.17-.32-.05,3.44a.63.63,0,0,0,1.24.17,1.44,1.44,0,0,1,.73-.89l-.93-.71-.61,3.48,1.24.16a8.81,8.81,0,0,1,.47-3.81l-1.21-.34c-.4,1.52-.66,3.33.72,4.44a.64.64,0,0,0,1.08-.45c.14-1.43.22-2.86.22-4.29h-1.26l.19,4.51a.63.63,0,0,0,1.26,0,21,21,0,0,1,.44-3.53h-1.22l.6,2.65a.63.63,0,0,0,1.24-.16,10.91,10.91,0,0,1,.41-3.46l-1.24-.17c0,1.3,0,2.6,0,3.9a.63.63,0,0,0,1.26,0,12.18,12.18,0,0,1,.61-3.49l-1.24-.17a17,17,0,0,0,.32,5.32q.15.66.36,1.29c.11.35.44.9.35,1.27s-.64.54-1,.73l-1.46.79.86.86a22.9,22.9,0,0,1,3.46-4.15l-.89-.9-2.72,2.85,1.06.62a26.7,26.7,0,0,1,1.31-3.12c.3-.61-.49-1.33-1-.77l-2,2.28,1,.76a28.17,28.17,0,0,1,1.84-3.53c.36-.59-.53-1.33-1-.76l-1.85,2.27,1.08.44a5.45,5.45,0,0,1,.58-2.2c.23-.44-.16-1.15-.71-.93a3.43,3.43,0,0,0-1.42,1l1,.76.31-.49a.64.64,0,0,0-.55-.95,1.41,1.41,0,0,0-1.36,1.32,22.86,22.86,0,0,0,0,3.88.63.63,0,0,0,1.26,0,4.72,4.72,0,0,1,.82-2.23l-1.18-.32.12,2.16,1.24-.17-.2-.62a.64.64,0,0,0-1.16-.15l-1.3,2.07,1.16.15a1.13,1.13,0,0,1,0-.79l-1.24-.17a5.72,5.72,0,0,1-1.72,3.34l1.07.44a3.13,3.13,0,0,0-.77-1.94,3.89,3.89,0,0,1-.85-2.61c0-.93,0-1.87,0-2.81,0-.37-.27-2.74.1-2.89l-.8-.61,0,1.6a.64.64,0,0,0,1.18.32,2.35,2.35,0,0,1,.7-.74l-1-.54.24,2.44a.64.64,0,0,0,1.27,0,6.78,6.78,0,0,1,.45-1.73l-1.24-.17.12,3.14a.63.63,0,0,0,1.07.45l.86-.75-1.06-.27c.27,1.78.53,3.84-.92,5.2l.62-.16c-1-.36-1.19-2.43-1.25-3.31a9.37,9.37,0,0,1,.51-3.64h-1.22l.7,5c.11.73,1.23.52,1.24-.16l.07-2.81c0-.83-1.18-.79-1.26,0a17.42,17.42,0,0,0,.15,4.73c.11.63,1.07.57,1.22,0a15.93,15.93,0,0,0,.48-4.77.63.63,0,0,0-1.26,0,13.24,13.24,0,0,0,.51,4.15.63.63,0,0,0,1.22-.34,11.94,11.94,0,0,1-.47-3.81h-1.26a14.46,14.46,0,0,1-.44,4.44H947a16.22,16.22,0,0,1-.11-4.4h-1.26l-.07,2.81,1.24-.17-.7-5c-.09-.67-1-.53-1.22,0a10.43,10.43,0,0,0-.41,5.14c.23,1.32.65,2.86,2,3.36a.65.65,0,0,0,.62-.17c1.8-1.7,1.57-4.19,1.24-6.43-.08-.51-.74-.56-1.06-.28l-.85.75,1.08.44-.12-3.14a.63.63,0,0,0-1.24-.17,8.69,8.69,0,0,0-.5,2.07h1.27l-.24-2.44c-.05-.44-.52-.84-1-.55a3.87,3.87,0,0,0-1.16,1.19l1.17.32,0-1.6a.63.63,0,0,0-.8-.61,1.65,1.65,0,0,0-1,1.7c0,1.21,0,2.43,0,3.64a15.4,15.4,0,0,0,.13,3.11c.24,1.11,1.49,1.91,1.51,3a.64.64,0,0,0,1.08.45,7.06,7.06,0,0,0,2.09-4.23c.09-.71-1.09-.86-1.24-.17a3,3,0,0,0,0,1.47.64.64,0,0,0,1.15.15l1.3-2.07-1.15-.15.2.62c.21.64,1.28.57,1.24-.17l-.12-2.16a.63.63,0,0,0-1.17-.32,6.13,6.13,0,0,0-1,2.87h1.26c0-.35-.18-3.92.09-3.93l-.54-1-.31.49c-.38.59.51,1.31,1,.76a2.17,2.17,0,0,1,.87-.65l-.72-.93a6.9,6.9,0,0,0-.75,2.84.63.63,0,0,0,1.07.45l1.86-2.27-1-.77a27.62,27.62,0,0,0-1.84,3.54c-.26.6.47,1.34,1,.76l2-2.27-1-.77a30.16,30.16,0,0,0-1.44,3.42.63.63,0,0,0,1.05.62l2.72-2.85a.63.63,0,0,0-.89-.9,24.24,24.24,0,0,0-3.66,4.42c-.35.55.34,1.15.87.86a12.46,12.46,0,0,0,2.74-1.54c.65-.64.36-1.45.1-2.2a15.78,15.78,0,0,1-.79-6.75c.07-.74-1-.82-1.24-.17a13.85,13.85,0,0,0-.65,3.83h1.26c-.08-1.3-.09-2.6,0-3.9a.63.63,0,0,0-1.24-.16,12.13,12.13,0,0,0-.46,3.79l1.24-.17L950,521a.64.64,0,0,0-1.22,0,22.76,22.76,0,0,0-.48,3.86h1.26l-.19-4.51a.63.63,0,0,0-1.26,0c0,1.43-.08,2.86-.22,4.29l1.08-.44c-1-.82-.69-2.11-.41-3.21a.63.63,0,0,0-1.21-.34,9.44,9.44,0,0,0-.52,4.15c.06.65,1.1.93,1.24.17l.61-3.47a.64.64,0,0,0-.93-.72,2.72,2.72,0,0,0-1.3,1.65l1.24.16,0-3.44a.64.64,0,0,0-1.18-.32,13.7,13.7,0,0,0-1.1,3.11l1.22.33a17.31,17.31,0,0,0,.31-3.22.64.64,0,0,0-1.18-.32l-1.48,2.35,1.15.15a2,2,0,0,1,.67-2.06l-1.08-.45c.17,1.31,1.31.67,2.08,1.33s1.29,1.72,2.41,2c.55.12.92-.13,1.44-.2s.44-.15.45.31a7.72,7.72,0,0,1-.16.78,6.12,6.12,0,0,0,.52,3.34.64.64,0,0,0,1,.13l.24-.31-1.08-.45a8,8,0,0,1-.34,3.53.64.64,0,0,0,1.16.49,3.06,3.06,0,0,0,.39-1.32.64.64,0,0,0-1.08-.44l-2.65,2.55.89.89,2.86-3.19a.63.63,0,0,0-.89-.9,21.91,21.91,0,0,0-4.92,5.51l1.09.64,1.56-3.46c.28-.61-.46-1.33-1-.76-1.68,1.8-3.39,3.81-3.23,6.44l1.24-.17-.44-2.77c-.11-.67-1-.52-1.22,0l-.36,1,1.15-.15a8.76,8.76,0,0,1-.77-2.6c-.1-.78-1.25-.84-1.26,0l0,2.48a.63.63,0,0,0,.63.63c.3,0,.32,3.07.34,3.42a.63.63,0,0,0,1.24.16,11.24,11.24,0,0,1,3.85-5.58c1.64-1.27,3.49-2.21,4.63-4,.44-.69-.65-1.33-1.09-.64Z" transform="translate(-943.65 -505.26)"/><path class="cls-1" d="M970.4,525.66H973v.57h-.94v2.95h-.71v-2.95h-.94Z" transform="translate(-943.65 -505.26)"/><path class="cls-1" d="M949.89,564.5c.85,0,1.27.49,1.27,1.08a1,1,0,0,1-.8,1l.84,1.43h-.82l-.78-1.38h-.33V568h-.71V564.5Zm0,.59h-.59v1h.59c.4,0,.57-.2.57-.52S950.26,565.09,949.86,565.09Z" transform="translate(-943.65 -505.26)"/><path class="cls-1" d="M953.92,560.68h-1.4l-.24.68h-.74l1.27-3.53h.82l1.27,3.53h-.75Zm-.7-2-.51,1.48h1Z" transform="translate(-943.65 -505.26)"/><path class="cls-1" d="M957.41,553.72h-.59v1.36h-.71v-3.53h1.3c.85,0,1.27.48,1.27,1.09S958.32,553.72,957.41,553.72Zm0-.57c.4,0,.58-.2.58-.51s-.18-.51-.58-.51h-.56v1Z" transform="translate(-943.65 -505.26)"/><path class="cls-1" d="M961.73,547.08h-1.51v1.5h-.71v-3.53h.71v1.45h1.51v-1.45h.71v3.53h-.71Z" transform="translate(-943.65 -505.26)"/><path class="cls-1" d="M964.48,542.27a1.81,1.81,0,1,1,1.8-1.8A1.76,1.76,0,0,1,964.48,542.27Zm0-.63a1.17,1.17,0,1,0-1.08-1.17A1.06,1.06,0,0,0,964.48,541.64Z" transform="translate(-943.65 -505.26)"/><path class="cls-1" d="M968.53,532.13v3h1.16v.56h-1.86v-3.53Z" transform="translate(-943.65 -505.26)"/><path class="cls-1" d="M944.43,571.06H947v.57h-.94v3h-.71v-3h-.94Z" transform="translate(-943.65 -505.26)"/><path class="cls-2" d="M977.25,514.62a3.3,3.3,0,0,0-1,0,4.58,4.58,0,0,0-2.86,1.67v12.76h5.81V515.46A4.22,4.22,0,0,0,977.25,514.62Z" transform="translate(-943.65 -505.26)"/><path class="cls-2" d="M979.34,529.15h-6v-12.9l0,0a4.72,4.72,0,0,1,2.93-1.72,4.59,4.59,0,0,1,1,0h0a4.3,4.3,0,0,1,2,.86l0,0Zm-5.81-.21h5.6V515.51a4.06,4.06,0,0,0-1.89-.79h0a3.62,3.62,0,0,0-.93,0,4.44,4.44,0,0,0-2.78,1.61Z" transform="translate(-943.65 -505.26)"/><path d="M997,528h19.86v4.38h-7.22v22.7h-5.43v-22.7H997Z" transform="translate(-943.65 -505.26)"/><path d="M1026.24,555.08h-5.44V533.59h5.44v3.33a7.43,7.43,0,0,1,6.59-3.64V539h-1.44c-3.22,0-5.15,1.24-5.15,5.39Z" transform="translate(-943.65 -505.26)"/><path d="M1044.9,533.24a8.49,8.49,0,0,1,7.09,3.41v-3.06h5.47v21.49H1052v-3.15a8.47,8.47,0,0,1-7.13,3.49c-5.43,0-9.78-4.46-9.78-11.17S1039.43,533.24,1044.9,533.24Zm1.39,4.77c-2.91,0-5.66,2.17-5.66,6.24s2.75,6.4,5.66,6.4,5.7-2.25,5.7-6.32S1049.28,538,1046.29,538Z" transform="translate(-943.65 -505.26)"/><path d="M1075.31,533.24c5.51,0,9.81,4.3,9.81,11s-4.3,11.17-9.81,11.17a8.76,8.76,0,0,1-7.1-3.41v13.31h-5.43V533.59h5.43v3.1A8.59,8.59,0,0,1,1075.31,533.24Zm-1.44,4.77c-2.91,0-5.66,2.25-5.66,6.32s2.75,6.32,5.66,6.32,5.71-2.32,5.71-6.4S1076.82,538,1073.87,538Z" transform="translate(-943.65 -505.26)"/><path d="M1089.08,526.37h5.43v9.89a8.26,8.26,0,0,1,6.67-3c4.85,0,8.38,3.25,8.38,9.19v12.61h-5.43V543.21c0-3.46-1.9-5.32-4.77-5.32s-4.85,1.86-4.85,5.32v11.87h-5.43Z" transform="translate(-943.65 -505.26)"/><path d="M1124.27,555.42c-6.21,0-10.9-4.34-10.9-11.09s4.85-11.09,11.05-11.09,11.06,4.3,11.06,11.09S1130.51,555.42,1124.27,555.42Zm0-4.73c2.87,0,5.62-2.09,5.62-6.36s-2.68-6.36-5.55-6.36-5.46,2.06-5.46,6.36S1121.36,550.69,1124.27,550.69Z" transform="translate(-943.65 -505.26)"/><path d="M1139.48,526.37h5.43v28.71h-5.43Z" transform="translate(-943.65 -505.26)"/><path d="M1151.11,538.05h-2.56v-4.46h2.56v-5.32h5.47v5.32h4.81v4.46h-4.81v10.39c0,1.44.58,2.06,2.29,2.06h2.52v4.58H1158c-4.11,0-6.87-1.75-6.87-6.68Z" transform="translate(-943.65 -505.26)"/></svg>