<svg id="Layer_1" data-name="Layer 1" xmlns="http://www.w3.org/2000/svg" viewBox="0 0 84.81 165.97"><defs><style>.cls-1{isolation:isolate;}.cls-2{fill:#fff;}.cls-3{fill:#f4dc23;}</style></defs><path d="M10.1,166H0V21.65l.18-.21C6,14.5,18.47,2.53,36.26.36a48,48,0,0,1,12.1,0c17.89,2.3,30.37,14.16,36.22,21l.18.21v3.52l-1.2-.9a9.7,9.7,0,0,0-4.3-1.8,8.51,8.51,0,0,0-2.14,0,10.62,10.62,0,0,0-6.48,3.66V56.58H84.76v2H64V73.85H55v15.4H46v15.34H37v15.35H28v15.34H19.1v15.33h-9Zm-8.6-1.5H8.6V149.11h9V133.78h8.94V118.44h9V103.09h9V87.75h8.94V72.35h9V57h6.66V25.59l.16-.21A12.12,12.12,0,0,1,76.89,21h0a9.54,9.54,0,0,1,2.56,0,11.08,11.08,0,0,1,3.79,1.3V22.2C77.48,15.47,65.38,4.11,48.16,1.89a47.38,47.38,0,0,0-11.72,0C19.33,3.93,7.27,15.39,1.5,22.19Z" transform="translate(0 0)"/><rect x="18.32" y="149" width="66.48" height="1.5" transform="translate(-0.49 0.17) rotate(-0.19)"/><rect x="8.16" y="164.43" width="76.64" height="1.5" transform="translate(-0.22 0.06) rotate(-0.07)"/><rect x="27.27" y="133.55" width="57.53" height="1.5" transform="translate(-1.05 0.44) rotate(-0.45)"/><rect x="63.91" y="84.57" width="1.5" height="38.75" transform="translate(-39.64 168.03) rotate(-89.69)"/><path d="M24.32,50.18a19,19,0,0,1,4.25-8l-2.36-1.86A38.84,38.84,0,0,0,21.7,53.8a1.51,1.51,0,0,0,1.13,1.81A1.5,1.5,0,0,0,24.44,55l5.63-8.86-2.74-1.16-2.91,15.4a1.51,1.51,0,0,0,1.13,1.81,1.5,1.5,0,0,0,1.61-.65l4.58-7.81-2.8-.75A49.58,49.58,0,0,1,28,63.88c-.27,1.34,1.45,2.69,2.5,1.46l2.29-2.67c1.24-1.46-.87-3.6-2.12-2.12l-2.29,2.67,2.51,1.46a53.13,53.13,0,0,0,1-11.74,1.52,1.52,0,0,0-1.55-1.47,1.5,1.5,0,0,0-1.24.71L24.53,60l2.78,1.12,2.91-15.39a1.51,1.51,0,0,0-1.13-1.81,1.5,1.5,0,0,0-1.61.65L21.85,53.4l2.74,1.16A36.91,36.91,0,0,1,28.8,41.8c.79-1.45-1.18-3.13-2.36-1.82a22.23,22.23,0,0,0-5,9.36c-.47,1.87,2.42,2.67,2.89.8Z" transform="translate(0 0)"/><path d="M2.11,164.82,7.3,165a1.51,1.51,0,0,0,1.45-1.1,43.84,43.84,0,0,0,.62-14.13,1.6,1.6,0,0,0-1.11-1.44,20.66,20.66,0,0,0-5.94-1,1.52,1.52,0,0,0-1.5,1.5L.61,161.57a1.52,1.52,0,0,0,1.54,1.5,1.49,1.49,0,0,0,.36,0c1.21-.32,2.4.32,3.61-.32a3.19,3.19,0,0,0,1.53-2.9c.13-1.55.16-3.11.24-4.67.07-1.37.38-3-.1-4.29a2.55,2.55,0,0,0-4.9.1A15.49,15.49,0,0,0,2.64,155l-.12,5.08c0,2,2.81,1.88,3,0l1.26-12.21a1.52,1.52,0,0,0-1.52-1.5,1.49,1.49,0,0,0-.74.2,6,6,0,0,1-.7.4c-.12.28-.18.25-.18-.1a4.43,4.43,0,0,1,0-1.15c0-1,.1-2.1.15-3.15a23.17,23.17,0,0,1,.86-6.36l-2.95-.4a115.46,115.46,0,0,0,.59,12.61c.14,1.37,2,2.18,2.79.75l1.49-2.75-2.71-.34c.31,2.19,1.51,4.17,4,4,1.28-.09,2.5-.57,3.79-.7a15.52,15.52,0,0,1,4.41.18A1.53,1.53,0,0,0,18,148.53a1.59,1.59,0,0,0,.06-.43l.33-8.17c.08-2.1.88-5.33-.93-6.9-1.63-1.41-4.61-1.13-6.61-1.22a77.82,77.82,0,0,0-8.64.16,1.51,1.51,0,0,0-1.3.74c-.58,1.33-.83,2.87.5,3.83s2.62-.3,4-.5a25.72,25.72,0,0,1,4.56.09l2.61.12c.1,0,1.42.09,1.43.07l-.31-.44v.79c0,1.78-.07,3.56-.11,5.34a9,9,0,0,0-.06,2.43v.33c.33-.23.32-.28,0-.15a5.14,5.14,0,0,0-1.7.19l-2.66.3a4.43,4.43,0,0,1-2.08,0c-1-.47-1-3-1.12-3.88l-.34-2.44a5.22,5.22,0,0,0-.21-1.47V137c-.65.17-.72.25-.23.22a7.87,7.87,0,0,0,2.37.15l2.84.17,1.42.08h.47c.58.16.64,0,.17-.42v4.49a4.41,4.41,0,0,1,0,.89c-.21.24-1.45.27-1.77.33-.78.14-1.55.31-2.32.42s-1,.17-1.26-.46a12.2,12.2,0,0,1-.57-2.6c0-.32-.11-.64-.15-1a5.38,5.38,0,0,1-.07-.69v-.05c.37-.26,1.79.09,2.29.11a8.37,8.37,0,0,0,2.64.15l-.2-.36v.35a5.44,5.44,0,0,0-.08,1.45,5,5,0,0,0-.07,1.45c1.36-.1,1.78-.47,1.28-1.14l-.2-.35A5.53,5.53,0,0,0,8,137.28a3.32,3.32,0,0,0-2.17.3,2.69,2.69,0,0,0-1,2,4.12,4.12,0,0,0,1.38,4.21c1.34.94,3,.68,4.46.22a1.52,1.52,0,0,0,1-1.89,1.49,1.49,0,0,0-.36-.62l-2.12-2.66c-.76-1-2.18-.29-2.51.66l-.34,1c-.64,1.83,2.25,2.61,2.89.8l.34-1L7.1,141l2.12,2.67.66-2.51c-.47.14-1.51.58-1.94.2s-.08-1.59,0-2.09l-1,1.05c1.88-.6,2.35,2.6,3.65,3.33a2.06,2.06,0,0,0,2.09,0c.91-.59.93-1.64,1-2.62.09-1.79.56-4.23-1.61-5a8.69,8.69,0,0,0-2.49-.27c-1.16-.06-2.36-.21-3.51-.18a2.87,2.87,0,0,0-3,2.75,1.5,1.5,0,0,0,0,.3,16,16,0,0,0,.42,2.93,10.7,10.7,0,0,0,.83,3c.91,1.75,2.62,2,4.41,1.73,1.07-.17,2.13-.38,3.2-.57a3.84,3.84,0,0,0,2.62-1.18c1.14-1.41.7-3.91.71-5.61s.07-3.83-2.16-4.18-4.32-.29-6.44-.42c-1.8-.11-4-.34-4.38,2a8.63,8.63,0,0,0,.2,2.68L3,142.6c.23,1.67.43,3.48,1.74,4.69,1.53,1.39,3.65.92,5.5.71s4.53,0,5.65-1.54a5.2,5.2,0,0,0,.56-3l.07-3.64c0-1.78.79-5-1.09-6.13a6.91,6.91,0,0,0-3.18-.46l-3.77-.13a20.69,20.69,0,0,0-3.34,0,7.34,7.34,0,0,0-1.55.31,5.2,5.2,0,0,0-.55.21,3.65,3.65,0,0,0-.53.25c-.51.22-.21.35.88.39L2.11,135c2.3-.17,4.6-.25,6.91-.21,1.15,0,2.31.07,3.46.15.57,0,2.3-.11,2.8.32s.11,2.18.09,2.77l-.14,3.37L15,148.1l1.89-1.45a19.29,19.29,0,0,0-6.52-.12c-.78.13-2.05.73-2.82.56s-.68-1.23-.76-1.81c-.18-1.3-2.17-1.41-2.74-.36l-1.49,2.76,2.8.76a115.46,115.46,0,0,1-.59-12.61,1.5,1.5,0,0,0-2.94-.4c-1.09,3.27-1,6.91-1.12,10.31-.06,1.32,0,2.77,1.07,3.69,1.32,1.09,3,.56,4.3-.25l-2.26-1.29L2.52,160.1h3l.13-5.84a9,9,0,0,0,.07-2.32,2.5,2.5,0,0,1,.07-.26c-.58-.06-.84.1-.77.49a5.65,5.65,0,0,0,0,1.3l-.27,5.37c0,.82.25,1.24-.65,1.19a7.11,7.11,0,0,0-2.39.07l1.9,1.45.21-12.79-1.5,1.5a18.06,18.06,0,0,1,5.15.93l-1.1-1.45a41.06,41.06,0,0,1-.52,13.36L7.3,162l-5.19-.17c-1.93-.07-1.92,2.93,0,3Z" transform="translate(0 0)"/><path d="M17.31,134.25a33.58,33.58,0,0,1,8.38-.13,1.51,1.51,0,0,0,1.5-1.5c-.14-2.71-.22-5.43-.25-8.14v-6a4.45,4.45,0,0,0,0-.73c-.06-.14-1.22-1.24-1.16-.41a1.54,1.54,0,0,0,1.5,1.5l7.32-.12a1.51,1.51,0,0,0,1.5-1.5q-.37-7.71-.29-15.43l-1.1,1.45a20.58,20.58,0,0,1,3.51-.15l-.4-2.94-1.14.16c-1.7.24-1.25,3,.4,2.94h6.56a1.51,1.51,0,0,0,.4-3,20.22,20.22,0,0,0-7.38-.74c-1.84.17-3.89.52-5.07,2.1-1.33,1.78-.58,4-.4,6a67.36,67.36,0,0,1,.12,7.52l1.5-1.5c-2.36,0-4.73-.09-7.1,0a3.5,3.5,0,0,0-3.84,2.92,42.06,42.06,0,0,0-.61,7,73.92,73.92,0,0,0,.1,7.59l1.1-1.45a64.72,64.72,0,0,1-20.36.71l1.5,1.5q0-17.36.41-34.8c0-1.93-2.95-1.93-3,0Q.57,114.53.66,132a1.54,1.54,0,0,0,1.5,1.5,67.11,67.11,0,0,0,21.16-.82,1.5,1.5,0,0,0,1.1-1.44,75.13,75.13,0,0,1,.2-12c0-.43,0-2,.36-2.35s1.49-.14,2-.14h5.91a1.52,1.52,0,0,0,1.5-1.5c0-1.88.08-3.77,0-5.65a24.17,24.17,0,0,0-.22-2.81,13.87,13.87,0,0,1-.29-2.65c.12-1.52,2.43-1.54,3.56-1.6a17.46,17.46,0,0,1,5.88.68l.4-2.94H37.16l.4,3,1.14-.16c1.73-.24,1.21-2.88-.4-3a24.88,24.88,0,0,0-4.31.25,1.51,1.51,0,0,0-1.1,1.45q-.09,7.73.29,15.43l1.5-1.5-7.32.12,1.5,1.5a2.5,2.5,0,0,0-.94-2.17,2.38,2.38,0,0,0-2.2-.18c-1.75.69-1.73,2.65-1.76,4.23q-.11,6.66.23,13.33l1.5-1.5a36.64,36.64,0,0,0-9.18.24c-1.9.28-1.09,3.17.8,2.89Z" transform="translate(0 0)"/><path d="M4,95.9l.47-5.41L3,92q20,1.07,39.94.77l-1.5-1.5,1,8.27,1.84-1.43a14.36,14.36,0,0,0-7.18-.55l1.46,2.5a10.16,10.16,0,0,0,3.79-7.32h-3l.54,5.4,3-.4c-.63-2.88-1.84-5.58-5-6.23a73.74,73.74,0,0,0-11-1.1,105.94,105.94,0,0,0-11.41.11c-3.46.23-7.3,1.21-10.64-.07a1.5,1.5,0,0,0-1.84,1,29,29,0,0,0-.27,9.74c.22,1.65,2.42,1.17,2.89,0,.69-1.71.27-3.56.82-5.29s3-1.19,4.48-1.07l12.84,1,12.59,1c1.56.12,3.48.33,4.48-1.18a2.49,2.49,0,0,0-.66-3.47l-.1-.07c-1.72-1-3.41.56-3.68,2.22a9.77,9.77,0,0,1-.53,2.78,5.68,5.68,0,0,1-1.77,2.12l2.51.66a6.28,6.28,0,0,0-7.5-4.76,6.37,6.37,0,0,0-.94.29,1.5,1.5,0,0,0,.4,2.94l8.35.42v-3L19.3,94.9l-8.69-.42c-2.31-.11-4.67-.16-6.09,2-1.29,2-1.49,4.76-1.82,7A81.57,81.57,0,0,0,1.91,112q-.16,4.23,0,8.46a79.58,79.58,0,0,0,.31,8.17,3,3,0,0,0,2,2.69c1.35.39,2.51-.6,3.83-.45s2.48.9,3.77,1.14a5.06,5.06,0,0,0,3.87-.6,1.5,1.5,0,0,0-1.15-2.74A43.13,43.13,0,0,1,6,129c-1.95-.12-1.87,2.78,0,3a37.64,37.64,0,0,0,15.46-1.51c1.84-.57,1.05-3.47-.79-2.89A35.36,35.36,0,0,1,6,129v3a46.65,46.65,0,0,0,9.3-.4l-1.16-2.74c-1.63,1.07-4-.67-5.74-.9a6.08,6.08,0,0,0-2.77.31,2.58,2.58,0,0,1-.71.19c.39,0,.09.34.21-.13A7.09,7.09,0,0,0,5,126.54c-.18-4.83-.34-9.67-.14-14.51.1-2.43.28-4.86.61-7.28.28-2,.42-4.5,1.33-6.33a1.91,1.91,0,0,1,2-1c1.25,0,2.51.11,3.76.17L20,98l16.88.82c1.93.09,1.92-2.91,0-3l-8.35-.42.4,3a3.33,3.33,0,0,1,4.46,1.52,3.61,3.61,0,0,1,.28.86,1.52,1.52,0,0,0,2.51.66,8,8,0,0,0,2.89-4.5,10,10,0,0,0,.19-1.32,3.59,3.59,0,0,1,0-.73q-1.4,0-1.11-.87a5.57,5.57,0,0,0-1,0c-.65,0-1.31-.1-2-.16L21.44,92.67l-6.91-.57a59.82,59.82,0,0,0-6.68-.47,4.43,4.43,0,0,0-4.14,2.79c-.83,1.92-.31,4.06-1.08,6H5.52a24.46,24.46,0,0,1,.27-8.14l-1.85,1c3.06,1.18,6.33.6,9.5.33a103.94,103.94,0,0,1,10.44-.35A100.73,100.73,0,0,1,34.29,94c1.3.15,3.32.08,4.31,1.07A6.78,6.78,0,0,1,40,98.51c.35,1.62,3.12,1.3,2.94-.4l-.54-5.4a1.5,1.5,0,0,0-3,0,7.33,7.33,0,0,1-2.91,5.2c-1.32,1,.18,2.71,1.46,2.51a11.39,11.39,0,0,1,5.58.55,1.51,1.51,0,0,0,1.9-1.44l-1-8.27a1.52,1.52,0,0,0-1.5-1.5Q22.95,90.1,3,89a1.54,1.54,0,0,0-1.5,1.5L1,95.9C.85,97.82,3.85,97.81,4,95.9Z" transform="translate(0 0)"/><path d="M6.49,128.88,6,114.79l-2.8.76a35.76,35.76,0,0,1,3,12.63,1.5,1.5,0,0,0,2.94.4c.95-2.38,1.2-4.94,1.84-7.41a33.07,33.07,0,0,1,2.77-7.07L11,112.91a62.7,62.7,0,0,0-2.59,18c0,1.37,2.19,2.19,2.8.75l6.06-14.3-2.59-1.51a30,30,0,0,0-2.61,13,1.52,1.52,0,0,0,2.8.76l4.85-8.08L17,120.35a25.11,25.11,0,0,0-1.63,7.45c-.13,1.92,2.87,1.91,3,0a23.36,23.36,0,0,1,1.51-6.7c.63-1.62-1.89-2.57-2.74-1.15L12.3,128.1l2.79.76a26.46,26.46,0,0,1,2.2-11.51,1.55,1.55,0,0,0-.53-2,1.52,1.52,0,0,0-2.06.54L8.64,130.1l2.79.76a59.64,59.64,0,0,1,2.48-17.15,1.51,1.51,0,0,0-1.13-1.81,1.5,1.5,0,0,0-1.61.65,36.12,36.12,0,0,0-3,7.51c-.7,2.57-.94,5.25-1.92,7.73l3,.39A40,40,0,0,0,5.87,114c-.61-1.39-2.84-.65-2.79.76l.44,14.09c.06,1.92,3.06,1.93,3,0Z" transform="translate(0 0)"/><path d="M17,129.73l5.32-9.7-2.74-1.16a39.56,39.56,0,0,0-2.08,9.55c-.16,1.72,2.49,2,2.95.4l1.31-4.58H18.82l.48,3.4c.23,1.67,3,1.28,2.94-.4-.54-9.7,2.32-19.25,1.7-28.95a2.81,2.81,0,0,0-1-2.44c-.92-.58-2.29-.37-3.32-.38-2.41,0-4.81,0-7.22.1-1.91.06-4.36-.21-5.81,1.29s-1.49,4.06-1.84,5.88c-.52,2.67-1,5.33-1.31,8-.29,2.11-.58,4.45,1.14,6a1.53,1.53,0,0,0,2.15,0,1.46,1.46,0,0,0,.36-.61L8.5,112l-2.94-.39-.14,8.16a1.51,1.51,0,0,0,2.79.75l4.5-7.87L10,111.54l-2,8a1.5,1.5,0,0,0,2.89.8c1.18-4,2.36-7.91,3.17-12,.4-2,.7-4,.9-6,.15-1.66.52-3.76-.41-5.27a3.46,3.46,0,0,0-3.94-1.43,5.06,5.06,0,0,0-3.25,3.19c-.69,1.66-1.15,3.47-1.69,5.18a13.72,13.72,0,0,0-.77,5.54,1.51,1.51,0,0,0,3,.4,75.81,75.81,0,0,1,5-12.55l-2.74-1.15c-1.7,5,.12,11-2.82,15.62l2.74.36c-1.71-4.12,1.2-7.92,3.65-11a13.65,13.65,0,0,1,1.74-2.06,1.92,1.92,0,0,1,2-.12c1.68.56,3.07,1.25,4.9.89s1.06-3.15-.8-2.89l-8.38,1.16c-1.44.2-1.43,2.68,0,2.89l8.11,1.21V99.42L11.5,100.8c-1.43.21-1.42,2.68,0,2.89L19,104.82v-2.9l-.53.16a1.51,1.51,0,0,0,.4,3h2v-3l-9.18.91c-1.88.19-2,3.11,0,3a36.88,36.88,0,0,1,9.55.7l.4-3a36.78,36.78,0,0,0-10.94,1.36,1.51,1.51,0,0,0,0,2.89c3.61,1.53,7.75,1,11.57,1l-.4-3-8,2.65a1.51,1.51,0,0,0,.4,3l8.74.13a1.5,1.5,0,0,0,0-3l-8.39-.15a1.51,1.51,0,0,0-.75,2.79,11.73,11.73,0,0,0,4,1.53l-.35-2.74a9.74,9.74,0,0,1-4.27,1,1.5,1.5,0,0,0,0,3l3.65.1a1.51,1.51,0,1,0,.4-3L14,110.58c-1-.23-2.26.7-1.85,1.84,1.26,3.47-1.4,6.91-2,10.25-.31,1.55,2,2.79,2.74,1.15L18,112.73l-2.74-1.16a32.82,32.82,0,0,0-1.44,8.85,1.51,1.51,0,0,0,3,.4,77.49,77.49,0,0,1,3.5-8.17l-2.79-.75L17,116.4c-.18,1.69,2.54,2,2.94.4L21,113l-2.94-.4v6.34c.4-.3.38-.39-.06-.29-1.82-.28-2.88,2.29-3.18,3.61l2.89.79a17,17,0,0,1,2.86-7.06l-2.74-1.15-1.59,4c-.71,1.8,2.19,2.58,2.9.8l1.58-4c.67-1.68-1.83-2.46-2.74-1.16a19,19,0,0,0-3.16,7.78c-.31,1.86,2.45,2.71,2.89.79a2.93,2.93,0,0,1,.4-1.22c.3-.31.53-.18,1-.26a2.25,2.25,0,0,0,1.87-1.7,14.08,14.08,0,0,0,.11-3.37v-3.9a1.51,1.51,0,0,0-2.95-.4l-1,3.85,2.95.4.47-4.5c.15-1.48-2.16-2-2.8-.76a86.82,86.82,0,0,0-3.8,8.88l2.94.4a29.77,29.77,0,0,1,1.33-8c.49-1.59-2-2.72-2.74-1.16l-5.19,11.1L13,123.51c.77-4,3.57-7.65,2.06-11.83l-1.85,1.84,3.33.74.4-2.94-3.65-.1v3A13.3,13.3,0,0,0,19,112.79a1.51,1.51,0,0,0,.51-2.07,1.53,1.53,0,0,0-.87-.67,9.65,9.65,0,0,1-3.32-1.23l-.76,2.8,8.39.15v-3l-8.74-.13.4,3,8-2.65a1.54,1.54,0,0,0-.4-3c-3.56.08-7.4.57-10.77-.85V108a33.72,33.72,0,0,1,10.14-1.31c1.63,0,2.11-2.59.4-2.94a40,40,0,0,0-10.35-.81v3l9.18-.91c1.88-.18,2-3,0-3h-2l.39,3,.54-.16c1.3-.39,1.55-2.66,0-2.9l-7.45-1.12v2.89L22,102.38c1.44-.2,1.43-2.68,0-2.89l-8.1-1.21v2.89L22.29,100,21.5,97.1a5.11,5.11,0,0,1-2.65-.65A6.93,6.93,0,0,0,16,95.88c-2.38.13-3.71,2.3-5,4-2.91,3.69-5.88,8.4-3.87,13.24a1.52,1.52,0,0,0,2.74.35c3.18-5,1.32-11,3.12-16.34A1.5,1.5,0,0,0,10.26,96a80.91,80.91,0,0,0-5.33,13.26l3,.4c-.31-2.88,1-5.56,1.79-8.26.26-.9.6-2.54,1.72-2.76s.68,2.18.63,2.86c-.45,6.2-2.27,12.2-4,18.12l2.89.8,2-8.06a1.5,1.5,0,0,0-2.74-1.15l-4.6,7.91,2.8.76.14-8.16a1.53,1.53,0,0,0-3-.4l-1.41,4.08,2.5-.66c-.64-.62-.48-1.62-.4-2.48.11-1.25.32-2.5.52-3.75.39-2.52.86-5,1.4-7.54.19-.87.17-2,1.19-2.25a23,23,0,0,1,3.52-.15c2.57-.07,5.14-.1,7.7-.07h1c-.57-.4-.77-.3-.59.28a7.55,7.55,0,0,0,0,1.9c0,1.26,0,2.53-.12,3.79-.15,2.54-.44,5.07-.73,7.59a88.74,88.74,0,0,0-.91,15.19l2.95-.4-.48-3.4c-.21-1.54-2.51-1.3-2.89,0L17.49,128l3,.4a36,36,0,0,1,2-8.75c.58-1.61-1.93-2.63-2.74-1.15l-5.32,9.7c-.93,1.69,1.66,3.21,2.59,1.51Z" transform="translate(0 0)"/><path d="M24.42,114.1a61.48,61.48,0,0,0,.83-7.65c.05-1.24.07-2.49,0-3.73,0-.59,0-1.19-.06-1.79l-.06-.89v-.59c0-.19,0-.29-.16.13l-.67.39H25l1.2.09,2.1.16c1.46.11,2.93.16,4.38.35l-.76-.21.14.07-.53-.54c-.38-.55.14-.5-.35-.34a2.47,2.47,0,0,1-.65.16,10.14,10.14,0,0,1-2.26-.29c-1.67-.25-3.75-.12-4.72,1.49a2.48,2.48,0,0,0,2.11,3.81c1.9.1,3.83,0,5.73,0l-.4-2.94-5.35,2c-1.54.57-3.32,1-3.83,2.83a1.5,1.5,0,0,0,1.08,1.84,1.44,1.44,0,0,0,.77,0,38.29,38.29,0,0,1,7.61-1.11l-.75-2.8-7.37,3.12c-1.37.57-.67,2.91.76,2.79l7.29-.6-.76-2.8c-1.35,1-3,1-4.6,1.34a7,7,0,0,0-4.18,2.53,1.52,1.52,0,0,0,.56,2.06,1.43,1.43,0,0,0,.34.14,7.35,7.35,0,0,0,3.55-.14,8.21,8.21,0,0,1,2.9-.51,5.19,5.19,0,0,0,2,.24,2.21,2.21,0,0,0,1.51-1.13,2.26,2.26,0,0,0-1-3,2.35,2.35,0,0,0-.44-.17,1.51,1.51,0,0,0-1.85,1.07,1.58,1.58,0,0,0-.05.38l.11,1.4a6.58,6.58,0,0,0,.11,1.33c-.09,0,.92-.45.6-.66a2.12,2.12,0,0,0-.55-.14,11.38,11.38,0,0,0-1.42-.24,9.15,9.15,0,0,0-5.25,1.16c-1.68.93-.17,3.52,1.52,2.59a5.91,5.91,0,0,1,2.69-.78,23.87,23.87,0,0,1,2.92.42,2.25,2.25,0,0,0,2.42-1.8,12.4,12.4,0,0,0-.16-3.33l-1.9,1.44c.65-.94.64-1.46,0-1.56a3.59,3.59,0,0,0-.47-.12,4.9,4.9,0,0,0-1.08-.12,8.38,8.38,0,0,0-2,.27c-1.08.25-2.24.77-3.35.5l.89,2.2c.72-.94,2.24-1.14,3.31-1.33A10.56,10.56,0,0,0,32,109.6c1.1-.77.86-2.92-.76-2.79l-7.29.6.75,2.8,7.35-3.11c1.4-.59.65-2.86-.76-2.79a41.83,41.83,0,0,0-8.41,1.22l1.85,1.85c0-.18.73-.37.89-.43l2-.72,4.22-1.54a1.51,1.51,0,0,0-.4-3H26.1c-.31,0-.53-.15-.15.23-.43-.42,1,1,.2.55h0a6.32,6.32,0,0,0,.62-.18,4.2,4.2,0,0,1,1,.06c1.4.2,2.83.63,4.23.12a3.48,3.48,0,0,0,2.48-3c0-2-2.16-1.89-3.57-2l-4.68-.32c-1.46-.11-3.46-.52-4,1.33a5.11,5.11,0,0,0,0,1.91c.05.84.09,1.69.1,2.53a55.31,55.31,0,0,1-.77,10.44,1.55,1.55,0,0,0,1,1.84,1.52,1.52,0,0,0,1.86-1.05Z" transform="translate(0 0)"/><path d="M26.35,104.42a1.5,1.5,0,1,0,0-3h0a1.5,1.5,0,0,0,0,3Z" transform="translate(0 0)"/><path d="M45.38,90.8V87.13l-1.1,1.44a44.37,44.37,0,0,1,8.38-.6,1.51,1.51,0,0,0,1.5-1.5,118,118,0,0,1,.3-16.17L51.9,71.36a5.25,5.25,0,0,0,3.85,1.26h5.84a1.52,1.52,0,0,0,1.5-1.5,38.44,38.44,0,0,1,0-4.8c.09-1.78-2.41-1.91-3-.4a3.34,3.34,0,0,1-.81,1.53c-.61.41-1.76.21-2.47.28a26.89,26.89,0,0,0-5.19,1c-1.85.54-1.06,3.44.8,2.89a25.46,25.46,0,0,1,3.46-.78c1.16-.16,2.34-.09,3.48-.29,2.06-.37,3-2,3.62-3.82L60,66.33a38.44,38.44,0,0,0,0,4.8l1.5-1.5h-4.3c-.88,0-2.5.31-3.19-.37a1.52,1.52,0,0,0-2.56,1.06,118,118,0,0,0-.3,16.17l1.5-1.5a48.65,48.65,0,0,0-9.18.71,1.52,1.52,0,0,0-1.1,1.4v3.67a1.5,1.5,0,1,0,3,0Z" transform="translate(0 0)"/><path d="M3.89,90.49a62.92,62.92,0,0,0,.6-11.14c-.06-1.63-2.57-2.12-3-.4l-1,4.53,2.9.79a55.34,55.34,0,0,0,.28-16.1c-.24-1.86-3-2-3,0a74.83,74.83,0,0,0,2.8,21.46,1.52,1.52,0,0,0,2.9,0,12.93,12.93,0,0,1,2.34-4.85L5.92,84l.18,8.39a1.5,1.5,0,0,0,3,0,16.53,16.53,0,0,1,1.79-7.56l-2.74-.36,1.27,5.76c.38,1.7,2.88,1.24,2.95-.4l.21-5.2L9.64,85,11,89.17c.42,1.29,2.62,1.56,2.89,0l.66-3.8-2.74.35a11.3,11.3,0,0,1,1,3.37c.25,1.8,2.79,1.14,3-.4a.35.35,0,0,1,.23-.3L14,87.85l2,4.93c.63,1.46,2.74.6,2.79-.75l.24-6.3-2.94.4L18,92.27a1.5,1.5,0,0,0,2.94-.4l.48-5.69-2.8.76,2,3.83a1.51,1.51,0,0,0,2.8-.76,15.77,15.77,0,0,1,.28-4.39L21,86a12.08,12.08,0,0,1,1.78,2.8c.37,1.08.61,2.23.9,3.33l2.51-1.46a2.54,2.54,0,0,1-.66-2.87l-2.36.3a21.26,21.26,0,0,1,3.36,4.31c.93,1.56,3,.44,2.75-1.16L28.52,86,26,87.49a9.13,9.13,0,0,1,2.13,3.61,1.5,1.5,0,0,0,2.94-.4l.11-4.08-1.9,1.48a2.49,2.49,0,0,1,.92.65,1.52,1.52,0,0,0,2.56-1.06l.17-1.44-2.8.76L32,90.41a1.52,1.52,0,0,0,2.8-.76l-.13-4.55a1.52,1.52,0,0,0-2.8-.76c-1.16,2.15-2,4.23-1.66,6.72.24,1.66,3,1.28,2.94-.4a11.13,11.13,0,0,1,3.6-9L34.19,80.6a89.51,89.51,0,0,1-.18,9,1.51,1.51,0,0,0,2.79.75L38,87.74l-2.75-.36,1.35,5.77c.4,1.68,2.91,1.26,3-.4a17.71,17.71,0,0,1,.59-4.09H37.3l.46,2.44c.32,1.57,2.43,1.27,2.89,0l.92-2.5h-2.9L39,89.74a1.51,1.51,0,0,0,2.89,0l.86-2.3h-2.9L40.11,89c.23,1.49,2.57,1.38,2.89,0l.42-1.81a1.51,1.51,0,0,0-2.9-.8l-.58,1.45,2.94.4A52.18,52.18,0,0,1,44.81,75.1l-2.94-.4a30.94,30.94,0,0,0,.83,8.19c.41,1.76,2.79,1.19,2.94-.39L46,79.28c.17-1.71-2.51-2-3-.4A43,43,0,0,0,41.69,86a1.51,1.51,0,0,0,1.9,1.44L51,85.82a1.51,1.51,0,0,0,0-2.89,21.13,21.13,0,0,0-6.24-.47l.4,2.94c2.53-.44,5-1,6.93-2.78a1.5,1.5,0,0,0-.66-2.5,11.08,11.08,0,0,0-7.64,1.3L46,83.1c.33-1.12,1.71-1.39,2.69-1.69a4.83,4.83,0,0,0,2.84-1.68c1.21-1.92-.8-4.54-2.92-3.31l2,2a11.57,11.57,0,0,0,1.87-8.3,1.48,1.48,0,0,0-1.64-1,1.53,1.53,0,0,0-1.3,1.47,33.76,33.76,0,0,1-1.27,5.7l2.95.39-.47-4.56c-.13-1.28-2.14-2.28-2.8-.75a23.85,23.85,0,0,0-1.88,7.57l2.56-1.06a6.16,6.16,0,0,1-1.25-2.63c-.41-1.74-2.81-1.2-3,.4L44,80.34l3-.4L45.91,76.8a1.5,1.5,0,0,0-2.94.39v.61a1.51,1.51,0,0,0,3,.4c.48-1.66.45-3.74-1.38-4.55-1.54-.68-3,.3-3.78,1.63a20.62,20.62,0,0,0-1.85,5.34,34.41,34.41,0,0,0-.9,6.3l2.94-.4-.15-1.07-2.9.79a.51.51,0,0,1-.25.54l2.5.66a16.1,16.1,0,0,1-.64-6.25c.15-1.75-2.46-2-3-.4a17.86,17.86,0,0,0-.82,5.94,1.5,1.5,0,0,0,3,0L39,82.57a26.81,26.81,0,0,0,.21-4.2,1.93,1.93,0,0,0-3.85-.09c-.15,1.93,2.86,1.92,3,0v-.21l-.44,1-.83.3-.9-.69c.19.29,0,1.28-.07,1.63L36,82.57l-.26,4.16h3a15.19,15.19,0,0,1,.72-5.14l-2.95-.4a18.41,18.41,0,0,0,.75,7,1.52,1.52,0,0,0,1.89,1,1.49,1.49,0,0,0,.62-.36,3.68,3.68,0,0,0,1-3.45c-.32-1.92-3.17-1.09-2.9.79L38,87.32c.25,1.75,2.86,1.19,3-.4A30.31,30.31,0,0,1,42.1,80.3a21.11,21.11,0,0,1,1-3c.09-.21.54-.72.56-.9-.41-.22-.55-.15-.44.21q-.09.42-.21.81l2.94.4v-.61l-3,.4L44,80.76a1.5,1.5,0,0,0,2.94-.4l.41-4.76-3,.4a9.45,9.45,0,0,0,2,4c.91,1.09,2.47.11,2.56-1.06a19.21,19.21,0,0,1,1.47-6.06l-2.64-.78.47,4.63a1.5,1.5,0,0,0,2.94.4,37.86,37.86,0,0,0,1.38-6.49L49.6,71A8.51,8.51,0,0,1,48,77c-.89,1.28.82,2.77,2,2.06-.4-.8-.85-1.06-1.34-.8a2.3,2.3,0,0,1-.5.18l-.78.24a10.48,10.48,0,0,0-2,.81,4.79,4.79,0,0,0-2.36,2.86,1.52,1.52,0,0,0,2.21,1.69,7.86,7.86,0,0,1,5.32-1l-.66-2.51c-1.53,1.36-3.67,1.67-5.61,2-1.65.28-1.29,3.07.4,3a18.42,18.42,0,0,1,5.44.36v-3l-7.38,1.61L44.68,86a38.82,38.82,0,0,1,1.21-6.31L43,79.28l-.32,3.21,3-.4a28.31,28.31,0,0,1-.72-7.4,1.51,1.51,0,1,0-3-.4h0a54.79,54.79,0,0,0-2.06,14c0,1.82,2.35,1.87,3,.4l.59-1.45-2.9-.8-.41,1.82H43l-.24-1.57c-.26-1.61-2.44-1.22-2.9,0L39,88.94H41.9l-.31-1.14a1.52,1.52,0,0,0-2.9,0l-.91,2.49h2.89l-.48-2.43c-.3-1.48-2.53-1.37-2.9,0a21.28,21.28,0,0,0-.69,4.89l3-.4-1.35-5.77a1.52,1.52,0,0,0-2.75-.35l-1.25,2.58,2.8.76a88.86,88.86,0,0,0,.21-8.94,1.5,1.5,0,0,0-1.53-1.48,1.47,1.47,0,0,0-1,.42A14,14,0,0,0,30.16,90.7l3-.4c-.24-1.56.65-3.09,1.36-4.41l-2.84-.79.16,4.51,2.8-.76-1.9-3.42c-.8-1.42-2.64-.6-2.8.76l-.17,1.44,2.56-1.06a5.75,5.75,0,0,0-2.24-1.42,1.51,1.51,0,0,0-1.85,1.07,1.58,1.58,0,0,0,0,.38l-.11,4.08,3-.39a12.44,12.44,0,0,0-2.91-5c-1.13-1.19-2.7.1-2.5,1.46l.76,5.2,2.74-1.15a24,24,0,0,0-3.83-4.92,1.52,1.52,0,0,0-2.14,0,1.86,1.86,0,0,0-.21.28,5.62,5.62,0,0,0,1.13,6.51,1.51,1.51,0,0,0,2.51-1.46c-.34-1.25-.63-2.54-1-3.77a13,13,0,0,0-2-3.08,1.51,1.51,0,0,0-2.74.36,18.84,18.84,0,0,0-.39,5.19l2.79-.76-2-3.83c-.74-1.42-2.68-.61-2.79.76L18,91.87l3-.4-2-6.13a1.51,1.51,0,0,0-3,.39L15.82,92l2.8-.76-2.13-4.93a1.5,1.5,0,0,0-2.06-.54,3.63,3.63,0,0,0-1.71,2.89l3-.39a14,14,0,0,0-1.27-4.09,1.51,1.51,0,0,0-2.07-.51,1.53,1.53,0,0,0-.67.87l-.7,3.8H13.9l-1.34-4.12a1.51,1.51,0,0,0-3,.4l-.21,5.2,2.94-.4L11,83.69a1.51,1.51,0,0,0-2.74-.35,19.87,19.87,0,0,0-2.2,9.07h3L8.89,84a1.52,1.52,0,0,0-2.8-.75,15,15,0,0,0-2.65,5.56h2.9A71.7,71.7,0,0,1,3.73,68.17h-3A52.72,52.72,0,0,1,.55,83.48c-.3,1.86,2.48,2.71,2.9.79l1-4.52-2.95-.4A58.71,58.71,0,0,1,1,89.7c-.26,1.88,2.63,2.7,2.89.79Z" transform="translate(0 0)"/><path d="M59.41,55.88,60.24,62c.11.74.35,1.43-.24,2a16.09,16.09,0,0,1-2.1,1.59c-3.09,2-7,1.21-10.24,2.71l1.82,2.36c1.48-1.66,3.69-2.15,5.67-3s4.18-2.09,5.15-4.26A11.69,11.69,0,0,0,60.5,56c-.74-2.72-3.53-3-5.83-2.13s-4,2.75-6.2,3.63L49.93,60a20.55,20.55,0,0,1,11.94-6.39L60,52.6l.51,3.07L63,54.21l-2.29-2.64a1.53,1.53,0,0,0-2.56,1.06,4.56,4.56,0,0,0,4.43,4.69h0L61.36,55.1l1-.29a1.51,1.51,0,0,0-2.06.53,1.55,1.55,0,0,0,.54,2.06,2.18,2.18,0,0,0,3-.6l.11-.19a1.52,1.52,0,0,0-.59-2.07,1.48,1.48,0,0,0-.71-.19,1.54,1.54,0,0,1-1.47-1.59s0-.07,0-.1l-2.56,1.06,2.29,2.65a1.51,1.51,0,0,0,1.81.23,1.56,1.56,0,0,0,.69-1.69l-.52-3.11a1.52,1.52,0,0,0-1.84-1,23.1,23.1,0,0,0-13.26,7.12c-.93,1,0,3.09,1.46,2.51,2.2-.86,3.9-2.49,6-3.53.56-.27,2-.91,2.31-.19a5.36,5.36,0,0,1,.28,1.73,14.71,14.71,0,0,1,.1,1.88c-.07,2.49-1.81,3.76-4,4.61-2.36.92-4.88,1.62-6.62,3.57a1.51,1.51,0,0,0,1.81,2.36c1.81-.82,3.93-.73,5.85-1a12.23,12.23,0,0,0,5.58-2.52,9.11,9.11,0,0,0,2.2-2,4.28,4.28,0,0,0,.48-3.07q-.48-3.57-1-7.14a1.51,1.51,0,0,0-1.84-1A1.54,1.54,0,0,0,59.37,56Z" transform="translate(0 0)"/><path d="M61.74,72.85a1.5,1.5,0,1,0-1.5-1.5A1.5,1.5,0,0,0,61.74,72.85Z" transform="translate(0 0)"/><path d="M59.83,64.82a1.5,1.5,0,1,0-1.5-1.5A1.5,1.5,0,0,0,59.83,64.82Z" transform="translate(0 0)"/><path d="M61.29,57.1H68l-.76-2.8a1.61,1.61,0,0,0-.71,1.8,2.08,2.08,0,0,0,.19.49c.09.12.18.24.28.35.5.43.44.29-.19-.41l.19-1.2v.06l.54-.54c.58-.09.74-.14.47-.14h-.8l-1.08-.11a1.51,1.51,0,0,0-1.5,1.5,1.54,1.54,0,0,0,1.5,1.5,9.9,9.9,0,0,0,2.24.16,1.63,1.63,0,0,0,1.42-1.83,1.57,1.57,0,0,0-.21-.63,1.76,1.76,0,0,0-.29-.37,1.33,1.33,0,0,0-.19-.14c-.36-.3-.23-.12.38.54v.72l-.69.89h0A1.5,1.5,0,0,0,68,54.1H61.29a1.5,1.5,0,0,0,0,3Z" transform="translate(0 0)"/><path d="M66.36,43.36,66.69,54,69.25,53a21.75,21.75,0,0,1-4.83-8.09l-1.85,1.84A2.3,2.3,0,0,1,64,49.32h3l.54-6.88h-3l.13,10.88,1.5-1.5H61.51l1.33,2.28,2.44-4-2.59-1.52-.78,1.72a1.51,1.51,0,0,0,.6,2.06,1.48,1.48,0,0,0,1.09.15l2.49-.71-1.85-1c0-.74.29-1.12.81-1.15-.1-.2-.2-.39-.29-.59A4.23,4.23,0,0,0,64,47.89,3.25,3.25,0,0,0,61.68,47a3.17,3.17,0,0,0-3.09,3.25c0,.1,0,.2,0,.3A1.52,1.52,0,0,0,60.16,52a1.5,1.5,0,0,0,1.24-.71l2.43-3.72L61.22,46.1,59.3,49.73,62,50.84c.78-2-.67-4.15-2.57-4.84-2.62-1-5.3.82-7.52,2L35.83,56.53l1.51,2.57a76,76,0,0,1,17.42-7.7L53.3,48.89a158.14,158.14,0,0,0-11.71,11,1.51,1.51,0,0,0,1.82,2.35,65.5,65.5,0,0,0,16.44-10.9C61.12,50.2,59.48,48.1,58,49a90,90,0,0,0-11.14,8.07L49,59.16l7.38-7.79a1.5,1.5,0,0,0-2.12-2.12l-3.55,3c-1.39,1.17.39,3,1.82,2.36l4.7-2.17L55.42,50.1l-2.81,2.14,2.12,2.12L58.6,49.6c1-1.21-.29-3.38-1.82-2.35l-3.25,2.18L55,52,57.9,49.9l-2-2.06a39.73,39.73,0,0,0-3.39,12.42h3c0-1.06.86-1.8,1.56-2.49l-2.5-1.46L52.65,65.5c-.39,1.87,2.39,2.67,2.89.79l2.42-9-3-.41.29,5.5c.09,1.61,2.59,2.14,3,.4l.92-4.44-3-.4c.12,1.5.51,4.16-1.24,4.93s-1.43-2-1.25-2.94c.29-1.59-1.86-2.72-2.74-1.15a24.25,24.25,0,0,0-3.1,11.37c0,2,2.76,1.86,3,0l1.38-10.81-2.94.4a14.15,14.15,0,0,1,.1,5.54l2.9.8.3-1.71H49.75l1,4.57c.36,1.67,3,1.27,3-.4V60.8a1.51,1.51,0,0,0-3-.4h0l-1.45,5.13,2.51-.66a5.52,5.52,0,0,1-2.19-4.34,1.5,1.5,0,0,0-3,0l.1,5.63,2.8-.76a14.37,14.37,0,0,1-1.61-5.3,1.5,1.5,0,0,0-3,0h0a31.43,31.43,0,0,0,1.08,10.26l2.51-1.45a3.75,3.75,0,0,1-.72-1.79c-.28-1.68-3-1.27-2.94.4l.09,4.87,2.94-.4-.88-2.23a1.51,1.51,0,0,0-1.64-1.07A1.49,1.49,0,0,0,44,70.19l.56,4.22,3-.4L46,69.21c-.48-1.53-3.17-1.36-2.94.4l.58,4.55,3-.4a28.75,28.75,0,0,1-.73-9.15l-3,.4,2.06,7.83c.49,1.89,3.25,1.08,2.89-.8a69.05,69.05,0,0,1-1.27-13.3,1.51,1.51,0,0,0-2.95-.4A11.52,11.52,0,0,0,44,66.27a15.13,15.13,0,0,0,2.29,3.47A2.53,2.53,0,0,1,47,71.1c0,.27-.24.29,0,.24-.16,0-.65-.49-.76-.58a6.74,6.74,0,0,0-10.73,6,1.52,1.52,0,0,0,2.8.76l8-10.92-2.63-1.5A69,69,0,0,0,37,79.56a1.51,1.51,0,0,0,1.13,1.81,1.5,1.5,0,0,0,1.61-.65A42.38,42.38,0,0,1,45.81,72l-2.12-2.12A129.65,129.65,0,0,1,25.87,86.56l2.05,2.06A61.29,61.29,0,0,1,38.69,75.84c1.43-1.35-.65-3.32-2.12-2.12A112.93,112.93,0,0,0,20.16,90.1,1.51,1.51,0,0,0,22,92.44a43.9,43.9,0,0,0,15.72-14,1.49,1.49,0,0,0-2-2A199.12,199.12,0,0,0,17.42,89.1l2.12,2.12a54.3,54.3,0,0,1,11.7-11,1.5,1.5,0,0,0-1.51-2.59,118.17,118.17,0,0,0-12.61,8l2.05,2,3.57-5.25a1.51,1.51,0,0,0-.6-2A1.48,1.48,0,0,0,21,80.2a36,36,0,0,0-9.54,5.49l2.13,2.12,8-6.69c1.39-1.15-.37-3.06-1.81-2.36l-10.13,5,1.88,2.34,6.39-5.76c1.35-1.21-.36-3-1.82-2.35l-13,6L5,86.37a36.87,36.87,0,0,1,9.11-6c1.54-.72.45-3.27-1.16-2.74L4.46,80.4l1.9,1.45a26,26,0,0,1,15.16-20.4c1.76-.78.24-3.37-1.51-2.59a28.92,28.92,0,0,0-16.65,23,1.49,1.49,0,0,0,1.51,1.49,1.31,1.31,0,0,0,.39,0l8.45-2.8-1.15-2.74a39.68,39.68,0,0,0-9.72,6.49c-1.35,1.21.36,3,1.82,2.35l13-6-1.85-2.41L9.42,84c-1.33,1.2.36,3.07,1.82,2.36l10.13-5L19.55,79l-8,6.69c-1.49,1.24.64,3.31,2.13,2.12a31,31,0,0,1,8.16-4.71l-1.69-2.2-3.57,5.2c-.82,1.21.84,2.93,2.05,2.06a118.17,118.17,0,0,1,12.61-8l-1.51-2.59A56.4,56.4,0,0,0,17.42,89.1a1.5,1.5,0,0,0,2.12,2.12A193.34,193.34,0,0,1,37.16,78.93l-2-2.06a40.63,40.63,0,0,1-14.65,13l1.82,2.36A113.16,113.16,0,0,1,38.69,75.84l-2.12-2.12A64.31,64.31,0,0,0,25.33,87.1c-.72,1.2.82,3,2.05,2A132.85,132.85,0,0,0,45.84,72c1.28-1.43-.82-3.56-2.12-2.12a46.08,46.08,0,0,0-6.53,9.32l2.75,1.16a66,66,0,0,1,6.34-13.7c1-1.68-1.48-3-2.59-1.52l-8,11,2.8.76c-.29-2.61,1.74-5,4.47-4.34,1.26.29,2,1.41,3.19,1.78a2.79,2.79,0,0,0,3.11-1.09c1.75-2.41-.19-4.51-1.61-6.4a8.43,8.43,0,0,1-1.18-7.71l-3-.4a73.34,73.34,0,0,0,1.38,14.1l2.89-.8-2.06-7.83c-.44-1.71-2.82-1.23-2.94.4a31.73,31.73,0,0,0,.83,10c.39,1.6,3.17,1.3,3-.4L46,69.61,43,70l1.53,4.81c.48,1.52,3.17,1.36,2.94-.4L47,70.19l-2.94.4L45,72.82c.59,1.47,3,1.42,2.95-.4l-.09-4.87-3,.4a6.54,6.54,0,0,0,1.52,3.15c1,1.21,2.88-.11,2.51-1.46a28.56,28.56,0,0,1-1-9.47h-3a18.14,18.14,0,0,0,2,6.78,1.51,1.51,0,0,0,2.79-.75l-.1-5.63h-3A8.42,8.42,0,0,0,49.6,67a1.52,1.52,0,0,0,2.5-.66l1.45-5.14-2.94-.39v7.74l3-.4-1-4.57a1.51,1.51,0,0,0-2.89,0l-.31,1.71c-.34,1.89,2.55,2.7,2.9.8A18.07,18.07,0,0,0,52.2,59c-.39-1.8-2.75-1.14-3,.4L47.9,70.15h3a20.91,20.91,0,0,1,2.69-9.86L50.85,59.1a7.42,7.42,0,0,0,.23,4.81,3.74,3.74,0,0,0,3.77,2c4-.47,4.65-4.77,4.38-8-.12-1.58-2.58-2.17-2.94-.4L55.37,62l2.94.4L58,56.88a1.51,1.51,0,0,0-2.95-.39l-2.42,9,2.89.79,1.92-9.18a1.51,1.51,0,0,0-2.51-1.45c-1.31,1.28-2.44,2.69-2.44,4.61s2.8,1.88,3,0a35.35,35.35,0,0,1,3-10.9c.55-1.2-.71-3-2-2l-2.9,2.12C52,50.55,53.42,53.1,55,52l3.24-2.18-1.81-2.36-3.83,4.76a1.5,1.5,0,0,0,2.12,2.12l2.81-2.18c1.44-1.12-.39-3-1.82-2.36L51,52l1.82,2.35,3.54-3-2.12-2.12L46.87,57A1.52,1.52,0,1,0,49,59.16a87.51,87.51,0,0,1,10.54-7.6L57.73,49.2A63.23,63.23,0,0,1,41.9,59.63L43.72,62a153.88,153.88,0,0,1,11.7-11c1.16-1-.09-2.92-1.46-2.5a79.74,79.74,0,0,0-18.13,8,1.51,1.51,0,0,0,1.51,2.61h0l12.15-6.43c2-1,3.93-2.12,5.91-3.13.83-.42,2-1.07,3-.77.59.18,1,.65.77,1.25-.61,1.59,2,2.64,2.75,1.15l1.92-3.62a1.5,1.5,0,0,0-2.62-1.45l-2.43,3.73,2.8.75c-.15-1.14.5-.13.72.29a3.11,3.11,0,0,0,1.76,1.69A2.28,2.28,0,0,0,67.13,50a1.52,1.52,0,0,0-1.84-1l-2.48.71,1.69,2.21.78-1.77a1.5,1.5,0,1,0-2.59-1.52l-2.44,4a1.5,1.5,0,0,0,.55,2.05,1.47,1.47,0,0,0,.74.2h4.67a1.52,1.52,0,0,0,1.5-1.5l-.13-10.88a1.5,1.5,0,0,0-3,0L64,49.32c-.15,1.94,2.8,1.89,3,0a5.28,5.28,0,0,0-3.67-5.49,1.51,1.51,0,0,0-1.84,1.08,1.63,1.63,0,0,0,0,.76,25,25,0,0,0,5.63,9.43A1.52,1.52,0,0,0,69.69,54l-.33-10.67c-.06-1.93-3.06-1.94-3,0Z" transform="translate(0 0)"/><path d="M8.77,79.63A37.63,37.63,0,0,1,28,57.55l-1.82-2.36C19.57,62.47,9,66.92,6.48,77.23,6.15,78.56,8,79.94,9,78.69A108.78,108.78,0,0,1,26.82,60.87L24.7,58.75c-6,6.42-11.31,13.35-16.64,20.35C7,80.49,9.22,82,10.42,80.91l24.76-23-2.12-2.12L15.24,75.39,17.6,77.2A140,140,0,0,1,30.36,58.67L28,56.85a136.56,136.56,0,0,1-7.24,12.44c-.94,1.41,1.24,3.09,2.34,1.81L34.54,58.25c1.27-1.44-.74-3.49-2.12-2.12q-10.65,10.5-20.27,22c-1.22,1.45.77,3.54,2.12,2.12A64.9,64.9,0,0,1,27.74,69.43L25.93,67.1l-8.87,11,2.12,2.12,9.26-11.56a1.5,1.5,0,0,0-2.12-2.12A58.84,58.84,0,0,0,15,79.94a1.5,1.5,0,0,0,2.35,1.82,103.61,103.61,0,0,1,11.14-9l-2.05-2A96.66,96.66,0,0,0,20.23,80c-.83,1.42,1.27,3.18,2.36,1.81a60.82,60.82,0,0,1,10.79-10.6l-1.82-2.35A146.25,146.25,0,0,0,20.56,83l2.8.76a30.51,30.51,0,0,1,1.1-8A1.51,1.51,0,0,0,23.21,74a1.49,1.49,0,0,0-1.2.32,12.58,12.58,0,0,0-3.46,5.93A1.51,1.51,0,0,0,21,81.75C25.54,77.1,30.31,72.2,36.58,70l-1.69-2.2Q30.71,74.41,26,80.68c-1,1.35,1.3,3.15,2.36,1.82L41.12,66.42a1.51,1.51,0,0,0,.12-2,1.48,1.48,0,0,0-1.94-.32A85.21,85.21,0,0,0,23.57,79.89c-.93,1.21.85,2.82,2.05,2A55.63,55.63,0,0,0,39.45,69.31c1.15-1.48-.78-3.58-2.12-2.12A72.23,72.23,0,0,0,28,79.92c-.83,1.44,1.19,3.11,2.36,1.81q6.48-7.22,12.54-14.79c1.19-1.47-.69-3.49-2.12-2.12a65.56,65.56,0,0,0-9,10.74c-1,1.42,1.2,3.06,2.36,1.82A173.53,173.53,0,0,0,47.28,61.49c.93-1.27-.84-2.74-2.05-2-5.59,3.16-10.52,7.3-15.41,11.44l2.12,2.12L45.42,59.37C46.58,58.21,45,56,43.61,57q-9.06,6.85-17.45,14.53l2.36,1.82a78.31,78.31,0,0,1,8.63-10.51c1.39-1.42-.64-3.3-2.12-2.12l-10.1,8,2.36,1.82a101.34,101.34,0,0,1,10.87-12c1.21-1.14-.41-3.36-1.82-2.36q-5.7,4.08-11.14,8.5l2.12,2.12A84.1,84.1,0,0,1,42.8,56l-1.52-2.59a64.38,64.38,0,0,0-9.56,8.66,1.51,1.51,0,0,0,1.82,2.35L46.19,57.3l-1.52-2.6a68.87,68.87,0,0,0-12,8.86c-1.46,1.34.64,3.27,2.12,2.12q7.51-5.82,15.57-10.9c1.37-.87.51-3.34-1.16-2.74l-3.49,1.23c-1.8.64-1,3.54.8,2.89L50,54.93l-1.2-2.74q-8.37,5.3-16.18,11.37l2.12,2.12a64.82,64.82,0,0,1,11.44-8.39,1.5,1.5,0,0,0-1.52-2.59L32,61.85l1.82,2.36a59.29,59.29,0,0,1,9-8.18,1.5,1.5,0,1,0-1.52-2.59h0A87.43,87.43,0,0,0,25.2,64.69c-1.47,1.29.65,3.31,2.12,2.12q5.15-4.17,10.54-8L36,56.43A107.07,107.07,0,0,0,24.7,69.1c-1.12,1.46,1.15,2.78,2.36,1.81l10.09-8L35,60.73a82.89,82.89,0,0,0-9.1,11.11c-1,1.46,1.14,2.93,2.35,1.82q8.08-7.41,16.84-14l-1.82-2.36L29.82,70.88c-1.38,1.39.67,3.35,2.12,2.12a99.11,99.11,0,0,1,14.8-11l-2-2.06A163.59,163.59,0,0,1,32,75.26l2.36,1.84A61.57,61.57,0,0,1,42.89,67l-2.12-2.12Q34.71,72.4,28.23,79.61l2.35,1.82a68.43,68.43,0,0,1,8.87-12.12l-2.12-2.12A53.38,53.38,0,0,1,24.1,79.35l2.06,2A79.34,79.34,0,0,1,40.82,66.66L39,64.3,26.26,80.37l2.35,1.82q4.68-6.25,8.87-12.88a1.52,1.52,0,0,0-.56-2.06,1.54,1.54,0,0,0-1.13-.15c-6.8,2.38-12,7.43-16.87,12.52l2.51,1.48a9.58,9.58,0,0,1,2.69-4.6L21.61,75a33.15,33.15,0,0,0-1.21,8.74A1.52,1.52,0,0,0,22,85.24a1.5,1.5,0,0,0,1.24-.71A139,139,0,0,1,33.68,71c1-1.19-.37-3.45-1.82-2.36a63.45,63.45,0,0,0-11.39,11l2.36,1.82A96.42,96.42,0,0,1,29,72.23c.9-1.19-.86-2.88-2-2a109,109,0,0,0-11.75,9.46l2.36,1.82a56.31,56.31,0,0,1,10.9-12.79L26.4,66.6,17.06,78.1c-1.2,1.49.91,3.63,2.12,2.12L28,69.2c1-1.25-.25-3.3-1.82-2.36a67.75,67.75,0,0,0-14,11.26l2.12,2.12q9.61-11.46,20.27-22L32.42,56.1,21,69l2.36,1.82a137.47,137.47,0,0,0,7.25-12.43c.73-1.43-1.23-3.21-2.36-1.82A144,144,0,0,0,15,75.69c-.83,1.44,1.19,3.11,2.36,1.82L35.18,57.85a1.5,1.5,0,0,0-2.12-2.12l-24.77,23,2.36,1.82C15.83,73.84,21,67.1,26.82,60.87c1.35-1.45-.64-3.29-2.12-2.12A108.57,108.57,0,0,0,6.86,76.57L9.37,78c2.38-9.58,12.77-13.93,18.91-20.72A1.5,1.5,0,0,0,26.47,55,40.59,40.59,0,0,0,5.88,78.83C5.29,80.67,8.18,81.46,8.77,79.63Z" transform="translate(0 0)"/><path d="M69.42,42.39l.47-13.81c.06-1.82.46-4.13-1.22-5.37-1.42-1.06-3.67-1-5.33-.79C54.8,23.42,50.9,31.89,48,39c-1.74,4.22-3.73,9.1-2.25,13.68a1.51,1.51,0,0,0,2.89,0,28.13,28.13,0,0,1,5.1-9.77l-2.51-1.46-3.86,9.51c-.55,1.37,1.6,2.62,2.51,1.46A116.57,116.57,0,0,1,60,41.1l-2.36-1.82A69.5,69.5,0,0,0,53,46.4c-.81,1.43,1.22,3.16,2.35,1.82a70,70,0,0,0,5.06-6.7l-2.71-1.15-.87,4.55c-.25,1.33,1.45,2.71,2.51,1.46l3.56-4.2L60.4,40.72l-2.21,5.52c-.54,1.36,1.61,2.63,2.51,1.46L64.38,43l-2.51-1.46-1.1,3.36c-.52,1.59,2,2.72,2.74,1.16l2.71-5.91L63.48,39a17.85,17.85,0,0,0,0,5.46c.23,1.49,2.57,1.38,2.89,0a100.09,100.09,0,0,0,1.85-11.15c.21-1.84.47-3.7.59-5.55.09-1.46-.42-2.94-2-3.29-1.38-.3-3,.39-4.23.92a16.88,16.88,0,0,0-4,2.44,25,25,0,0,0-6.19,8C51.5,37.48,54,39,55,37.29A53.81,53.81,0,0,1,65,24.46c1.42-1.37-.65-3.3-2.12-2.12C57.09,27,51.4,32.1,49.31,39.45a1.51,1.51,0,0,0,2.75,1.15l5.12-8.37-2.59-1.51L49,42.35a1.5,1.5,0,0,0,2.59,1.51l5.73-9.34-2.74-1.16c-.86,2.85-1.86,5.65-3,8.42-.65,1.58,2,2.65,2.74,1.16l2.59-5-2.59-1.51a21.87,21.87,0,0,0-1.88,6.06,1.51,1.51,0,0,0,2.75,1.15L60,36.17c1-1.65-1.51-3.09-2.59-1.52a10.79,10.79,0,0,0-1.82,5.29,1.5,1.5,0,0,0,1.53,1.48,1.47,1.47,0,0,0,1-.42q2.79-3.48,5.28-7.18l-2.82-.72c.24,2.5-.7,4.76-1.7,7a1.5,1.5,0,0,0,2.59,1.51l3.1-4.69-2.8-.82-.48,4.1c-.2,1.73,2.48,2,3,.4l1.39-4.69-2.94-.4v1.54c0,1.64,2.67,2.1,3,.4q.84-5.16,1.19-10.37a1.52,1.52,0,0,0-1.52-1.5,1.49,1.49,0,0,0-.74.2,31.26,31.26,0,0,0-6.43,5.49l2.28,1.83a17.18,17.18,0,0,1,2.84-4.17c1.23-1.45-.79-3.55-2.12-2.12a45.19,45.19,0,0,0-5.65,7.48c-1,1.57,1.1,2.79,2.36,1.82a73.75,73.75,0,0,0,5.6-4.83L61,30.61l.68,1.92c.64,1.8,3.54,1,2.89-.8l-.68-1.91a1.52,1.52,0,0,0-1.89-1,1.56,1.56,0,0,0-.62.36A69.77,69.77,0,0,1,55.78,34l2.36,1.81a41.66,41.66,0,0,1,5.18-6.87L61.2,26.81a19.73,19.73,0,0,0-3.31,4.78c-.64,1.43,1.12,3.2,2.35,1.82a27.85,27.85,0,0,1,5.83-5L63.84,27.1c-.21,3.2-.57,6.4-1.08,9.57l2.94.4V35.53a1.51,1.51,0,0,0-3-.4l-1.4,4.69,2.95.4.51-4.12c.19-1.59-2.06-1.87-2.79-.75l-3.1,4.75,2.59,1.51c1.21-2.73,2.4-5.51,2.11-8.51a1.51,1.51,0,0,0-2.79-.75C59.32,34.6,57.72,36.8,56,38.92L58.58,40A7.72,7.72,0,0,1,60,36.17l-2.59-1.52-4.76,7.52,2.74,1.16A18.6,18.6,0,0,1,57,38c.81-1.72-1.68-3.24-2.59-1.51l-2.59,5,2.74,1.15q1.68-4.14,3-8.42a1.51,1.51,0,0,0-1.13-1.81,1.5,1.5,0,0,0-1.61.65L49,42.35l2.59,1.51,5.58-11.63a1.5,1.5,0,0,0-2.59-1.51L49.47,39.1l2.74,1.16c1.93-6.8,7.44-11.54,12.8-15.8l-2.12-2.12A56.69,56.69,0,0,0,52.48,35.8l2.59,1.51A24.28,24.28,0,0,1,59.56,31a14.57,14.57,0,0,1,3-2.24,11.65,11.65,0,0,1,1.85-.89c.31-.12,1.53-.29,1.68-.49.17,0,.16-.05,0-.16s-.17-.2-.13,0a6.74,6.74,0,0,0-.08,1c-.07.72-.15,1.45-.22,2.17-.15,1.45-.31,2.9-.5,4.34a84,84,0,0,1-1.56,8.92h2.89a14,14,0,0,1,0-3.88A1.53,1.53,0,0,0,65.62,38a1.49,1.49,0,0,0-1.87.62L61,44.51l2.74,1.16,1.1-3.36c.44-1.36-1.57-2.67-2.51-1.46L58.7,45.6l2.51,1.46,2.2-5.52c.56-1.39-1.56-2.57-2.5-1.46l-3.56,4.2,2.5,1.46.88-4.55A1.51,1.51,0,0,0,58,40a65.65,65.65,0,0,1-4.71,6.07l2.36,1.82a68.83,68.83,0,0,1,4.61-7.09c1-1.4-1.17-3-2.35-1.82A115.06,115.06,0,0,0,47.75,50.26l2.5,1.46,3.86-9.51c.56-1.37-1.58-2.59-2.5-1.46a31.68,31.68,0,0,0-5.87,11.09h2.89c-1.37-4.24,1-9.13,2.64-13s3.46-7.92,6.52-10.74a10.58,10.58,0,0,1,5.33-2.63,8.93,8.93,0,0,1,3.26,0c.4.09.42.07.57.45a5.32,5.32,0,0,1,0,1.69l-.5,14.8c-.07,1.93,2.93,1.93,3,0Z" transform="translate(0 0)"/><path d="M82.82,19.68A13,13,0,0,0,68.58,23.4l2.56,1.06c0-4.21,5.2-4.6,8.24-3.84a1.5,1.5,0,0,0,.8-2.89c-2.73-1.05-4.51-3.84-6.76-5.6A33.08,33.08,0,0,0,64.94,7c-1.27-.46-2.92-1-4.16-.17s-1.59,2.64-2.06,3.92Q56.8,15.92,55,21.1l2.9.8a19.6,19.6,0,0,1,3.78-7.39l-2.56-1.06c-.1,3.8-2.12,7.26-1.82,11.12a1.51,1.51,0,0,0,2.79.75l3.23-5.53-2.72-1.12-.79,4a1.51,1.51,0,0,0,2.5,1.46l2.14-1.84L62,21.63a3.64,3.64,0,0,1,.15,1.47,1.5,1.5,0,0,0,2.25,1.29l1.4-1-2-.54.33.62a1.51,1.51,0,0,0,2,.54l2.52-1.68L66.34,21.1c-.16,1.69,1.62,2.34,2.93,1.78l-1.82-.23.29.28a1.53,1.53,0,0,0,2.12,0l4.65-4.86a1.53,1.53,0,0,0,0-2.12c-2.6-2.45-5.91-4.22-8.9-6.15-1.24-.8-2.83-1.86-4.15-.55-1.08,1.08-1.3,3.08-1.31,4.51a1.52,1.52,0,0,0,2.56,1.06c.65-.57,2.17.46,2.76.73l3.46,1.63.86.41c.63.45.79.14.48-.94a11,11,0,0,0-1.41,1.29L67.45,19.2c-.25.23-.66.75-1,.8-.81.1-2-1.1-2.61-1.59-.45-.36-.88-.74-1.3-1.14l-.62-.6c-.29-.48-.45-.33-.5.45.09.19,1.53.38,1.77.44l1.88.48c1,.24,2.59.35,3.39.92l-.69-.9.07.22L68,17.1c.27-.19.27-.21,0-.05l-.57.32c-.37.21-.73.43-1.11.63s-1.45.82-1.7.29.28-1.48.3-1.95a3.21,3.21,0,0,0-.53-2,1.51,1.51,0,0,0-2.79.76c0,1.61.44,4.25,2.08,5A2,2,0,0,0,66,19.71c.77-.79.45-1.61.75-2.54.59-1.84-2.31-2.63-2.9-.79a1.82,1.82,0,0,0-.17,1c-.07.4.19.47.79.2.79.23,1,.11.6-.38-.07-.71-.39-1.35-.41-2.1l-2.8.75c.42.65-.25,2-.18,2.72A3.08,3.08,0,0,0,63.14,21C65,22.1,67,21.1,68.73,20.1c.77-.44,1.73-.85,2-1.81A2,2,0,0,0,69.28,16a50.73,50.73,0,0,0-7.06-1.8c-2.06-.4-4.32,1.07-3.28,3.37C59.75,19.4,62,20.87,63.58,22c1.93,1.35,3.74,1.39,5.54-.18.88-.77,1.73-1.58,2.6-2.37s1.53-1.31,1.42-2.4c-.12-1.26-1.21-1.75-2.24-2.23L67,12.93c-2.13-1-4.37-2-6.4-.26l2.56,1.06A5.79,5.79,0,0,1,63.4,12a2.89,2.89,0,0,1,.27-.71c-.71.26-.76.5-.16.71a7.5,7.5,0,0,0,1.62,1l1.42.91A40.32,40.32,0,0,1,72.41,18V15.92l-4.65,4.86h2.12l-.29-.28a1.57,1.57,0,0,0-1.82-.24l-.19.09,1.16-.15.62.87a1.52,1.52,0,0,0-1.52-1.5,1.49,1.49,0,0,0-.74.2l-2.52,1.68,2.06.54-.33-.63a1.51,1.51,0,0,0-2-.53l-1.4,1L65.1,23.1a6,6,0,0,0-.26-2.26,1.5,1.5,0,0,0-1.87-1,1.42,1.42,0,0,0-.63.36L60.2,22l2.51,1.46.79-4a1.51,1.51,0,0,0-2.74-1.15l-3.23,5.53,2.8.76C60,20.8,62,17.28,62.15,13.49A1.5,1.5,0,0,0,60.62,12a1.47,1.47,0,0,0-1,.42A23.3,23.3,0,0,0,55,21.1a1.51,1.51,0,0,0,2.9.8q1.53-4.53,3.17-9l.77-2.07a8.46,8.46,0,0,0,.51-1.38c.06-.42.21-.06-.06-.07a9.1,9.1,0,0,1,4,1.58,35.3,35.3,0,0,1,6.9,5c1.89,1.84,3.63,3.7,6.15,4.67l.8-2.89c-2.79-.7-5.92-.82-8.46.72a7.14,7.14,0,0,0-3.58,6,1.52,1.52,0,0,0,2.56,1.06,10.15,10.15,0,0,1,11.33-3c1.82.66,2.6-2.24.79-2.89Z" transform="translate(0 0)"/><path d="M49.11,45.43a1.5,1.5,0,1,0-1.5-1.5A1.5,1.5,0,0,0,49.11,45.43Z" transform="translate(0 0)"/><path d="M63.18,6.34A36.65,36.65,0,0,0,53.3,2.1l-.4,3A20.55,20.55,0,0,1,62.43,9l.76-2.8a47.45,47.45,0,0,0-6.63.46c-1.62.23-3.82.44-4.54,2.2a2.37,2.37,0,0,0,2.26,3.2,3,3,0,0,0,2.18-.91c.65-.65,1-1.76,1.79-2.17L56,7.32l-2.17,6.85,2.89.8A18.14,18.14,0,0,1,58.85,9.1l-2.79-.8-.57,6.1c-.16,1.77,2.43,1.9,3,.4l1.35-3.88L56.9,10.1,51.54,28.66l2.89.8A82.36,82.36,0,0,1,57.94,16.1c.52-1.6-2-2.7-2.74-1.16A25.61,25.61,0,0,0,53,30.87c.27,1.55,2.47,1.3,2.89,0L59,21l-2.89-.8A32.55,32.55,0,0,0,54.69,29c0,1.66,2.6,2.08,3,.4L59,22.51a1.52,1.52,0,0,0-2.48-1.41A60.62,60.62,0,0,0,46.3,33.4L49,34.5a69,69,0,0,1,7.1-16.14L53.4,17.2a73.79,73.79,0,0,0-3.91,16.25h3a57.39,57.39,0,0,1,2.14-15.63c.52-1.89-2.25-2.59-2.9-.8Q49,24.51,47,32.21l2.89.8a52.85,52.85,0,0,1,5-15.64l-2.79-1.16-.44,2.73,3,.4c.3-3.08,1.58-6,1-9.14a6.22,6.22,0,0,0-4.8-5.31l-.4,3,5.4.69c1.56.2,1.93-2.09.76-2.79l-4.85-3L51,5.61a3.11,3.11,0,0,0,2.27-.83c1.08-.86.12-2.52-1.06-2.56l-9-.3c-2-.07-1.89,2.83,0,3a40.22,40.22,0,0,0,6.4,0A1.5,1.5,0,0,0,50,2a27.73,27.73,0,0,0-16.88.39l1.46,2.51.46-.52c.77-.88.34-2.7-1.06-2.56-5.43.54-11.48,1.33-15.1,5.92a1.51,1.51,0,0,0,1.83,2.34c4.1-1.74,8.36-3.56,12.84-4s9.19.9,13.82.51c1.91-.17,1.92-3.17,0-3C42.45,4,37.62,2.55,32.69,3.2,28,3.81,23.56,5.67,19.2,7.52L21,9.88c3.12-4,8.28-4.58,13-5l-1.07-2.6-.46.52c-.91,1-.06,3,1.46,2.51a24.78,24.78,0,0,1,15.28-.4L49.62,2a40.22,40.22,0,0,1-6.4,0V5l9,.3-1-2.6L51,2.61a1.51,1.51,0,0,0-.76,2.79l4.86,2.93.75-2.8-5.4-.69c-1.67-.22-2.07,2.66-.4,2.94,4.94.84,1.84,8.57,1.55,11.56-.17,1.66,2.67,2.07,2.94.4L55,17c.25-1.54-1.91-2.8-2.74-1.16A55.52,55.52,0,0,0,47,32.21c-.29,1.86,2.39,2.71,2.89.8q2-7.71,4.75-15.19l-2.9-.8a60.85,60.85,0,0,0-2.24,16.43c0,2,2.76,1.86,3,0A70.23,70.23,0,0,1,56.31,18c.6-1.63-1.89-2.57-2.74-1.16a71.67,71.67,0,0,0-7.4,16.87,1.5,1.5,0,0,0,2.74,1.15,57.21,57.21,0,0,1,9.76-11.68l-2.5-1.46-1.4,6.86,2.95.4A29.37,29.37,0,0,1,59,21c.57-1.85-2.31-2.63-2.89-.8L53,30.1H55.9a22.22,22.22,0,0,1,1.92-13.62L55,15.3A81.34,81.34,0,0,0,51.5,28.66c-.28,1.86,2.34,2.71,2.89.8l5.36-18.54c.54-1.87-2.27-2.6-2.89-.8L55.55,14l2.94.4.57-6.1c.14-1.52-2.1-2-2.8-.76a20.59,20.59,0,0,0-2.39,6.63,1.5,1.5,0,0,0,2.89.8L58.94,8.1a1.52,1.52,0,0,0-2.21-1.69,5.62,5.62,0,0,0-2,2.19c-.17.25-1.26,1.44,0,1.55A9.21,9.21,0,0,0,56,9.79a40.18,40.18,0,0,1,7.26-.58A1.51,1.51,0,0,0,64,6.42,23.5,23.5,0,0,0,52.9,2.1c-1.7-.23-2,2.52-.4,2.94A33.78,33.78,0,0,1,61.67,9c1.65,1,3.16-1.59,1.51-2.59Z" transform="translate(0 0)"/><path d="M55,14.1a16.51,16.51,0,0,0-6.44-9.38l.69,1.69-1.19.69.21.37a5.34,5.34,0,0,0,.39.75A16.63,16.63,0,0,1,49.44,10a20.87,20.87,0,0,1,.93,3.49,19.06,19.06,0,0,1-.19,7.22h2.89l-1.66-7.17A48.91,48.91,0,0,0,49.8,7a3.67,3.67,0,0,0-4.2-2.58,5.52,5.52,0,0,0-2.37,1.27c-.76.64-1.38,1.6-2.35,1.93a1.5,1.5,0,0,0,.8,2.89,5.09,5.09,0,0,0,1.69-.64,4.59,4.59,0,0,0,.87-.48h.19c-.15-.57-.3-.7-.46-.39-.44.18-1.1,1.49-1.39,1.89L41,13c-1,1.42,1.16,2.93,2.35,1.82l5.86-5.47L47.09,7.24,43.77,11.5a1.51,1.51,0,0,0,1.82,2.35L48,12.78l-2-2.06-3.74,7.19L45,19.1a14.2,14.2,0,0,1,2.73-4.31L45.38,13,41.09,21.4c-.73,1.43,1.21,3.2,2.36,1.82l4.65-5.59-2.35-1.81L42.25,22l2.59,1.52,5.61-11.69L47.71,10.7a41.25,41.25,0,0,0-2.29,7.54l2.89.8.18-.9c.3-1.56-1.94-2.77-2.75-1.15a74.07,74.07,0,0,0-4.47,11.2l2.9.8a33.26,33.26,0,0,1,4.26-11.64L45.69,16.2a66.85,66.85,0,0,0-3.78,12.05,1.5,1.5,0,0,0,2.9.79h0l2.13-5.68L44,22.53,41,36.34l2.94.4a29.84,29.84,0,0,1,4.8-18L46,17.54A81.76,81.76,0,0,0,43.65,32.7c-.1,1.7,2.54,2,3,.4a110.8,110.8,0,0,1,5.56-16.85L49.42,15.1,44.58,33.34h2.9a42.28,42.28,0,0,1-.28-8.71,41.21,41.21,0,0,1,.51-4.13c.18-1,.34-3.21,1.74-3.16l-1.3-2.24a32.33,32.33,0,0,0-4.68,13.59c-.74,5.11-.68,10.38-2.29,15.33-.52,1.58,2,2.73,2.74,1.15a61.17,61.17,0,0,1,7.86-13.26l-2.51-1.46a139.28,139.28,0,0,0-4,14.59l2.89.79a49.46,49.46,0,0,1,3.36-12l-2.74-1.15L43.59,47.19h2.89a37.46,37.46,0,0,1,0-9.81c.18-1.45-2.21-2.08-2.8-.75-1.79,3.93-3.67,8.82-.87,12.77.19.27.63,1.05.94,1.16.11.2.15.18.14-.06s0-.25-.11-.11a3.49,3.49,0,0,0-.78.42l-3.36,1.78c-.76.4-5.93,3.56-6.19,2.37l-1,1.85a32.5,32.5,0,0,0,13.83-6.18c1.24-1,.62-3.27-1.15-2.74L37,50.31c-1.38.42-2.76.85-4.15,1.25-.56.16-3.19.75-2.56-.48a10.21,10.21,0,0,1,2.54-2.41,33.14,33.14,0,0,1,3.07-2.34,39.49,39.49,0,0,1,6.71-3.63L40.8,40.34l-15.94,15,2.36,1.82A31.7,31.7,0,0,1,39,47.55L37.16,45.2l-6.88,6.54a1.5,1.5,0,0,0,1.78,2.36A42.73,42.73,0,0,0,39.3,49L37.18,46.9l-6.31,5.53c-1.47,1.28.66,3.36,2.12,2.12l6.79-5.75-2.12-2.13-2.33,2.1c-1.47,1.33.68,3.33,2.12,2.12a24.05,24.05,0,0,0,5.12-5.58c1-1.53-1.13-2.81-2.36-1.82A8.65,8.65,0,0,0,37.06,49a1.51,1.51,0,0,0,2.5,1.46l3.33-2.71-2.12-2.12-2.48,3.08a1.5,1.5,0,0,0,2.12,2.12l4.08-3.26a1.52,1.52,0,0,0,0-2.14,1.58,1.58,0,0,0-1-.42q-9.84,1-19.71,1.47l.75,2.79A29.25,29.25,0,0,1,38,44l-.4-3a124.07,124.07,0,0,0-14.29,6.24l1.52,2.59a104.24,104.24,0,0,1,10.4-5.5c1.66-.76.39-3-1.15-2.74l-11.72,2,1.15,2.74,2.37-1.36L27,44.27,27.4,44c.73-.24.65-.73-.22-1.45-.27,1.32,1.47,2.72,2.5,1.46,4-4.87,10.55-5.31,16.39-5.61l-.4-3A94.37,94.37,0,0,0,29.52,40.1c-1.76.68-1.09,3.45.8,2.89L43.9,39,42.75,36.2,38.42,39c-1.11.73-.83,3,.76,2.8a11.72,11.72,0,0,0,5.51-2.11c1.24-.91.55-3.43-1.16-2.74l-8.7,3.51L36,43.23l3.77-1.93c1.61-.82.42-3-1.15-2.74l-6.74,1.19L29,40.27l-1,.17q-.77-.11,0,.69a9.07,9.07,0,0,0,.67-.72,56.5,56.5,0,0,1,10.52-6.6l-1.82-2.36-9.94,8c-1.36,1.1.38,3.15,1.82,2.36l11.17-6.14L38.94,33.1l-5.12,3.48a1.5,1.5,0,0,0,1.51,2.59l8.07-4.55-1.82-2.36-2.73,3.39c-1,1.2.34,3.47,1.82,2.36a7.8,7.8,0,0,0,3.24-7A1.52,1.52,0,0,0,41.35,30l-7.19,5.92L36.28,38a39.76,39.76,0,0,1,4.86-4.85c.68-.57,1.77-1.1,2.07-2a16.42,16.42,0,0,0,.3-3.7l.28-3.76A5.16,5.16,0,0,0,43.6,21c-1-2.1-3.4-2-5.25-1.35l1.46,2.53,7-6.49c1-1,0-3-1.46-2.5l-6.07,2.34L41,17.75a1.49,1.49,0,0,1,1.23-.65A1.53,1.53,0,0,0,43.65,16c.22-1,1-1.73,1.29-2.72a3.13,3.13,0,0,0-.35-2.6,2.72,2.72,0,0,0-2.36-1.14c-1.12,0-2,.88-3.13.82l1.44,1.9a10.9,10.9,0,0,1,2.62-4.33,1.53,1.53,0,0,0,0-2.15,1.56,1.56,0,0,0-.62-.36c-3.17-1.13-5.88,1.27-9,1.23s-6.19-1.24-9,.65A1.5,1.5,0,0,0,26,9.89,19.88,19.88,0,0,1,36.56,8.1l-.75-2.75A72.29,72.29,0,0,0,24.27,13.1c-1.36,1.11.38,3.15,1.82,2.36A81.33,81.33,0,0,1,39.34,9.64L37.88,7.1l-7.59,6.32c-1.31,1.08.4,3.31,1.81,2.36l9-6.11L39.33,7.31A39,39,0,0,0,33,14.79a1.51,1.51,0,0,0,2,2l7.48-4.9L40.43,9.83,33.62,20c-1,1.42,1.18,3,2.36,1.81l5.51-5.61-2.35-1.81a66.62,66.62,0,0,0-5.81,11.22c-.54,1.31,1.16,2.23,2.2,1.69l3.71-1.91L37.43,23,29.6,31.76a1.5,1.5,0,0,0,2.12,2.12l11.7-11.09A1.51,1.51,0,0,0,42,20.29a24.81,24.81,0,0,0-7.55,4.17c-1.32,1.05.45,3.37,1.82,2.35l5.89-4.34L40.3,20.1A59.5,59.5,0,0,0,29.66,34,1.51,1.51,0,0,0,32,35.83L40.39,28,38,26.18,33.7,31.77c-1.09,1.42,1.15,2.85,2.36,1.81l7.71-6.66L41.44,25.1l-3,5.4a1.51,1.51,0,0,0,2.35,1.82l3-2.65c1.48-1.29-.64-3.29-2.12-2.12l-3.48,2.76c-1.52,1.19.62,3.3,2.12,2.12l3.48-2.76-2.12-2.12-3,2.64L41,32l3-5.39a1.51,1.51,0,0,0-2.35-1.82L34,31.46l2.35,1.82,4.31-5.58c1.08-1.39-1.16-2.93-2.36-1.82l-8.37,7.83,2.35,1.81A57.27,57.27,0,0,1,42.42,22.23c1.19-1.13-.41-3.39-1.81-2.36l-5.9,4.35,1.82,2.36a20.76,20.76,0,0,1,6.23-3.4L41.3,20.67,29.6,31.76l2.12,2.12,7.83-8.78a1.51,1.51,0,0,0-1.82-2.36L34,24.67l2.21,1.7a62.24,62.24,0,0,1,5.51-10.51c.93-1.44-1.17-3-2.36-1.82l-5.51,5.61,2.35,1.82L43.09,11.4a1.49,1.49,0,0,0-2-2.06l-7.47,4.91,2,2a35.78,35.78,0,0,1,5.83-6.87c1.24-1.08-.39-3.28-1.81-2.28l-9,6.11,1.82,2.35L40,9.22a1.5,1.5,0,0,0-1.46-2.5,86.18,86.18,0,0,0-14,6.12l1.82,2.35a68.79,68.79,0,0,1,11-7.25c1.42-.77.61-2.66-.76-2.8A22.77,22.77,0,0,0,24.48,7.3L26,9.89c2.36-1.56,5.38-.16,8-.24a13.15,13.15,0,0,0,3.82-.85c1.3-.45,2.58-1,3.93-.49L41,5.81a14.28,14.28,0,0,0-3.39,5.65,1.52,1.52,0,0,0,1.09,1.85,1.49,1.49,0,0,0,.36,0A4.24,4.24,0,0,0,40.9,13l.78-.33a1.4,1.4,0,0,1,.36-.13c.23,0,.24-.11,0-.3-.11,1-1.11,1.89-1.33,2.92l1.49-1.1a4.63,4.63,0,0,0-3.84,2.13A1.53,1.53,0,0,0,39,18.3a1.59,1.59,0,0,0,1.11.14l6.07-2.34-1.46-2.51-7,6.49a1.51,1.51,0,0,0,1.46,2.5c.43-.14,1.51-.65,1.73-.14a4.51,4.51,0,0,1-.09,1.27l-.08,1.39-.42,5.65.74-1.3a42.88,42.88,0,0,0-6.85,6.41A1.5,1.5,0,0,0,36.28,38l7.19-5.89L40.91,31a4.81,4.81,0,0,1-1.76,4.38L41,37.75l2.74-3.39A1.51,1.51,0,0,0,41.93,32l-8.07,4.55,1.51,2.59,5.12-3.48a1.5,1.5,0,1,0-1.55-2.57L27.77,39.22l1.81,2.35,9.94-8c1.39-1.12-.38-3.08-1.81-2.35A62.89,62.89,0,0,0,30.4,35.5c-1.13.76-2.23,1.56-3.31,2.39a4.51,4.51,0,0,0-2,2.75,2.37,2.37,0,0,0,1.52,2.62c1.15.44,2.48,0,3.63-.19l9.14-1.62-1.15-2.74-3.77,1.93C33,41.39,34,44,35.61,43.38l8.71-3.52L43.17,37.1a8.76,8.76,0,0,1-4,1.7l.76,2.79,4.32-2.81c1.38-.9.54-3.25-1.15-2.75L29.52,40.1l.8,2.89a93.08,93.08,0,0,1,16.19-4.6c1.65-.32,1.28-3-.4-3-6.59.34-14,1-18.51,6.49l2.51,1.46a2.19,2.19,0,0,0-1.61-2.64,2.14,2.14,0,0,0-1.3.08,12.45,12.45,0,0,0-2.46,1.27L22,43.72c-1.56.9-.45,3,1.15,2.75l11.73-2-1.16-2.74a104.4,104.4,0,0,0-10.41,5.5,1.5,1.5,0,1,0,1.52,2.59A114.65,114.65,0,0,1,38.38,43.9c1.46-.54,1.4-3.17-.4-2.95a32.28,32.28,0,0,0-15,5.74c-1.12.8-.86,2.87.76,2.8Q33.61,49,43.45,48l-1.06-2.57-4.08,3.27,2.12,2.12,2.48-3.08a1.5,1.5,0,0,0-2.12-2.12l-3.33,2.71L40,49.81a6.29,6.29,0,0,1,2.38-4.2L40,43.79a21.89,21.89,0,0,1-4.65,5l2.12,2.12,2.33-2.09c1.45-1.31-.66-3.36-2.12-2.13L30.9,52.45,33,54.55,39.32,49c1.46-1.27-.66-3.37-2.12-2.12a37.85,37.85,0,0,1-6.63,4.59l1.82,2.36,6.88-6.54c1.29-1.23-.35-3.07-1.82-2.36A34.73,34.73,0,0,0,24.6,55.63C23.55,57,25.76,58.57,27,57.45l15.93-15c1.35-1.27-.36-3-1.81-2.36a40.52,40.52,0,0,0-12.27,8.17c-1,1-2,2.21-1.64,3.75A3.82,3.82,0,0,0,30,54.76c1.68.43,3.43-.24,5-.72l10.88-3.26L44.74,48a30.4,30.4,0,0,1-13.13,5.87,1.53,1.53,0,0,0-1.05,1.85,3.3,3.3,0,0,0,2.3,2.41A5.47,5.47,0,0,0,37,57.4c2.82-1.44,5.81-2.82,8.48-4.5a2.67,2.67,0,0,0,1.32-3.06c-.38-1.21-1.56-1.93-2-3.13-1.07-2.87.31-6,1.47-8.57l-2.79-.76A39.61,39.61,0,0,0,43.64,48c.22,1.61,2.45,1.24,2.89,0l5.15-14.51c.56-1.58-2.07-2.73-2.74-1.16A51.55,51.55,0,0,0,45.28,45c-.28,1.86,2.47,2.72,2.89.79a141.59,141.59,0,0,1,4-14.58c.46-1.36-1.58-2.66-2.51-1.46a63.62,63.62,0,0,0-8.33,13.87l2.74,1.16c1.57-4.82,1.57-9.92,2.23-14.9.62-4.69,1.79-9.34,4.45-13.31a1.51,1.51,0,0,0-1.3-2.25c-4.12-.15-4.63,4.87-5,7.9a45.72,45.72,0,0,0,.13,11.86c.22,1.53,2.55,1.33,2.9,0l4.83-18.21c.42-1.58-2.06-2.77-2.74-1.15A116.75,116.75,0,0,0,43.7,32.3l3,.4a76.75,76.75,0,0,1,2.24-14.37,1.5,1.5,0,0,0-2.74-1.15A32.53,32.53,0,0,0,41,36.74c.1,1.61,2.57,2.14,3,.4l3-13.81a1.5,1.5,0,0,0-2.89-.8L42,28.22l2.9.79a66.32,66.32,0,0,1,3.77-12c.67-1.6-1.9-2.57-2.74-1.15a35.51,35.51,0,0,0-4.57,12.35,1.51,1.51,0,0,0,2.9.8,68.15,68.15,0,0,1,4.16-10.49l-2.74-1.15-.17.89c-.37,1.88,2.51,2.69,2.89.8a40.52,40.52,0,0,1,2.3-7.54c.64-1.56-2-2.68-2.75-1.15L42.22,22c-.83,1.72,1.63,3.22,2.59,1.52l3.5-6.22c.8-1.43-1.23-3.17-2.36-1.82L41.3,21.1l2.35,1.82,4.29-8.43c.74-1.44-1.15-3.14-2.35-1.81a18.17,18.17,0,0,0-3.5,5.63c-.63,1.58,2,2.65,2.74,1.16l3.74-7.19a1.51,1.51,0,0,0-2-2.06L44.07,11.3l1.82,2.36L49.21,9.4c1.16-1.48-.67-3.48-2.12-2.12l-5.86,5.47,2.36,1.81c1-1.29,2-2.56,2.88-3.89a2.7,2.7,0,0,0,.32-3,2.85,2.85,0,0,0-2.66-1.21c-1.23.08-2.07,1.07-3.25,1.24l.8,2.89c1.6-.55,2.39-1.73,3.67-2.7.58-.44,1.18-.71,1.56,0a9.41,9.41,0,0,1,.61,2.21l2.66,11.4a1.51,1.51,0,0,0,2.89,0A22.54,22.54,0,0,0,52.61,10a14.65,14.65,0,0,0-2.38-5,2.17,2.17,0,0,0-3.84.67,1.53,1.53,0,0,0,.69,1.69,13.25,13.25,0,0,1,5,7.59c.47,1.87,3.37,1.08,2.9-.8Z" transform="translate(0 0)"/><path d="M40.53,23.85a45.51,45.51,0,0,0-12.28,5.51l1.82,2.36a53.23,53.23,0,0,0,8.81-8.62,1.51,1.51,0,0,0-1.46-2.51A62,62,0,0,0,25.28,26l1.81,2.36,7.47-8.91c.89-1.07.08-3-1.46-2.51a11.6,11.6,0,0,0-4.24,2.4c-1.31,1.14.36,3.19,1.81,2.36l6.19-3.54L35,15.79a39.23,39.23,0,0,0-5.13,5.57l2.59,1.52a43.83,43.83,0,0,0,2.7-5c.6-1.33,1.1-3-.31-4s-3,0-4.14.87L26,18.27l1.82,2.36,6.46-5.29C35.6,14.27,33.88,12,32.47,13L25,18.1l2,2,3.9-5.68c.83-1.21-.84-2.92-2.05-2l-4.05,2.9c-1.54,1.1-.16,3.62,1.52,2.59l5.08-3.13a1.5,1.5,0,0,0-1.51-2.59L24.59,15.1l2.05,2L31,9.84c.62-1-.44-2.7-1.7-2.2a29.24,29.24,0,0,0-7.26,4.2L24.17,14l3.66-3.53A1.5,1.5,0,0,0,26,8.1l-4.66,2.5,2,2.06,1.14-2.3A1.51,1.51,0,0,0,22.88,8.1a13.9,13.9,0,0,0-5.28,2.39l2,2a12.06,12.06,0,0,0,1.63-3.62,1.52,1.52,0,0,0-2.21-1.69A49.07,49.07,0,0,0,1.52,21,1.51,1.51,0,0,0,3.34,23.4c5.58-2.95,9.57-9.14,16.15-10L18,10.84l-7.08,6.09c-1.27,1.09.43,3.36,1.82,2.35L24.08,11.1,22,9.1l-7.14,11c-.93,1.43,1.19,3,2.36,1.82l9.05-9.43-2.35-1.82a41.13,41.13,0,0,0-4.23,7.87,1.47,1.47,0,0,0,.87,1.76,1.53,1.53,0,0,0,1.87-.61l5.38-7L25.23,11.1a101.43,101.43,0,0,0-5.56,13.63h2.9a3.33,3.33,0,0,1,1.29-3.13l-2.2-1.69L20.6,27.1a1.53,1.53,0,0,0,.87,1.77,1.48,1.48,0,0,0,1.87-.62l4.28-9.65-2.74-1.16-2.22,7.38c-.48,1.59,2,2.73,2.74,1.16a38.39,38.39,0,0,1,5.12-8.4L28,16.16l-1.64,7.12,2.95.4.15-1.88-2.26,1.3a7.23,7.23,0,0,0,9.3-1.57l-2.36-1.82c-2.14,4.44-4.29,9-7.38,12.85L29.28,34a37.29,37.29,0,0,1,4.52-8.56c1-1.38-1.26-3.12-2.36-1.82a46.15,46.15,0,0,0-6.31,9.64l2.59,1.51,1.84-3.93L26.81,29.7l-2.6,7.87,2.95.4a14.8,14.8,0,0,1,3.72-8.19l-2.51-1.46-3.11,9.35,2.89.8a18.41,18.41,0,0,1,3.73-6.62l-2.51-1.46-1.5,4.53a13.09,13.09,0,0,1-.68,2,13.55,13.55,0,0,1-1.56,1.91L19.4,46.47l2.5,1.46a41.67,41.67,0,0,1,5.29-9.38c1.06-1.45-1.18-2.9-2.36-1.83a37.51,37.51,0,0,0-5.61,6.83L22,44.3c.43-4.88,2.39-9.46,4.32-13.91.64-1.45-1.07-3.14-2.35-1.81a20,20,0,0,0-4.77,8.09A1.5,1.5,0,0,0,22,37.82a58.3,58.3,0,0,1,5.92-9.35L25.36,27a98.74,98.74,0,0,0-2.92,11.62c-.35,1.88,2.49,2.7,2.89.8l2.05-9.61c.35-1.6-1.88-2.71-2.74-1.16a40.86,40.86,0,0,0-3.89,10l3,.39a26.55,26.55,0,0,1,1.4-11.69c.6-1.72-1.82-2.43-2.75-1.16a14.2,14.2,0,0,0-2.56,6.74c-.19,1.52,2.11,2,2.79.76l4.15-7.38L24.14,24.8l-2.62,5.62,2.8.76V27.79a1.52,1.52,0,0,0-1.52-1.5,1.49,1.49,0,0,0-.74.2A27.14,27.14,0,0,0,16.75,31l2.58,1.06L19,26.6c-.08-1.38-2.07-2.17-2.79-.76a15.15,15.15,0,0,0-1.68,6.35,1.52,1.52,0,0,0,1.55,1.47A1.5,1.5,0,0,0,17.33,33a70.13,70.13,0,0,0,4.49-10.06l-2.95-.4-.46,5.17h3l.1-4.09h-3l-.07,2.92h3a38,38,0,0,1,.76-8.24c.32-1.59-1.89-2.73-2.74-1.16a23.4,23.4,0,0,0-2.59,7.49l2.94.4a23.63,23.63,0,0,1,1.41-6.7c.57-1.59-2-2.7-2.74-1.16a49,49,0,0,0-3.57,10.4H17.8a20.45,20.45,0,0,1-.64-5.22c0-1.82-2.34-1.87-2.95-.4a28.44,28.44,0,0,0-1.74,6h2.9a5.77,5.77,0,0,1,.22-3,11.31,11.31,0,0,0,.54-1.36c.09-.44.1-.89.21-1.34a8.33,8.33,0,0,1,2.9-4.48,1.52,1.52,0,0,0,0-2.14,1.58,1.58,0,0,0-.29-.22,4.47,4.47,0,0,0-5.53,1,5.61,5.61,0,0,0-.49,6.06c.65,1.45,2.74.61,2.79-.75L16,14.1a1.52,1.52,0,0,0-1.53-1.49,1.53,1.53,0,0,0-1.27.73A19.5,19.5,0,0,0,11.08,23l2.79-.76a7.47,7.47,0,0,1-1.11-4.37,1.5,1.5,0,0,0-1.54-1.48,1.48,1.48,0,0,0-.71.19L5.11,19.5c-1.34.74-3,1.42-3.78,2.86S1,26.1,1.06,27.82l.28,6.42a1.51,1.51,0,0,0,3,.39l3.6-14.1a1.51,1.51,0,0,0-1.13-1.81,1.5,1.5,0,0,0-1.61.65C4.2,20.69,3,22.56,3,24.29a2.3,2.3,0,0,0,2.27,2.33,2.41,2.41,0,0,0,1-.24c1.65-.72,2.79-2.72,3.91-4.05l4.06-4.87-2.36-1.81L7.7,25.3l2.59,1.51,2.39-5.52-2.8-.75a44.92,44.92,0,0,0,0,7.15c.12,1.61,2.52,2.13,2.95.4l1.31-5.27-3-.4L11.38,30l2.95-.4c-.41-1.76-1.43-3.69-3.42-3.93a3,3,0,0,0-3.46,2.46,3.57,3.57,0,0,0,0,.47l3-.4-.47-2.94c-.24-1.45-2.63-1.41-2.9,0L6,30.55h2.8L8,27.64a1.51,1.51,0,0,0-2.95.4l-.38,3.49h3a18.79,18.79,0,0,1,.22-5.75L5,25.38A45.23,45.23,0,0,0,6.81,35.1a1.51,1.51,0,0,0,2.9-.8,32.23,32.23,0,0,1-.07-8.44l-2.94.4L8,35.78c.23,1.66,3.07,1.28,3-.4a21.3,21.3,0,0,1,.32-5.58H8.36l1.73,4.61c.66,1.77,3.39,1.1,2.89-.8l-.22-.83a1.5,1.5,0,0,0-2.89.8L11,38.26a1.51,1.51,0,0,0,3-.4,65.79,65.79,0,0,1,1-9.6l-2.94-.4L12,36a1.5,1.5,0,0,0,3,0,18.1,18.1,0,0,1,1.21-5.58l-3-.4.77,7.8c.18,1.89,3,2,3,0a21.8,21.8,0,0,1,1.28-7.06H15.45l1.1,7.79c.25,1.73,2.88,1.21,2.95-.4l.28-6.82-3,.4.91,5.81c.28,1.76,2.84,1.19,3-.4l.52-8.1h-3l.45,7c.12,1.92,3.12,1.94,3,0l-.45-7a1.5,1.5,0,0,0-3,0l-.52,8.06,2.94-.39-.91-5.82c-.27-1.74-2.88-1.22-2.94.4l-.28,6.82,3-.4-1.11-7.78c-.23-1.61-2.45-1.24-2.89,0a24.38,24.38,0,0,0-1.39,7.85h3L16.34,30a1.5,1.5,0,0,0-2.94-.4A20.5,20.5,0,0,0,12,36h3l.08-8.14c0-1.65-2.63-2.1-3-.4A69.72,69.72,0,0,0,11,37.86l2.94-.4-1.17-4.68-2.89.8.22.83,2.89-.8L11.25,29c-.47-1.25-2.57-1.58-2.89,0a24,24,0,0,0-.43,6.38l3-.4L9.59,25.5a1.49,1.49,0,0,0-1.65-1.07,1.53,1.53,0,0,0-1.3,1.47,35,35,0,0,0,.17,9.2l2.9-.8a41.75,41.75,0,0,1-1.8-9c-.14-1.57-2.59-2.18-2.95-.4a21.18,21.18,0,0,0-.33,6.55,1.5,1.5,0,0,0,3,0L8,28l-2.94.4L6,31.35c.4,1.32,2.61,1.53,2.89,0l1-5.34H7L7.42,29c.27,1.68,3,1.27,2.95-.4,0,.37-.23,0,0,0a.59.59,0,0,1,.35.18c.42.28.55,1.14.65,1.58a1.51,1.51,0,0,0,3-.4l-.19-7.53a1.5,1.5,0,0,0-2.94-.4L9.88,27.25l2.94.4a44.92,44.92,0,0,1,0-7.15c.12-1.44-2.21-2.12-2.79-.76L7.7,25.3c-.75,1.75,1.83,3.28,2.59,1.51l4.17-9.65c.61-1.41-1.16-3.25-2.36-1.82l-5,6c-.41.49-.82,1-1.25,1.49a6.53,6.53,0,0,1-.55.63c-.55.31-.31.48.71.52.22-.11.59-1.37.74-1.64a12,12,0,0,1,1-1.45L5,19.73,1.39,33.84l3,.4L4.11,29.1,4,26.58A8.41,8.41,0,0,1,4,23.93c.34-1,2.47-1.72,3.33-2.19L12,19.1,9.75,17.8a10.26,10.26,0,0,0,1.52,5.89,1.52,1.52,0,0,0,2.8-.76,16.38,16.38,0,0,1,1.72-8.14L13,14.1l-.31,7.63L15.5,21c-.55-1.22.05-4,1.92-3l-.3-2.35a10.89,10.89,0,0,0-3.72,6c-.09.44-.11.95-.23,1.36-.18.6-.5,1.13-.65,1.75a9.51,9.51,0,0,0,0,3.94,1.51,1.51,0,0,0,2.9,0,27.84,27.84,0,0,1,1.73-6l-2.94-.4a23.38,23.38,0,0,0,.75,6,1.51,1.51,0,0,0,2.89,0A46,46,0,0,1,21,18.64l-2.7-1.16A26.68,26.68,0,0,0,16.79,25c-.09,1.66,2.67,2.08,2.95.4A20.82,20.82,0,0,1,22,18.61l-2.75-1.16a43.17,43.17,0,0,0-.86,9,1.5,1.5,0,0,0,3,0h0l.07-2.92a1.5,1.5,0,0,0-3,0l-.1,4.09c-.05,2,2.83,1.89,3,0l.46-5.17c.18-1.74-2.39-1.85-2.92-.35a65,65,0,0,1-4.19,9.33l2.8.76a11.49,11.49,0,0,1,1.27-4.83L16,26.6l.34,5.5a1.52,1.52,0,0,0,2.56,1.06A24.23,24.23,0,0,1,23.6,29.1l-2.26-1.29V31.2c0,1.4,2.15,2.15,2.8.75l2.61-5.61c.8-1.72-1.63-3.23-2.59-1.52L20,32.18l2.8.76A11,11,0,0,1,25,27.72l-2.74-1.16A28.75,28.75,0,0,0,20.7,39.1c.16,1.58,2.52,2.17,2.95.4a37.17,37.17,0,0,1,3.58-9.27l-2.74-1.16-2,9.61,2.89.8a98.74,98.74,0,0,1,2.92-11.62c.43-1.36-1.57-2.67-2.51-1.46a63.71,63.71,0,0,0-6.38,10l2.74,1.16a16.83,16.83,0,0,1,4-6.77L23.74,29C21.58,34,19.48,39,19,44.39c-.14,1.62,2,1.86,2.8.76A34.09,34.09,0,0,1,27,38.93L24.6,37.12A43.87,43.87,0,0,0,19,47.1c-.55,1.38,1.58,2.6,2.51,1.46l6.7-8.21a21.16,21.16,0,0,0,1.52-1.88,9.54,9.54,0,0,0,.87-2.32l1.65-5a1.5,1.5,0,0,0-1.09-1.83,1.51,1.51,0,0,0-1.42.37,22.2,22.2,0,0,0-4.49,7.94c-.59,1.85,2.28,2.62,2.89.8l3.11-9.33a1.5,1.5,0,0,0-1.09-1.83,1.51,1.51,0,0,0-1.42.37A18.34,18.34,0,0,0,24.16,38c-.2,1.76,2.44,1.93,3,.4l2.6-7.87c.52-1.59-2-2.71-2.74-1.16l-1.84,3.94c-.81,1.73,1.74,3.26,2.59,1.51a43,43,0,0,1,5.84-9L31.21,24a40.05,40.05,0,0,0-4.82,9.27c-.51,1.37,1.58,2.63,2.5,1.46a69.41,69.41,0,0,0,7.85-13.46c.68-1.41-1.24-3.25-2.36-1.82a4.25,4.25,0,0,1-5.66,1.11,1.51,1.51,0,0,0-2.06.58,1.45,1.45,0,0,0-.19.71l-.15,1.88c-.14,1.68,2.57,2,2.94.39L30.91,17c.3-1.34-1.51-2.71-2.51-1.46a41.41,41.41,0,0,0-5.59,9l2.74,1.15,2.22-7.38c.48-1.59-2-2.74-2.74-1.16l-4.28,9.66,2.75,1.15,1.05-7.22c.17-1.12-1-2.56-2.2-1.69a6.51,6.51,0,0,0-2.68,6.51c.25,1.57,2.48,1.28,2.9,0a93.85,93.85,0,0,1,5.25-12.91,1.5,1.5,0,0,0-2.59-1.51l-5.38,7,2.74,1.15a38.17,38.17,0,0,1,3.93-7.14c1-1.41-1.19-3-2.36-1.82l-9,9.43,2.35,1.81,7.16-11c.78-1.21-.83-2.94-2.06-2l-11.3,8.18,1.76,2.44L20.15,13c1.28-1.09-.16-2.68-1.46-2.5-6.94,1-11,7.26-16.87,10.35l1.82,2.35a47,47,0,0,1,17-13.3l-2.21-1.7a9.48,9.48,0,0,1-1.37,2.89c-.8,1.2.84,3,2.05,2A12,12,0,0,1,23.68,11L22,8.83,20.84,11.1a1.5,1.5,0,0,0,.59,2.05,1.48,1.48,0,0,0,1.47,0l4.65-2.5L25.73,8.31l-3.66,3.53c-1.43,1.38.64,3.28,2.12,2.12a24.77,24.77,0,0,1,5.94-3.43l-1.69-2.2L24,15.6a1.53,1.53,0,0,0,.61,2.06,1.55,1.55,0,0,0,1.45,0l5.3-2.88-1.51-2.59-5.05,3.13,1.52,2.59L30.4,15l-2-2.06-3.9,5.69a1.51,1.51,0,0,0,2,2L34,15.57l-1.82-2.35-6.47,5.29c-1.3,1.06.45,3.36,1.82,2.35l2.78-2,1.58-1.17c.31-.23,1.16-.64,1.34-1,.37-.18.22-.4-.44-.68-.11.27-.23.54-.36.8-.23.5-.48,1-.73,1.48-.55,1-1.14,2.07-1.77,3.07-1,1.69,1.46,3,2.59,1.52a35.58,35.58,0,0,1,4.66-5c1.3-1.15-.37-3.18-1.82-2.35L29.16,19.1,31,21.45a8,8,0,0,1,2.91-1.62l-1.46-2.51L25,26.23a1.51,1.51,0,0,0,1.82,2.35,57.75,57.75,0,0,1,11.43-5.13L36.8,21A53.41,53.41,0,0,1,28,29.6c-1.34,1,.4,3.27,1.82,2.35a42.37,42.37,0,0,1,11.56-5.2,1.51,1.51,0,0,0-.8-2.9Z" transform="translate(0 0)"/><path d="M26.22,26a1.5,1.5,0,1,0-1.5-1.5A1.5,1.5,0,0,0,26.22,26Z" transform="translate(0 0)"/><path d="M23.83,52.52c-2.77,4.48-8,6.61-11.85,10A29.45,29.45,0,0,0,3.36,76.1l2.94.4c-.13-2.46-.19-4.94-.41-7.39-.16-1.84-1.19-4-3.4-3.73L4,66.83,4.12,61h-3a23.61,23.61,0,0,0,2.24,7.67c.61,1.26,2.34.75,2.74-.36L7,65.88H4l1.1,6.57c.26,1.65,3.07,1.28,2.9-.35-.41-5.38,3.37-9.51,6.79-13.18L12.49,57.1,8.77,65.27a1.5,1.5,0,0,0,2.59,1.51A49,49,0,0,1,22.59,54.3l-2.12-2.12-6.81,7.59a1.5,1.5,0,0,0,2.12,2.12l6.31-6.06-2.56-1.06A3.11,3.11,0,0,1,19,56.38l2.74,1.16a20.77,20.77,0,0,0,.92-9.19c-.14-1.1-1.66-2.21-2.57-1.06l-.57.73,2.35.3a11.77,11.77,0,0,1-.44-7.85C22,38,20.62,35.93,18,36.14c-1.08.09-2.21.88-3.29.75s-2.09-1.37-2.79-2.2a12.52,12.52,0,0,0-2.66-2.53,5.27,5.27,0,0,0-1.71-.72,4.8,4.8,0,0,0-.76-.11,2.53,2.53,0,0,0-.55,0c-.5,0-.48.33,0,1.06a1.52,1.52,0,0,0-2.51-1.46,7.71,7.71,0,0,0-2.36,7.82,1.52,1.52,0,0,0,2.74.35l3.53-5.56-2.8-.76a35,35,0,0,1-.62,6.85c-.37,1.88,2.48,2.7,2.89.8a28.65,28.65,0,0,1,2.31-6.67L6.63,33l-.11,8.2a1.51,1.51,0,0,0,3,.4,3.18,3.18,0,0,1,1.72-2.11L9,37.8,7.53,46.1l3,.4a20.15,20.15,0,0,1,1.13-9.07l-2.89-.8c-1,3.84-1.5,8.11,2,10.78,1,.69,2.14-.31,2.24-1.31q.51-5.09.52-10.2h-3L11,46.59a1.5,1.5,0,0,0,3,0,45.45,45.45,0,0,1,1-8.38h-2.9l1.41,6.3a1.51,1.51,0,1,0,3-.4,25,25,0,0,1,1-8.21l-2.94-.4a89.2,89.2,0,0,0,.09,9.25,1.5,1.5,0,1,0,3,0A28.14,28.14,0,0,1,19,36.46l-2.9-.36A39.06,39.06,0,0,0,17,49.25c.25,1,.55,2.08.89,3.1.18.54,1.11,2.18.8,2.78-.17.33-1.11.64-1.42.81L16,56.61,12.72,58.4l2,2.05A52.25,52.25,0,0,1,23,50.57l-2.12-2.12-6.48,6.77,2.5,1.46A60.06,60.06,0,0,1,20,49.27c.73-1.45-1.16-3.16-2.36-1.82l-4.81,5.4,2.36,1.82a64.84,64.84,0,0,1,4.37-8.39c.87-1.41-1.26-3.16-2.36-1.82l-4.4,5.4,2.56,1.06a12.1,12.1,0,0,1,1.39-5.23c.56-1.07-.39-2.69-1.69-2.21a7.56,7.56,0,0,0-3.36,2.32l2.36,1.81.74-1.16a1.52,1.52,0,0,0-.59-2.07,1.48,1.48,0,0,0-.71-.19c-2.39,0-3.31,2.19-3.32,4.26,0,2.69.07,5.39.1,8.09a1.5,1.5,0,0,0,3,0h0a11.15,11.15,0,0,1,1.94-5.3l-2.8-.76.28,5.14,2.95-.4-.48-1.47a1.52,1.52,0,0,0-1.9-1,1.46,1.46,0,0,0-.84.64L9.35,58.3l2.74.36a3.38,3.38,0,0,1,0-1.89l-2.95-.4A13.17,13.17,0,0,1,5,64.31l2.56,1.06c.07-2.15-1.13-3.69-2.37-5.31s-1.46-3.44-1.49-5.57l-.09-6.75V44.37c0-.53-.37-3.18.27-3.38L2,39.55v3.8a1.52,1.52,0,0,0,2.8.76,5.44,5.44,0,0,1,1.67-1.74L4.25,41.1l.56,5.79a1.5,1.5,0,0,0,3,0,15.72,15.72,0,0,1,1.09-4.1L6,42.39l.27,7.47a1.52,1.52,0,0,0,2.56,1.06l2-1.77-2.51-.66c.63,4.16,1.29,9.21-2.18,12.36l1.46-.38C6.49,60.1,6,58.83,5.67,57.84a19.75,19.75,0,0,1-1-4.62,21.9,21.9,0,0,1,1.16-9.29H2.94L4.6,55.72c.24,1.72,2.91,1.23,3-.4l.15-6.66c0-2-2.79-1.88-3,0A39.94,39.94,0,0,0,5.07,59.9c.26,1.5,2.54,1.35,2.9,0A36.66,36.66,0,0,0,9.11,48.57a1.5,1.5,0,1,0-3,0,30.32,30.32,0,0,0,1.21,9.84c.55,1.85,3.44,1.07,2.9-.79a27.67,27.67,0,0,1-1.11-9h-3a33.67,33.67,0,0,1-1,10.53H8a36.89,36.89,0,0,1-.27-10.44h-3l-.15,6.66,2.94-.4L5.83,43.1c-.23-1.59-2.46-1.23-2.89,0A24.12,24.12,0,0,0,1.71,53.66c.32,2.88.94,6.69,3.26,8.7a4.13,4.13,0,0,0,1.82,1,2.09,2.09,0,0,0,2-.92,10.92,10.92,0,0,0,2.31-4c1.18-3.49.62-7.23.08-10.78C11,46.45,9.43,46.34,8.68,47l-2,1.77,2.56,1.06L9,42.36A1.51,1.51,0,0,0,6,42a19.18,19.18,0,0,0-1.19,4.9h3L7.25,41.1a1.52,1.52,0,0,0-1.54-1.5,1.46,1.46,0,0,0-.7.18,8.69,8.69,0,0,0-2.75,2.81L5,43.35v-3.8A1.52,1.52,0,0,0,3.51,38a1.63,1.63,0,0,0-.45.07C.42,38.93.54,41.6.57,43.89L.68,52.1c0,2.36-.22,5,.64,7.25.78,2,3.33,3.75,3.25,6a1.52,1.52,0,0,0,2.56,1.06,16.39,16.39,0,0,0,5-10.06c.21-1.7-2.53-2-2.94-.4a6.46,6.46,0,0,0,0,3.49,1.52,1.52,0,0,0,1.9,1,1.46,1.46,0,0,0,.84-.64L15,54.91l-2.74-.36L12.75,56c.5,1.54,3,1.37,2.94-.39l-.28-5.14a1.51,1.51,0,0,0-2.79-.75,14.08,14.08,0,0,0-2.35,6.81h3c0-.95-.37-9.36.22-9.35L12.2,44.94l-.72,1.16c-.9,1.41,1.25,3.15,2.35,1.82a4.66,4.66,0,0,1,2.07-1.54l-1.7-2.21a15.62,15.62,0,0,0-1.8,6.75,1.52,1.52,0,0,0,1.48,1.54A1.54,1.54,0,0,0,15,52l4.4-5.39L17,44.77a64.84,64.84,0,0,0-4.37,8.39C12,54.58,13.76,56.37,15,55l4.82-5.4-2.36-1.82A66.8,66.8,0,0,0,14,55.88a1.5,1.5,0,0,0,1.09,1.83,1.51,1.51,0,0,0,1.42-.37L23,50.57a1.5,1.5,0,0,0-2.12-2.12A55.29,55.29,0,0,0,12.2,58.94c-.85,1.31.79,2.73,2.05,2l3.33-1.79a15.2,15.2,0,0,0,3.14-1.84c1.92-1.78.62-4.2,0-6.25a36.81,36.81,0,0,1-1.61-15c.17-1.76-2.45-1.93-3-.4a30.57,30.57,0,0,0-1.54,9.09h3a89.2,89.2,0,0,1-.09-9.25c.07-1.72-2.48-2-3-.4a27.39,27.39,0,0,0-1.09,9l2.94-.4L15,37.41a1.51,1.51,0,0,0-2.9,0A50.6,50.6,0,0,0,11,46.59h3l-.46-10.72a1.5,1.5,0,0,0-3,0A99.25,99.25,0,0,1,10,46.07l2.26-1.3C10,43.1,11,39.6,11.61,37.38a1.5,1.5,0,0,0-2.89-.8,22.24,22.24,0,0,0-1.24,9.87c.16,1.54,2.63,2.21,2.95.4l1.45-8.26a1.52,1.52,0,0,0-1.13-1.83,1.48,1.48,0,0,0-1.07.14,6.11,6.11,0,0,0-3.1,3.9l2.94.4L9.63,33a1.52,1.52,0,0,0-1.54-1.48,1.54,1.54,0,0,0-1.26.73,31.62,31.62,0,0,0-2.61,7.38l2.89.8a38.51,38.51,0,0,0,.73-7.65A1.51,1.51,0,0,0,5,32L1.52,37.6,4.26,38A4.72,4.72,0,0,1,5.85,33.1L3.34,31.61a2.26,2.26,0,0,0,1.55,2.66,13.78,13.78,0,0,0,1.82.06,3.21,3.21,0,0,1,1.59.9c1.9,1.7,3.15,4.21,5.93,4.6,1.43.2,2.47-.55,3.82-.69.56-.06.67,0,.5.53a14.3,14.3,0,0,0-.43,1.83,14.5,14.5,0,0,0,1.17,8.34,1.5,1.5,0,0,0,2.07.52,1.23,1.23,0,0,0,.29-.22l.58-.73-2.56-1.06a18.8,18.8,0,0,1-.81,8.39c-.55,1.64,1.88,2.59,2.74,1.16a6.52,6.52,0,0,0,.93-3.13,1.53,1.53,0,0,0-1.6-1.44,1.57,1.57,0,0,0-.92.38l-6.3,6.06,2.12,2.12,6.81-7.59a1.5,1.5,0,0,0-2.12-2.12A51.13,51.13,0,0,0,8.77,65.27l2.59,1.51,3.72-8.21c.65-1.45-1.11-3.16-2.36-1.82C8.77,61,4.58,65.86,5,72.1l3-.4L6.94,65.1c-.25-1.6-2.44-1.24-2.89,0l-.86,2.38,2.74-.38A19.3,19.3,0,0,1,4.1,60.94c-.23-1.87-3-2-3,0L1,66.83a1.51,1.51,0,0,0,1.5,1.5c.63-.08.52,2.9.55,3.44l.26,4.68a1.51,1.51,0,0,0,3,.39,26.72,26.72,0,0,1,8.76-13c4-3.17,8.66-5.38,11.41-9.83,1-1.65-1.58-3.16-2.59-1.52Z" transform="translate(0 0)"/><g class="cls-1"><path class="cls-2" d="M69.71,48.45v1.36H67.48v7H65.8v-7H63.56V48.45Z" transform="translate(0 0)"/></g><g class="cls-1"><path class="cls-2" d="M16,149.13l-1.85-3.26h-.79v3.26H11.68v-8.38h3.14a3.67,3.67,0,0,1,1.66.35,2.29,2.29,0,0,1,1,.92,2.59,2.59,0,0,1-.13,2.8,2.45,2.45,0,0,1-1.43.91l2,3.4Zm-2.64-4.52h1.4a1.39,1.39,0,0,0,1-.33,1.21,1.21,0,0,0,.34-.92,1.17,1.17,0,0,0-.34-.9,1.43,1.43,0,0,0-1-.31h-1.4Z" transform="translate(0 0)"/></g><g class="cls-1"><path class="cls-2" d="M24.4,131.68H21.07l-.55,1.6H18.75l3-8.39h2l3,8.39H25ZM24,130.34l-1.21-3.5-1.22,3.5Z" transform="translate(0 0)"/></g><g class="cls-1"><path class="cls-2" d="M35.41,113.84a2.34,2.34,0,0,1-1,.94,3.61,3.61,0,0,1-1.71.36H31.3v3.22H29.62V110H32.7a3.81,3.81,0,0,1,1.66.34,2.29,2.29,0,0,1,1,.92,2.63,2.63,0,0,1,.35,1.34A2.68,2.68,0,0,1,35.41,113.84Zm-1.75-.37a1.15,1.15,0,0,0,.34-.89c0-.82-.46-1.23-1.37-1.23H31.3v2.44h1.33A1.46,1.46,0,0,0,33.66,113.47Z" transform="translate(0 0)"/></g><g class="cls-1"><path class="cls-2" d="M44.65,94.54v8.38H43V99.36H39.38v3.56H37.7V94.54h1.68V98H43V94.54Z" transform="translate(0 0)"/></g><g class="cls-1"><path class="cls-2" d="M8,156.33v1.36H5.78v7H4.1v-7H1.86v-1.36Z" transform="translate(0 0)"/></g><rect x="64.67" y="69.23" width="1.5" height="38.75" transform="translate(-23.54 153.55) rotate(-89.69)"/><path class="cls-3" d="M79.85,22.23a9.66,9.66,0,0,0-2.28,0,11,11,0,0,0-6.8,4V56.51H84.56V24.22A9.94,9.94,0,0,0,79.85,22.23Z" transform="translate(0 0)"/><path class="cls-3" d="M84.8,56.75H70.53V26.15l0-.07a11.24,11.24,0,0,1,7-4.09,10.26,10.26,0,0,1,2.35,0h0a10.3,10.3,0,0,1,4.83,2l.09.07ZM71,56.27H84.32V24.34a9.8,9.8,0,0,0-4.5-1.87,9.16,9.16,0,0,0-2.22,0A10.78,10.78,0,0,0,71,26.31Z" transform="translate(0 0)"/><g class="cls-1"><path class="cls-2" d="M47.33,87.38a4.09,4.09,0,0,1-1.56-1.53,4.48,4.48,0,0,1,0-4.41,4,4,0,0,1,1.56-1.53,4.45,4.45,0,0,1,4.32,0,4,4,0,0,1,1.55,1.53,4.55,4.55,0,0,1,0,4.41,4.14,4.14,0,0,1-1.55,1.53,4.34,4.34,0,0,1-2.16.55A4.29,4.29,0,0,1,47.33,87.38Zm3.49-1.29a2.38,2.38,0,0,0,.9-1,3.54,3.54,0,0,0,0-2.94,2.41,2.41,0,0,0-.9-1,2.87,2.87,0,0,0-2.67,0,2.37,2.37,0,0,0-.91,1,3.54,3.54,0,0,0,0,2.94,2.34,2.34,0,0,0,.91,1,2.79,2.79,0,0,0,2.67,0Z" transform="translate(0 0)"/></g><rect x="64.67" y="53.77" width="1.5" height="38.75" transform="translate(-8.08 138.18) rotate(-89.69)"/><g class="cls-1"><path class="cls-2" d="M59.13,70.89h2.76v1.33H57.45V63.84h1.68Z" transform="translate(0 0)"/></g><rect x="58.63" y="93.91" width="1.5" height="50.84" transform="translate(-60.27 178.06) rotate(-89.69)"/></svg>